<?xml version="1.0" encoding="UTF-8"?>
<svg version="1.1" viewBox="0 0 600 800" xmlns="http://www.w3.org/2000/svg" xmlns:xlink="http://www.w3.org/1999/xlink">
 <defs>
  <linearGradient id="n">
   <stop stop-color="#ffacfa" offset="0"/>
   <stop stop-color="#cb00c0" offset="1"/>
  </linearGradient>
  <linearGradient id="a">
   <stop stop-color="#ff0bf1" offset="0"/>
   <stop stop-color="#cb00c0" offset="1"/>
  </linearGradient>
  <radialGradient id="ag" cx="181.35" cy="267.21" r="5.51" gradientTransform="matrix(.9919 0 0 .9919 143.19 -32.543)" gradientUnits="userSpaceOnUse">
   <stop stop-color="#ffacfa" offset="0"/>
   <stop stop-color="#cb00c0" offset="1"/>
  </radialGradient>
  <radialGradient id="ah" cx="181.35" cy="267.21" r="5.51" gradientTransform="matrix(.73314 0 0 .73314 199.29 41.769)" gradientUnits="userSpaceOnUse">
   <stop stop-color="#ffacfa" offset="0"/>
   <stop stop-color="#cb00c0" offset="1"/>
  </radialGradient>
  <radialGradient id="ai" cx="181.35" cy="267.21" r="5.51" gradientTransform="matrix(.9919 0 0 .9919 47.402 84.608)" gradientUnits="userSpaceOnUse" xlink:href="#n"/>
  <radialGradient id="aj" cx="181.35" cy="267.21" r="5.51" gradientTransform="matrix(.73314 0 0 .73314 103.89 158.79)" gradientUnits="userSpaceOnUse" xlink:href="#a"/>
  <radialGradient id="ak" cx="181.35" cy="267.21" r="5.51" gradientTransform="matrix(.9919 0 0 .9919 -19.376 138.61)" gradientUnits="userSpaceOnUse" xlink:href="#a"/>
  <radialGradient id="al" cx="181.35" cy="267.21" r="5.51" gradientTransform="matrix(.73314 0 0 .73314 37.618 212.18)" gradientUnits="userSpaceOnUse" xlink:href="#a"/>
  <radialGradient id="am" cx="181.35" cy="267.21" r="5.51" gradientTransform="matrix(.93938 0 0 .93938 6.4288 156.15)" gradientUnits="userSpaceOnUse" xlink:href="#a"/>
  <filter id="y" x="-.02266" y="-.087529" width="1.0453" height="1.1751" color-interpolation-filters="sRGB">
   <feGaussianBlur stdDeviation="0.57849864"/>
  </filter>
  <radialGradient id="an" cx="180.86" cy="268.43" r="5.51" gradientTransform="matrix(1.1693 .79405 -.86368 1.2718 311.69 -148.22)" gradientUnits="userSpaceOnUse" xlink:href="#n"/>
  <filter id="z" x="-.034654" y="-.037455" width="1.0693" height="1.0749" color-interpolation-filters="sRGB">
   <feGaussianBlur stdDeviation="1.4014905"/>
  </filter>
  <radialGradient id="o" cx="1342.2" cy="264.21" r="25.662" gradientTransform="matrix(1.0289 .6866 -.68645 1.0287 140.11 -930.04)" gradientUnits="userSpaceOnUse">
   <stop stop-color="#14020b" offset="0"/>
   <stop stop-color="#ec3685" offset=".38534"/>
   <stop stop-color="#cf4d8e" offset="1"/>
  </radialGradient>
  <radialGradient id="x" cx="1339.8" cy="263.42" r="27.811" gradientTransform="matrix(1 0 0 .98566 0 3.7767)" gradientUnits="userSpaceOnUse">
   <stop stop-color="#a05a2c" offset="0"/>
   <stop stop-color="#a24709" stop-opacity=".94902" offset=".85952"/>
   <stop stop-color="#5e2600" stop-opacity=".9451" offset="1"/>
  </radialGradient>
  <filter id="b" x="-.032663" y="-.018969" width="1.0653" height="1.0379" color-interpolation-filters="sRGB">
   <feGaussianBlur stdDeviation="0.32141848"/>
  </filter>
  <filter id="aa" x="-.016649" y="-.060841" width="1.0333" height="1.1217" color-interpolation-filters="sRGB">
   <feGaussianBlur stdDeviation="1.0223631"/>
  </filter>
  <filter id="ab" x="-.029122" y="-.04713" width="1.0582" height="1.0943" color-interpolation-filters="sRGB">
   <feGaussianBlur stdDeviation="0.43867876"/>
  </filter>
  <filter id="ac" x="-.09118" y="-.057006" width="1.1824" height="1.114" color-interpolation-filters="sRGB">
   <feGaussianBlur stdDeviation="1.0453205"/>
  </filter>
  <filter id="ad" x="-.037281" y="-.050271" width="1.0746" height="1.1005" color-interpolation-filters="sRGB">
   <feGaussianBlur stdDeviation="1.0453205"/>
  </filter>
  <filter id="ae" x="-.026771" y="-.034822" width="1.0535" height="1.0696" color-interpolation-filters="sRGB">
   <feGaussianBlur stdDeviation="1.0453205"/>
  </filter>
  <filter id="af" x="-.027438" y="-.052328" width="1.0549" height="1.1047" color-interpolation-filters="sRGB">
   <feGaussianBlur stdDeviation="0.42889642"/>
  </filter>
 </defs>
 <g transform="matrix(1.057 0 0 1.057 -58.243 -43.432)">
  <g transform="matrix(.66146 -.3282 .3282 .66146 -40.879 466.55)" stroke="#000" stroke-linecap="round" stroke-linejoin="round">
   <path d="m481.78 365.9 35.857 12.121c4.1891 1.4161 6.5236 7.1158 5.7158 13.028-2.146 12.117-5.1662 60.113-15.555 66.637l-15.072 8.3617-33.194-11.221c-5.6387-1.9061-10.067-10.201-7.6938-17.536l20.534-63.475c1.763-5.4498 5.2181-9.3318 9.4072-7.9157z" fill="#4c5563" stroke-width="2.4659"/>
   <path d="m510.18 371.06h52.845c6.1736 0 10.028 5.0718 11.144 11.144l13 70.721c1.5024 8.1731-6.69 15-15 15h-71.132c-8.31 0-16.502-6.8269-15-15l13-70.721c1.1161-6.0718 4.9701-11.144 11.144-11.144z" fill="#535d6c" stroke-width="3"/>
   <path d="m534.01 371.56h5.1837c0.60559 0 0.98363 5.1792 1.0931 11.38l1.2752 72.218c0.14737 8.3461-0.0275 12.85-0.8427 12.85h-6.9776c-0.81515 0-2.2475-4.504-2.1001-12.85l1.2752-72.218c0.10948-6.2004 0.48753-11.38 1.0931-11.38z" fill="#2e343c" stroke-width="4"/>
  </g>
  <path d="m238.31 482.62c-23.445-2.1755-36.789-10.272-42.958-22.575l9.6015-23.751c12.022 10.551 23.608 21.649 42.566 23.529 0.085 8.3878-4.66 15.568-9.2094 22.797z" fill="#f0f" stroke="#000" stroke-linecap="round" stroke-linejoin="round" stroke-width="2.2424"/>
  <g transform="matrix(-.99488 .10104 -.10104 -.99488 1556.9 646.12)">
   <ellipse cx="1339.8" cy="263.42" rx="29.03" ry="28.614" fill="#612709"/>
   <ellipse cx="1339.8" cy="263.42" rx="27.811" ry="27.412" fill="url(#x)"/>
   <path d="m1357.9 244.95c2.3636 2.4739 0.05 6.9505 1.1059 10.205 1.315 4.0522 6.9201 6.872 6.3467 11.093-0.4605 3.3905-5.4031 4.3725-7.289 7.2274-2.3482 3.5546-1.0583 9.6949-4.7162 11.879-2.9378 1.7539-6.7873-1.4981-10.195-1.1926-4.2432 0.38039-8.2395 5.2173-12.228 3.719-3.203-1.2034-3.0606-6.2406-5.4243-8.7145-2.9429-3.0803-9.2163-3.189-10.531-7.2412-1.0562-3.2545 2.9709-6.2838 3.4313-9.6743 0.5734-4.2214-3.253-9.1939-0.9049-12.749 1.886-2.8549 6.7652-1.5952 9.7031-3.3491 3.6579-2.1838 5.1598-8.2757 9.4031-8.656 3.4079-0.3055 5.4652 4.2946 8.6681 5.498 3.9881 1.4983 9.6874-1.1257 12.63 1.9546z" fill="url(#o)" stroke="#000" stroke-linecap="round" stroke-linejoin="round" stroke-width=".72338"/>
   <path d="m1357.4 245.26c2.3758 2.323 0.049 6.7481 1.0742 9.9079 1.2773 3.9342 6.7217 6.6719 6.1648 10.77-0.4473 3.2918-5.2478 4.2451-7.0801 7.017-2.4534 3.7116-1.0278 11.026-4.9295 12.404-1.8735 0.66153-9.6556-1.8455-11.364-3.5143-1.6785-1.639 3.0629-3.307 1.4227-3.16 2.5001-0.54917 7.9934 3.4796 9.3497 1.2343 1.2183-2.0165 0.6745-5.8022 1.9129-7.4284 2.1291-2.7958 3.8624-2.4132 3.594-5.7302-0.1825-2.2561-4.1128-7.3697-4.4797-9.7468-0.3909-2.5333 1.3839-5.617-0.2362-7.8784-1.582-2.2082-6.9428-1.8231-8.4712-4.999 3.8738 1.4547 9.9235-1.9266 13.043 1.1235z" fill="#eaafc8" filter="url(#b)" opacity=".728"/>
   <path d="m1340.2 243.6c0 1.0185 0.026 1.9864-0.1543 2.6538-0.1803 0.66743-1.0261 1.1261-1.3014 1.1261s-0.9834-0.32102-1.1637-0.98845c-0.1804-0.66742-0.1543-1.6812-0.1543-2.6997s-0.1638-1.8946 0.017-2.562c0.1803-0.66743 1.0261-1.1261 1.3014-1.1261s1.0293 0.22924 1.2096 0.89667c0.1804 0.66742 0.2461 1.6812 0.2461 2.6997z" fill="#7f7bdd" stroke="#000" stroke-linecap="round" stroke-linejoin="round" stroke-width=".5"/>
   <path d="m1344.7 249.59c0.9608-0.33807 1.8652-0.68388 2.5546-0.73533 0.6895-0.0515 1.4028 0.59413 1.4942 0.85383 0.088 0.26091 0.024 1.0342-0.5461 1.4258-0.5696 0.3917-1.5347 0.7036-2.4954 1.0417-0.9608 0.33806-1.7328 0.78337-2.4224 0.83439-0.6895 0.0515-1.4028-0.59414-1.4942-0.85383-0.088-0.26091-0.1255-1.047 0.4443-1.4386 0.5697-0.39173 1.5042-0.79022 2.4649-1.1283z" fill="#afdd7b" stroke="#000" stroke-linecap="round" stroke-linejoin="round" stroke-width=".5"/>
   <path d="m1348.8 263.25c0 5.0856-2.963 9.3825-8.1226 9.3825-5.1596 3e-5 -10.213-4.1227-10.213-9.2083s3.66-8.6856 8.8196-8.6856c5.1596 2e-5 9.5164 3.4258 9.5164 8.5114z" fill="#fff"/>
   <path d="m1323.8 253.84c1.0172-0.0519 1.9825-0.12714 2.6582 0.0189 0.6759 0.14605 1.1769 0.96739 1.1909 1.2423 0.01 0.27516-0.2701 0.99857-0.9278 1.2125-0.6573 0.21418-1.6712 0.23973-2.6883 0.29163-1.0173 0.0519-1.8838 0.26007-2.5596 0.11353-0.6758-0.14605-1.1768-0.9674-1.1909-1.2424-0.01-0.27515 0.1764-1.0396 0.8339-1.2537 0.6573-0.21418 1.6665-0.33144 2.6836-0.3833z" fill="#e70200" stroke="#000" stroke-linecap="round" stroke-linejoin="round" stroke-width=".5"/>
   <path d="m1327.7 269.5c0.9208-0.43553 1.7846-0.87278 2.4649-0.99517 0.6806-0.12249 1.4567 0.44608 1.5744 0.69498 0.1141 0.25057 0.1307 1.0261-0.3959 1.4745-0.5261 0.44842-1.4538 0.85833-2.3744 1.2938-0.9209 0.43557-1.6427 0.95812-2.3233 1.0801-0.6805 0.12243-1.4566-0.44614-1.5744-0.69498-0.1141-0.25058-0.233-1.0285 0.2934-1.4768 0.5261-0.44842 1.4145-0.94128 2.3352-1.3767z" fill="#ff4600" stroke="#000" stroke-linecap="round" stroke-linejoin="round" stroke-width=".5"/>
   <path d="m1325 267.93c0.8738 0.52335 1.7174 0.99842 2.1973 1.496 0.4801 0.4977 0.4388 1.4589 0.2973 1.6951-0.1449 0.23411-0.7804 0.67899-1.4458 0.49044-0.6652-0.18814-1.5216-0.73154-2.3953-1.2548-0.8739-0.52341-1.7095-0.83304-2.1892-1.3311-0.48-0.49765-0.4387-1.4588-0.2973-1.6951 0.1449-0.2341 0.7255-0.76529 1.3908-0.57692 0.6652 0.18814 1.5687 0.65275 2.4424 1.1761z" fill="#e7e500" stroke="#000" stroke-linecap="round" stroke-linejoin="round" stroke-width=".5"/>
   <path d="m1350.8 274.48c0.9661-0.32249 1.8759-0.65349 2.566-0.69378 0.6904-0.0404 1.3931 0.61679 1.4802 0.87795 0.083 0.26241 0.01 1.0344-0.5691 1.4167-0.5759 0.38241-1.5459 0.67864-2.5119 1.0011-0.9663 0.32253-1.7453 0.75517-2.4357 0.79501-0.6902 0.0403-1.3929-0.61684-1.4801-0.87797-0.083-0.26239-0.1085-1.0489 0.4676-1.4312 0.5759-0.38241 1.5168-0.76569 2.4828-1.0881z" fill="#7f7bdd" stroke="#000" stroke-linecap="round" stroke-linejoin="round" stroke-width=".5"/>
   <path d="m1355.7 263.77c0.4422-0.91746 0.8392-1.8005 1.2914-2.3233 0.4523-0.52314 1.4134-0.56879 1.6613-0.44917 0.246 0.12342 0.7486 0.71395 0.619 1.3956-0.1273 0.67948-0.5912 1.5814-1.0334 2.4988-0.4424 0.91763-0.6753 1.7777-1.128 2.3005-0.4523 0.52293-1.4133 0.56862-1.6613 0.44909-0.246-0.12341-0.8277-0.65344-0.7002-1.333 0.1274-0.67947 0.5085-1.6212 0.9508-2.5386z" fill="#e70200" stroke="#000" stroke-linecap="round" stroke-linejoin="round" stroke-width=".5"/>
  </g>
  <path d="m321.02 558.71 72.532 13.632-8.7128 29.966c10.378 40.707 3.7268 68.648-11.971 124.26-18.056-2.6717-32.694-8.0779-25.994-30.555l1.6946-28.857c-28.674-48.124-29.61-78.758-27.549-108.44z" fill="#ecc605" stroke="#000" stroke-linecap="round" stroke-linejoin="round" stroke-width="2"/>
  <path d="m342.12 705.9c-1.0172 13.945-16.567 41.132 8.2264 41.132s38.031-18.839 35.68-67.635c-0.42693-8.8634-8.8321 31.225-11.457 31.114-3.3274-0.14111-7.0734-7.6669-20.932-7.6669-8.3716 0-7.146 4.663-7.8798 1.23-0.71593-3.349 1.0637-11.337 1.0637-11.337s-4.3619 8.5157-4.7008 13.162z" fill="#950095" stroke="#000" stroke-linecap="round" stroke-linejoin="round" stroke-width="2"/>
  <path d="m323.36 562.78-50.023-5.95 8.7128 29.966c-3.3005 55.088 5.0615 76.408 11.69 91.422 10.813 24.492 16.832 47.085 8.2716 68.559 1.6035 36.345 56.668 24.828 49.968 2.3504-25.2-6.6332-11.794-22.918-11.566-35.908 0.72187-23.311 8.4369-44.445 0.94421-59.624-18.449-37.375-23.348-65.43-17.997-90.815z" fill="#ecc605" stroke="#000" stroke-linecap="round" stroke-linejoin="round" stroke-width="2"/>
  <path d="m352.48 748.68c0 20.12 6.2254 38.311-18.568 38.311s-36.788-16.743-33.027-36.863c1.6303-8.7226 2.5318 0.0219 5.1571-0.0894 3.3274-0.14111 10.72-7.2346 24.579-7.2346 8.3716 0 15.63 5.5183 18.86 4.1416 4.8383 0.81039 3.1488-0.25717 2.9992 1.7344z" fill="#950095" stroke="#000" stroke-linecap="round" stroke-linejoin="round" stroke-width="2"/>
  <path d="m320.9 575.75-47.566-18.928 8.7128 29.966c-3.3005 55.088 5.0615 76.408 11.69 91.422 10.813 24.492 16.832 47.085 8.2716 68.559 0.35406 8.0251-1.1151 15.599 2.8099 23.253 4.928 9.6098 15.641 17.836 18.322 10.119 0.90688-2.6104-6.4647-29.246-7.1212-44.133-0.56254-12.757 5.4847-29.034 2.7496-38.209 0 0-24.959-55.638-20.623-84.21 2.2083-14.551 27.676 2.3373 22.753-37.838z" opacity=".109"/>
  <path d="m187.28 467.23c-7.5037 5.0378-14.62 12.158-17.471 20.735-2.0359 6.1249-3.2158 14.558 1.1295 19.33 1.2455 1.368 5.3248 3.2217 5.4862 0.84045 0.1613-2.3812 0.7076-13.721 0.7076-13.721s-0.7076 13.721-0.5463 20.165c0.09 3.5992 12.425 0.56029 12.425 0.56029l-0.8808-19.798s0.8808 19.798 1.8489 23.16c0.8872 3.0805 7.7634 1.8955 10.972 0.14009 1.7854-0.97667 3.7679-3.2208 3.2271-5.1827-0.51457-1.8667-4.2893-0.93361-5.1634-2.6614-1.3873-2.7423-0.61434-6.83 1.4522-9.1048 3.7715-4.1515 10.889-5.7517 16.287-4.2284 1.9667 0.55497 2.8691 2.4016 4.2531 4.4151 1.7826 2.5935 0.8242 1.1585 2.0985 3.346 1.273 2.1853 2.766-5.4704 2.8274-8.4352 0.0473-2.2842-2.0914-4.3061-1.9074-6.5834 0.59056-7.308 9.4338-19.87 9.4338-19.87l-27.516-9.1234s-13.236 2.374-18.663 6.0173z" fill="#fad414" fill-rule="evenodd" stroke="#000" stroke-width="1.2538px"/>
  <path d="m273.38 278.61c94.259 16.363 54.048-26.062 44.888-38.292 0 0 10.722 8.0651 13.715 22.141 6.1686-13.599 11.142-37.742 2.0978-46.66-28.073-50.93-19.498-102 27.064-129.17 30.211-55.759-40.214-28.536-56.138-14.963-78.554 56.9-40.012 89.585-11.183 140.56 7.1657 12.67-51.913 13.805-20.443 66.389z" fill="#f9e5af" opacity=".96" stroke="#000" stroke-linecap="round" stroke-linejoin="round" stroke-width="1.4347"/>
  <path d="m290.43 264.54c74.854 12.995 42.921-20.697 35.647-30.409 0 0 8.5145 6.4048 10.892 17.583 4.8986-10.799 8.8484-29.972 1.6659-37.054-22.294-40.445-16.651-88.718 20.325-110.3 23.991-44.28-39.546-23.722-52.192-12.944-62.383 45.186-22.997 79.92-0.1031 120.4 5.6906 10.062-41.225 10.963-16.234 52.721z" fill="#f5d98b" fill-opacity=".61798" opacity=".96"/>
  <path d="m247.8 278.7c-19.269 15.283-2.812 54.59-9.4907 80.911-7.6304 30.072-20.428 60.832-34.543 86.427l44.723 18.658 39.343-106.1-11.118-68.726c-7.6656-9.4856-14.415-21.647-28.915-11.174z" fill="#f0f" fill-rule="evenodd" stroke="#000" stroke-width="2.2424"/>
  <path d="m188.28 468.99c-6.9421 4.6607-13.526 11.248-16.164 19.183-1.8835 5.6664-4.887 17.2 1.045 17.883 0.96661 0.11133 0.323-0.64957 0.8283-2.799 1.0434-4.4384 2.2194-13.812 2.2194-13.812s3.1455 5.3176 3.2947 11.279c0.083 3.3298 4.7885 0.74189 4.7885 0.74189l2.7617-11.834c15.634 40.388 8.2259-19.969 30.079-11.68 3.1222-2.7787 9.1747-8.5469 9.1747-8.5469l-20.762-5.9816s-12.245 2.1963-17.266 5.5669z" fill="#ecc605"/>
  <path d="m204.57 436.3c23.445 2.1755 36.789 10.272 42.958 22.575l-9.6015 23.751c-12.022-10.551-23.608-21.649-42.566-23.529-0.085-8.3878 4.66-15.568 9.2094-22.797z" fill="#f0f" stroke="#000" stroke-linecap="round" stroke-linejoin="round" stroke-width="2.2424"/>
  <path d="m321.02 558.71 72.532 13.632s-4.0956 10.199-8.2828 13.339c-14.322 10.741-52.561-3.9018-51.736 14.42 0.47 10.439 22.31 35.062 29.507 60.227 8.0458 28.134-22.167 73.238-15.014 84.154-18.056-2.6717-7.8514-25.997-1.1506-48.475l1.6946-28.857c-28.674-48.124-29.61-78.758-27.549-108.44z" opacity=".109"/>
  <g transform="matrix(.66146 -.3282 .3282 .66146 -40.879 466.55)" stroke="#000" stroke-linecap="round" stroke-linejoin="round">
   <path d="m481.78 365.9 35.857 12.121c4.1891 1.4161 6.5236 7.1158 5.7158 13.028-2.146 12.117-4.6148 10.321-15.003 16.845l-15.072 8.3617c-11.065-3.7403-3.5654-4.8182-30.375-9.822-5.8511-1.0921 18.569-16.328 14.809-23.059l-5.3395-9.5586c-2.7933-5.0005 5.2181-9.3318 9.4072-7.9157z" filter="url(#ad)" opacity=".297" stroke-width="2.4659"/>
   <path d="m510.18 371.06h52.845c6.1736 0 10.001 5.0767 11.144 11.144l4.4103 23.42c1.5379 8.1665 2.4512 12.509-5.8588 12.509h-71.132c-8.31 0-5.099-4.1098-4.4357-12.393l1.8843-23.535c0.49271-6.1539 4.9701-11.144 11.144-11.144z" filter="url(#ae)" opacity=".297" stroke-width="3"/>
   <path d="m534.01 371.56h5.1837c0.60559 0 1.3731 5.1845 1.0931 11.38l-0.98996 21.906c-0.37684 8.3388 2.7891 13.369 1.9739 13.369h-6.9776c-0.81515 0-2.3694-4.5071-2.1001-12.85l0.72381-22.425c0.20005-6.1981 0.48753-11.38 1.0931-11.38z" filter="url(#ac)" opacity=".297" stroke-width="4"/>
  </g>
  <path d="m366.15 240.45c-39.374 1.5021-83.115 8.4284-103.78 33.451 7.5036 16.968-5.2562 40.187-4.6341 56.233 0.91982 23.723 13.247 39.35 18.368 57.622l-9.849 20.682c-43.744 64.482-12.231 64.623-48.81 146.75 25.19 33.195 103.87 22.887 148.2 28.11 101.63-13.289 103.37-62.788 119.09-78.261-58.392-6.7737-66.091-67.047-96.2-107.62 25.189 29.752 8.9258 13.238 34.337 60.473-12.479-84.939 30.287-82.577 2.2205-173.41-42.17-47.385-21.842-16.978-58.95-44.036z" fill="#f0f" fill-rule="evenodd" stroke="#000" stroke-width="3"/>
  <path d="m411.68 168.49c8.7913 26.918-2.7048 14.477-17.241 23.857-27.938 18.029-18.644 88.047-26.044 88.372-2.2282 0.0979-16.971 20.621-28.635 19.607-11.663-1.0135-20.247-23.564-22.682-28.753-2.5976-5.5364 7.0971-44.287 9.2333-50.097 0.71497-1.9445-7.1927-2.2997-8.3284-3.9529-6.5958-9.6014 0.60173-13.529-1.0973-15.114-12.376-11.547-6.6049-5.608-8.0426-13.425 0 0-7.3931-14.707-1.7084-27.475 4.8581-10.912 9.9103-18.317 7.4112-23.107-19.858-38.058 59.127-45.047 59.127-45.047 31.699 36.287 32.511 58.306 38.007 75.135z" fill="#fad414" stroke="#000" stroke-linecap="round" stroke-linejoin="round" stroke-width="1.5149"/>
  <path d="m367.49 105.99c38.899 24.099 51.314 32.399 51.574 80.762-1.5764 22.206-12.264 73.837-34.005 74.528-11.303 0-15.27 10.944-22.646-9.9028-7.3757-20.847 5.6437-48.546 27.747-84.461 16.745-27.208-56.092-38.111-48.717-58.957 7.3757-20.847 14.744-1.9682 26.047-1.9682z" fill="#ebc505"/>
  <path d="m356.1 152.7c13.082 1.3337 13.924 5.2578 22.832 5.1871 8.9086-0.0707 20.07-3.3942 19.92-7.3836-0.1506-3.9894-11.556-7.134-20.465-7.0633-8.9086 0.0707-22.437 5.2704-22.287 9.2598z" fill="#fff" stroke="#000" stroke-linecap="round" stroke-linejoin="round" stroke-width="1.3029"/>
  <path d="m389.67 123.32c-7.3069-1.0332-14.788-0.82037-22.025 0.62669-2.3327 0.46648-4.64 1.0601-6.9082 1.7774 1.9644-1.9485 4.2904-3.5312 6.8239-4.6434 3.5458-1.5565 7.4965-2.1793 11.349-1.7891 3.8526 0.39022 7.5982 1.7925 10.76 4.0284z" fill-rule="evenodd" stroke="#000" stroke-width=".50076px"/>
  <path d="m350.04 153.92c-11.381-3.3478-13.236-0.047-20.7-3.2235-7.4642-3.1765-15.87-10.12-14.577-13.722 1.2933-3.6019 11.796-2.4988 19.26 0.678 7.4642 3.1765 17.31 12.665 16.017 16.267z" fill="#fff" stroke="#000" stroke-linecap="round" stroke-linejoin="round" stroke-width="1.2165"/>
  <path d="m319.71 114.61c6.9391 0.87711 13.745 2.8011 20.116 5.6867 2.0912 0.94714 4.1358 1.9972 6.124 3.145-1.5718-2.167-3.5112-4.0667-5.7102-5.5934-5.888-4.0877-13.67-5.3152-20.53-3.2384z" fill-rule="evenodd" stroke="#000" stroke-width=".45259px"/>
  <path d="m346.78 131.61c0.0645 0.69604 0.10717 2.115-0.0147 4.0473-0.1218 1.9317-0.40779 4.3752-0.99947 7.1233-1.1833 5.4961-3.5891 12.21-8.3487 18.486-1.0685 1.4212-2.6298 2.7675-3.8702 4.3475-0.59955 0.76367-1.0901 1.5493-1.3352 2.356-0.24566 0.8086-0.24378 1.6357 0.1371 2.4787 1.123 2.496 4.3467 4.2759 7.5924 5.0184 1.6257 0.37192 3.2617 0.4849 4.6512 0.29675 1.3901-0.18822 2.5323-0.67768 3.1706-1.5085-0.64454 0.82415-1.7881 1.3031-3.1741 1.4817-1.3865 0.17865-3.017 0.0568-4.6355-0.32266-3.2427-0.76034-6.4186-2.5497-7.5058-5.0097-0.36044-0.81925-0.35246-1.6161-0.10671-2.3946 0.24635-0.78028 0.73257-1.5447 1.3332-2.2952 1.1562-1.4448 2.8962-2.9908 3.9154-4.3173 4.7983-6.297 7.2336-13.038 8.4409-18.559 0.60365-2.7608 0.9004-5.217 1.0321-7.1613 0.13161-1.9435 0.0985-3.3771 0.0412-4.0946z" fill="#f3d341" fill-rule="evenodd" stroke="#000" stroke-width="1.3658"/>
  <path d="m352.95 150.62c0.7732 3.4414-1.2442 6.7922-4.506 7.4843-3.2618 0.69206-5.8356-0.18012-5.3626-3.6725 0.3988-2.9456 3.044-7.1741 3.268-10.371 0.2267-3.2369 5.8274 3.118 6.6006 6.5594z" fill="#f3d341"/>
  <g transform="matrix(.31186 .099243 -.063816 .43757 236.2 76.344)" stroke="#000">
   <path d="m300.21 189.82c-17.072 4.3076-16.296 11.016-33.71 20.865 0.61954 1.4439 8.4212 2.2654 9.3776 3.69 8.3434 12.426 24.506 26.545 41.061 23.971 24.405-3.7948 28.112-13.891 34.552-24.396 1.0879-1.7746 9.7036-0.76914 9.8544-2.4662-17.414-9.8492-13.394-17.356-30.466-21.664-8.3877 2.6585-9.4988 8.4533-15.336 8.4531-5.8365-1.6e-4 -6.9472-5.7949-15.334-8.4531z" fill="#ffbfbf" stroke-linecap="round" stroke-linejoin="round" stroke-width="3.1"/>
   <path d="m267.75 210.61c15.684 4.1685 31.902 6.3189 48.13 6.3815 15.907 0.0614 31.821-1.8829 47.245-5.7722" fill="none" stroke-width="4"/>
  </g>
  <path d="m334.16 204.56c1.691 0.21591 3.4133 0.18467 5.0954-0.0924 2.6799-0.44144 5.2539-1.513 7.4554-3.1036" fill="none" stroke="#000" stroke-width="2"/>
  <path d="m342.97 196.67c0.54927 1.1259 1.2294 2.1879 2.0223 3.1578 1.4866 1.8184 3.373 3.3082 5.4865 4.333" fill="none" stroke="#000" stroke-linecap="round" stroke-width="1.2083"/>
  <path d="m341.59 311.71c7.6249 18.163-12.048 73.039-16.999 95.278-8.4239 37.843 9.067 77.755 27.446 117.78 9.3946 20.457 7.2788 37.069 12.763 58.479" fill="none" stroke="#000" stroke-width="2"/>
  <g transform="translate(141.37 -5.1615)" fill-rule="evenodd">
   <path d="m152.28 392.27c-1.3386-1.1165-2.4622-3.0224-3.3991-5.5906-0.92608-2.5387-1.6358-5.6234-2.244-8.9532-1.2157-6.6554-2.0241-14.282-3.4616-20.569 1.0871 6.3625 1.5278 13.961 2.3989 20.734 0.43509 3.3826 0.97839 6.5634 1.7786 9.2894 0.79125 2.6954 1.8642 5.0622 3.4649 6.6666z"/>
   <path d="m151.13 404.8c-0.82186-0.15429-1.6934-0.2044-2.599-0.15637-3.0461 3.9611-4.3773 10.134-5.1863 16.335-0.94712 7.2591-1.2245 14.846-2.1654 21.419 1.585-6.2667 2.6264-14.227 4.1979-21.054 1.4468-6.2855 3.2903-11.39 6.104-14.139-0.19415-0.76832-0.32183-1.5711-0.35119-2.4042z"/>
   <path d="m143.47 405.02c-0.56113-0.21996-1.1794-0.36709-1.8354-0.44783-2.6968 2.431-4.8958 6.9302-6.7862 11.599-1.8252 4.5084-4.4556 12.253-6.0345 16.163 2.3422-4.4894 4.841-10.528 7.3974-15.542 2.3572-4.6227 4.7418-8.3481 7.1937-10.008-0.0301-0.57857-0.0173-1.1707 0.0649-1.7647z"/>
   <path d="m141.13 394.23c0.0597-0.59767 0.18405-1.173 0.35045-1.7238-1.9495-2.1139-3.2338-5.9043-4.2764-10.571-1.141-5.1069-1.943-11.022-3.1885-15.989 0.76613 5.1126 1.043 10.919 1.7159 16.245 0.58207 4.607 1.489 9.1107 3.5216 12.057 0.64993 0.0646 1.2795 0.0607 1.8769-0.0183z"/>
  </g>
  <path d="m269.13 401.01c42.747 0.88313 90.502-1.1123 131.59 11.358-2.4339-5.5447-7.1245-10.445-11.374-15.471-41.621-11.322-77.404-7.5983-114.19-9.2446-3.3146 4.4525-4.7764 8.905-6.0328 13.357z" fill="#f0f" fill-rule="evenodd" stroke="#000" stroke-width="2"/>
  <path d="m376.95 394.6c0.57284 0.25515 1.1804 0.46401 1.8208 0.62504 3.0046-2.1673 4.8608-5.6026 6.2091-9.08 1.5165-3.9111 2.5391-8.318 3.6511-11.759-1.6376 3.3897-3.0539 7.4314-5.0294 11.128-1.7582 3.2896-3.7804 5.9216-6.3658 7.2885-0.0376 0.58996-0.12944 1.1906-0.28584 1.7972z" fill-rule="evenodd"/>
  <g transform="matrix(1.1111 0 0 .9961 124.85 -31.683)" filter="url(#z)" opacity=".496" stroke="#000" stroke-linecap="round" stroke-linejoin="round" stroke-width="1.7045">
   <path d="m157.99 275.87c9.1972-6.7814 8.4228-17.586 22.951-13.271l0.35396 12.003c-5.4125 0.63774-10.592 6.4175-15.869 9.8221-1.3976-3.9325-1.7928-8.8674-7.4359-8.5544z" opacity="1"/>
   <path d="m158.83 295.1c0.77589-9.4879 18.12-21.682 22.602-21.068-0.11416 21.493 6.0238 48.948 15.429 73.015l-5.3001 4.3616c-12.548-19.266-26.781-37.556-32.731-56.308z" opacity="1"/>
   <path d="m242.33 307.97c-1.0372-4.3403-3.6062-10.742-4.1957-17.707-0.096-1.1338 3.0202 11.736 2.7861 10.692-0.47001-2.0953 12.057 2.1718 14.127-1.4635-8.7396-9.8034-10.261-37.613-21.974-35.488-4.1711 21.968 6.707 29.579-40.647 70.503l4.6248 12.48c18.556-9.5793 32.718-26.029 45.279-39.016z" opacity="1"/>
  </g>
  <g transform="translate(143.63 -34.879)" fill="#f0f" stroke="#000" stroke-linecap="round" stroke-linejoin="round" stroke-width="1.7045">
   <path d="m157.99 275.87c9.1972-6.7814 8.4228-17.586 22.951-13.271l0.35396 12.003c-5.4125 0.63774-10.592 6.4175-15.869 9.8221-1.3976-3.9325-1.7928-8.8674-7.4359-8.5544z"/>
   <path d="m158.83 295.1c0.77589-9.4879 18.12-21.682 22.602-21.068-0.11416 21.493 6.0238 48.948 15.429 73.015l-5.3001 4.3616c-12.548-19.266-26.781-37.556-32.731-56.308z"/>
   <path d="m242.33 307.97c-1.0372-4.3403-3.6062-10.742-4.1957-17.707-0.096-1.1338 3.0202 11.736 2.7861 10.692-0.47001-2.0953 12.057 2.1718 14.127-1.4635-8.7396-9.8034-10.261-37.613-21.974-35.488-4.1711 21.968 6.707 29.579-40.647 70.503l4.6248 12.48c18.556-9.5793 32.718-26.029 45.279-39.016z"/>
  </g>
  <path d="m390.14 397.18c8.6661-25.131 16.641-39.523 15.391-58.36-1.0519-15.857-10.723-38.152-11.281-39.906 0 0-1.918-9.425 5.6515-13.367" fill="none" stroke="#000" stroke-linecap="round" stroke-linejoin="round" stroke-width="2.3004"/>
  <g transform="matrix(1.0559 0 0 1.0559 132.62 -47.113)" filter="url(#y)" opacity=".337">
   <circle transform="matrix(.82309 -.5679 .5679 .82309 0 0)" cx="40.122" cy="354.9" r="5.176" opacity="1"/>
   <circle cx="183.65" cy="269.76" r="5.176" opacity="1"/>
   <circle cx="191.75" cy="273.14" r="3.8258" opacity="1"/>
   <circle transform="matrix(.92812 -.37228 .37228 .92812 0 0)" cx="83.896" cy="329.14" r="5.176" opacity="1"/>
   <circle transform="matrix(.92812 -.37228 .37228 .92812 0 0)" cx="91.998" cy="332.51" r="3.8258" opacity="1"/>
   <circle transform="matrix(.82309 -.5679 .5679 .82309 0 0)" cx="23.387" cy="350.05" r="5.176" opacity="1"/>
   <circle transform="matrix(.82309 -.5679 .5679 .82309 0 0)" cx="31.488" cy="353.42" r="3.8258" opacity="1"/>
  </g>
  <circle transform="matrix(.82309 -.5679 .5679 .82309 0 0)" cx="179.04" cy="408.06" r="5.176" fill="url(#am)" stroke="#000" stroke-linecap="round" stroke-linejoin="round"/>
  <circle cx="325.45" cy="233.45" r="5.4654" fill="url(#ag)" stroke="#000" stroke-linecap="round" stroke-linejoin="round" stroke-width="1.0559"/>
  <circle cx="334.01" cy="238.37" r="4.0396" fill="url(#ah)" stroke="#000" stroke-linecap="round" stroke-linejoin="round" stroke-width="1.0559"/>
  <circle transform="matrix(.92812 -.37228 .37228 .92812 0 0)" cx="229.66" cy="350.6" r="5.4654" fill="url(#ai)" stroke="#000" stroke-linecap="round" stroke-linejoin="round" stroke-width="1.0559"/>
  <circle transform="matrix(.92812 -.37228 .37228 .92812 0 0)" cx="238.6" cy="355.39" r="4.0396" fill="url(#aj)" stroke="#000" stroke-linecap="round" stroke-linejoin="round" stroke-width="1.0559"/>
  <circle transform="matrix(.82309 -.5679 .5679 .82309 0 0)" cx="162.88" cy="404.61" r="5.4654" fill="url(#ak)" stroke="#000" stroke-linecap="round" stroke-linejoin="round" stroke-width="1.0559"/>
  <circle transform="matrix(.82309 -.5679 .5679 .82309 0 0)" cx="172.33" cy="408.79" r="4.0396" fill="url(#al)" stroke="#000" stroke-linecap="round" stroke-linejoin="round" stroke-width="1.0559"/>
  <path d="m314.53 125.57c0.1969 0.74995 1.8302 5.3034 4.1505 7.4004 0.8508 0.76891-8.2482-1.9216-12.707-4.6287-0.9967-0.60509 5.9436 10.688 8.8362 8.0967 3.8705-3.468 12.211-1.1087 14.192-0.48994 7.4909 2.3401 10.165 3.5924 13.97 6.8581-1.6221-3.4702-7.1675-6.0609-17.101-10.21-6.8598-2.8656-8.9018-5.7231-11.341-7.0262z"/>
  <path d="m459.73 278.29c-3.556 15.261-37.065 24.723-31.586 34.816-21.102-7.1628-4.3451-39.313-12.397-37.403-15.502 3.6782-17.639 4.1985-29.332 3.352 24.707-13.769-12.942-32.534-11.848-49.448 0.7434-11.492 1.313-25.397 12.311-32.279 16.865-9.3852 26.545-19.228 21.8-45.451-8.1231-27.877-79.672-40.205-66.408-69.327 14.036-30.815 62.012-62.03 101.47 4.864 42.982 73.257-13.076 66.457-10.106 99.743 2.8077 31.474 33.27 60.359 26.099 91.134z" fill="#ffefb3" stroke="#000" stroke-linecap="round" stroke-linejoin="round" stroke-width="1.5224"/>
  <path d="m402.61 138.43c-0.3819 0.71875-3.1446 4.9323-6.0074 6.3336-1.0497 0.51386 5.6364 1.0443 10.816-0.26152 1.1579-0.29189-5.8024 9.1494-8.5603 6.0015-4.5772-5.2244-11.288-6.133-13.448-6.165-8.1658-0.12104-18.089 0.87478-22.741 2.9915 2.4883-3.0813 15.648-4.4937 26.731-5.4304 7.6535-0.64686 10.419-2.9415 13.209-3.4696z"/>
  <g transform="matrix(.31951 -.075024 .060285 .31274 279.52 95.776)" fill="#ebc505">
   <ellipse cx="298.87" cy="372.08" rx="27.291" ry="26.536" stroke="#000" stroke-linecap="round" stroke-linejoin="round" stroke-width="3.7585"/>
   <ellipse cx="281.51" cy="361.51" rx="21.887" ry="23.396"/>
  </g>
  <path d="m455.75 267.39c-2.6047 11.608-28.141 18.771-23.981 26.433-16.021-5.4382-3.299-29.848-9.4124-28.398-11.77 2.7926-13.392 3.1876-22.27 2.545 18.758-10.454-9.826-24.701-8.9953-37.543 0.5644-8.725 0.9969-19.282 9.347-24.508 12.805-7.1256 20.863-43.654 17.26-63.562-6.1675-21.165-53.261-28.868-44.17-48.592 9.6449-20.927 43.59-36.803 70.788-0.35061 32.634 55.619-15.229 63.068-12.634 94.862 2.243 27.473 30.103 52.218 24.068 79.113z" fill="#f5d98b" fill-opacity=".61798"/>
  <circle cx="331.42" cy="146.03" r="2.0506"/>
  <circle cx="378.59" cy="152.52" r="2.0506"/>
  <circle transform="matrix(.92812 -.37228 .37228 .92812 0 0)" cx="295.77" cy="336.38" r="8.471" fill="url(#an)" stroke="#000" stroke-linecap="round" stroke-linejoin="round"/>
  <circle cx="316.14" cy="456.01" r="2.7853" fill="none" stroke="#000" stroke-linecap="round" stroke-linejoin="round" stroke-width="1.5"/>
  <circle cx="322.25" cy="480.61" r="2.7853" fill="none" stroke="#000" stroke-linecap="round" stroke-linejoin="round" stroke-width="1.5"/>
  <circle cx="312.96" cy="427.23" r="2.7853" fill="none" stroke="#000" stroke-linecap="round" stroke-linejoin="round" stroke-width="1.5"/>
  <circle cx="324.25" cy="368.27" r="2.7853" fill="none" stroke="#000" stroke-linecap="round" stroke-linejoin="round" stroke-width="1.5"/>
  <circle cx="330.25" cy="334.27" r="2.7853" fill="none" stroke="#000" stroke-linecap="round" stroke-linejoin="round" stroke-width="1.5"/>
  <path d="m264.52 274.59c11.369 3.1566-3.7722 36.767-1.6032 54.969 2.2392 18.792 9.0064 37.498 14.944 54.771 0 0-18.983-32.999-18.816-51.172 0.093-10.109 5.1668-26.171 6.692-39.319 1.4894-12.839-1.2174-19.249-1.2174-19.249z" fill="#da00da" fill-rule="evenodd"/>
  <path d="m392.65 300.04c-1.1594 9.7631 5.8934 30.174 5.2556 45.393-0.71578 17.078-4.2017 32.993-10.14 50.267 0 0 16.881-31.497 16.714-49.671-0.18389-19.98-11.83-45.989-11.83-45.989z" fill="#da00da" fill-rule="evenodd"/>
  <path d="m336.94 494.15c-1.1594 9.7631 9.021 28.347 13.29 42.595 4.4569 14.876 0.54 30.901 12.864 44.778 0 0-6.0283-37.793-7.6059-44.013-4.0611-11.377-8.7426-21.665-12.25-29.436-3.8216-8.468-6.2975-13.923-6.2975-13.923z" fill="#da00da" fill-rule="evenodd"/>
  <g transform="matrix(.84561 0 0 .84561 -48.354 109.06)">
   <g transform="matrix(.70609 -.24351 .80206 .21438 -590.34 1053.5)" filter="url(#aa)" opacity=".203">
    <ellipse cx="1339.8" cy="263.42" rx="29.03" ry="28.614" opacity="1"/>
    <ellipse cx="1339.8" cy="263.42" rx="27.811" ry="27.412" opacity="1"/>
    <path d="m1357.9 244.95c2.3709 2.4662-0.2102 7.1776 0.7678 10.499 1.2181 4.136 6.9554 6.8372 6.1983 11.219-0.6081 3.5195-5.7983 4.7205-7.8722 7.7406-2.5824 3.7604-1.4693 10.054-5.3655 12.448-3.1291 1.9225-7.0198-1.2912-10.584-0.84701-4.4383 0.55309-8.7874 5.7002-12.889 4.303-3.294-1.1221-2.9554-6.3306-5.3264-8.7968-2.952-3.0707-9.4884-2.9462-10.707-7.0822-0.9783-3.3218 3.3346-6.603 3.9426-10.122 0.7572-4.3822-3.0445-9.374-0.4622-13.134 2.0741-3.0201 7.1135-1.9031 10.243-3.8257 3.8961-2.3938 5.6919-8.743 10.13-9.2961 3.5646-0.4442 5.5358 4.2298 8.8297 5.3519 4.1014 1.3972 10.142-1.5284 13.094 1.5423z" opacity="1" stroke="#000" stroke-linecap="round" stroke-linejoin="round" stroke-width=".75019"/>
    <path d="m1357.4 245.26c2.3758 2.323 0.049 6.7481 1.0742 9.9079 1.2773 3.9342 6.7217 6.6719 6.1648 10.77-0.4473 3.2918-5.2478 4.2451-7.0801 7.017-2.4534 3.7116-1.0278 11.026-4.9295 12.404-1.8735 0.66153-9.6556-1.8455-11.364-3.5143-1.6785-1.639 3.0629-3.307 1.4227-3.16 2.5001-0.54917 7.9934 3.4796 9.3497 1.2343 1.2183-2.0165 0.6745-5.8022 1.9129-7.4284 2.1291-2.7958 3.8624-2.4132 3.594-5.7302-0.1825-2.2561-4.1128-7.3697-4.4797-9.7468-0.3909-2.5333 1.3839-5.617-0.2362-7.8784-1.582-2.2082-6.9428-1.8231-8.4712-4.999 3.8738 1.4547 9.9235-1.9266 13.043 1.1235z" filter="url(#b)" opacity=".728"/>
    <path d="m1340.2 243.6c0 1.0185 0.026 1.9864-0.1543 2.6538-0.1803 0.66743-1.0261 1.1261-1.3014 1.1261s-0.9834-0.32102-1.1637-0.98845c-0.1804-0.66742-0.1543-1.6812-0.1543-2.6997s-0.1638-1.8946 0.017-2.562c0.1803-0.66743 1.0261-1.1261 1.3014-1.1261s1.0293 0.22924 1.2096 0.89667c0.1804 0.66742 0.2461 1.6812 0.2461 2.6997z" opacity="1" stroke="#000" stroke-linecap="round" stroke-linejoin="round" stroke-width=".5"/>
    <path d="m1344.7 249.59c0.9608-0.33807 1.8652-0.68388 2.5546-0.73533 0.6895-0.0515 1.4028 0.59413 1.4942 0.85383 0.088 0.26091 0.024 1.0342-0.5461 1.4258-0.5696 0.3917-1.5347 0.7036-2.4954 1.0417-0.9608 0.33806-1.7328 0.78337-2.4224 0.83439-0.6895 0.0515-1.4028-0.59414-1.4942-0.85383-0.088-0.26091-0.1255-1.047 0.4443-1.4386 0.5697-0.39173 1.5042-0.79022 2.4649-1.1283z" opacity="1" stroke="#000" stroke-linecap="round" stroke-linejoin="round" stroke-width=".5"/>
    <path d="m1348.8 263.25c0 5.0856-2.963 9.3825-8.1226 9.3825-5.1596 3e-5 -10.213-4.1227-10.213-9.2083s3.66-8.6856 8.8196-8.6856c5.1596 2e-5 9.5164 3.4258 9.5164 8.5114z" opacity="1"/>
    <path d="m1323.8 253.84c1.0172-0.0519 1.9825-0.12714 2.6582 0.0189 0.6759 0.14605 1.1769 0.96739 1.1909 1.2423 0.01 0.27516-0.2701 0.99857-0.9278 1.2125-0.6573 0.21418-1.6712 0.23973-2.6883 0.29163-1.0173 0.0519-1.8838 0.26007-2.5596 0.11353-0.6758-0.14605-1.1768-0.9674-1.1909-1.2424-0.01-0.27515 0.1764-1.0396 0.8339-1.2537 0.6573-0.21418 1.6665-0.33144 2.6836-0.3833z" opacity="1" stroke="#000" stroke-linecap="round" stroke-linejoin="round" stroke-width=".5"/>
    <path d="m1327.7 269.5c0.9208-0.43553 1.7846-0.87278 2.4649-0.99517 0.6806-0.12249 1.4567 0.44608 1.5744 0.69498 0.1141 0.25057 0.1307 1.0261-0.3959 1.4745-0.5261 0.44842-1.4538 0.85833-2.3744 1.2938-0.9209 0.43557-1.6427 0.95812-2.3233 1.0801-0.6805 0.12243-1.4566-0.44614-1.5744-0.69498-0.1141-0.25058-0.233-1.0285 0.2934-1.4768 0.5261-0.44842 1.4145-0.94128 2.3352-1.3767z" opacity="1" stroke="#000" stroke-linecap="round" stroke-linejoin="round" stroke-width=".5"/>
    <path d="m1325 267.93c0.8738 0.52335 1.7174 0.99842 2.1973 1.496 0.4801 0.4977 0.4388 1.4589 0.2973 1.6951-0.1449 0.23411-0.7804 0.67899-1.4458 0.49044-0.6652-0.18814-1.5216-0.73154-2.3953-1.2548-0.8739-0.52341-1.7095-0.83304-2.1892-1.3311-0.48-0.49765-0.4387-1.4588-0.2973-1.6951 0.1449-0.2341 0.7255-0.76529 1.3908-0.57692 0.6652 0.18814 1.5687 0.65275 2.4424 1.1761z" opacity="1" stroke="#000" stroke-linecap="round" stroke-linejoin="round" stroke-width=".5"/>
    <path d="m1350.8 274.48c0.9661-0.32249 1.8759-0.65349 2.566-0.69378 0.6904-0.0404 1.3931 0.61679 1.4802 0.87795 0.083 0.26241 0.01 1.0344-0.5691 1.4167-0.5759 0.38241-1.5459 0.67864-2.5119 1.0011-0.9663 0.32253-1.7453 0.75517-2.4357 0.79501-0.6902 0.0403-1.3929-0.61684-1.4801-0.87797-0.083-0.26239-0.1085-1.0489 0.4676-1.4312 0.5759-0.38241 1.5168-0.76569 2.4828-1.0881z" opacity="1" stroke="#000" stroke-linecap="round" stroke-linejoin="round" stroke-width=".5"/>
    <path d="m1355.7 263.77c0.4422-0.91746 0.8392-1.8005 1.2914-2.3233 0.4523-0.52314 1.4134-0.56879 1.6613-0.44917 0.246 0.12342 0.7486 0.71395 0.619 1.3956-0.1273 0.67948-0.5912 1.5814-1.0334 2.4988-0.4424 0.91763-0.6753 1.7777-1.128 2.3005-0.4523 0.52293-1.4133 0.56862-1.6613 0.44909-0.246-0.12341-0.8277-0.65344-0.7002-1.333 0.1274-0.67947 0.5085-1.6212 0.9508-2.5386z" opacity="1" stroke="#000" stroke-linecap="round" stroke-linejoin="round" stroke-width=".5"/>
   </g>
   <g transform="matrix(.66078 -.75058 .75058 .66078 -534.68 1596.4)">
    <ellipse cx="1339.8" cy="263.42" rx="29.03" ry="28.614" fill="#612709"/>
    <ellipse cx="1339.8" cy="263.42" rx="27.811" ry="27.412" fill="url(#x)"/>
    <path d="m1357.9 244.95c2.3636 2.4739 0.05 6.9505 1.1059 10.205 1.315 4.0522 6.9201 6.872 6.3467 11.093-0.4605 3.3905-5.4031 4.3725-7.289 7.2274-2.3482 3.5546-1.0583 9.6949-4.7162 11.879-2.9378 1.7539-6.7873-1.4981-10.195-1.1926-4.2432 0.38039-8.2395 5.2173-12.228 3.719-3.203-1.2034-3.0606-6.2406-5.4243-8.7145-2.9429-3.0803-9.2163-3.189-10.531-7.2412-1.0562-3.2545 2.9709-6.2838 3.4313-9.6743 0.5734-4.2214-3.253-9.1939-0.9049-12.749 1.886-2.8549 6.7652-1.5952 9.7031-3.3491 3.6579-2.1838 5.1598-8.2757 9.4031-8.656 3.4079-0.3055 5.4652 4.2946 8.6681 5.498 3.9881 1.4983 9.6874-1.1257 12.63 1.9546z" fill="url(#o)" stroke="#000" stroke-linecap="round" stroke-linejoin="round" stroke-width=".72338"/>
    <path d="m1357.4 245.26c2.3758 2.323 0.049 6.7481 1.0742 9.9079 1.2773 3.9342 6.7217 6.6719 6.1648 10.77-0.4473 3.2918-5.2478 4.2451-7.0801 7.017-2.4534 3.7116-1.0278 11.026-4.9295 12.404-1.8735 0.66153-9.6556-1.8455-11.364-3.5143-1.6785-1.639 3.0629-3.307 1.4227-3.16 2.5001-0.54917 7.9934 3.4796 9.3497 1.2343 1.2183-2.0165 0.6745-5.8022 1.9129-7.4284 2.1291-2.7958 3.8624-2.4132 3.594-5.7302-0.1825-2.2561-4.1128-7.3697-4.4797-9.7468-0.3909-2.5333 1.3839-5.617-0.2362-7.8784-1.582-2.2082-6.9428-1.8231-8.4712-4.999 3.8738 1.4547 9.9235-1.9266 13.043 1.1235z" fill="#eaafc8" filter="url(#b)" opacity=".728"/>
    <path d="m1340.2 243.6c0 1.0185 0.026 1.9864-0.1543 2.6538-0.1803 0.66743-1.0261 1.1261-1.3014 1.1261s-0.9834-0.32102-1.1637-0.98845c-0.1804-0.66742-0.1543-1.6812-0.1543-2.6997s-0.1638-1.8946 0.017-2.562c0.1803-0.66743 1.0261-1.1261 1.3014-1.1261s1.0293 0.22924 1.2096 0.89667c0.1804 0.66742 0.2461 1.6812 0.2461 2.6997z" fill="#7f7bdd" stroke="#000" stroke-linecap="round" stroke-linejoin="round" stroke-width=".5"/>
    <path d="m1344.7 249.59c0.9608-0.33807 1.8652-0.68388 2.5546-0.73533 0.6895-0.0515 1.4028 0.59413 1.4942 0.85383 0.088 0.26091 0.024 1.0342-0.5461 1.4258-0.5696 0.3917-1.5347 0.7036-2.4954 1.0417-0.9608 0.33806-1.7328 0.78337-2.4224 0.83439-0.6895 0.0515-1.4028-0.59414-1.4942-0.85383-0.088-0.26091-0.1255-1.047 0.4443-1.4386 0.5697-0.39173 1.5042-0.79022 2.4649-1.1283z" fill="#afdd7b" stroke="#000" stroke-linecap="round" stroke-linejoin="round" stroke-width=".5"/>
    <path d="m1348.8 263.25c0 5.0856-2.963 9.3825-8.1226 9.3825-5.1596 3e-5 -10.213-4.1227-10.213-9.2083s3.66-8.6856 8.8196-8.6856c5.1596 2e-5 9.5164 3.4258 9.5164 8.5114z" fill="#fff"/>
    <path d="m1323.8 253.84c1.0172-0.0519 1.9825-0.12714 2.6582 0.0189 0.6759 0.14605 1.1769 0.96739 1.1909 1.2423 0.01 0.27516-0.2701 0.99857-0.9278 1.2125-0.6573 0.21418-1.6712 0.23973-2.6883 0.29163-1.0173 0.0519-1.8838 0.26007-2.5596 0.11353-0.6758-0.14605-1.1768-0.9674-1.1909-1.2424-0.01-0.27515 0.1764-1.0396 0.8339-1.2537 0.6573-0.21418 1.6665-0.33144 2.6836-0.3833z" fill="#e70200" stroke="#000" stroke-linecap="round" stroke-linejoin="round" stroke-width=".5"/>
    <path d="m1327.7 269.5c0.9208-0.43553 1.7846-0.87278 2.4649-0.99517 0.6806-0.12249 1.4567 0.44608 1.5744 0.69498 0.1141 0.25057 0.1307 1.0261-0.3959 1.4745-0.5261 0.44842-1.4538 0.85833-2.3744 1.2938-0.9209 0.43557-1.6427 0.95812-2.3233 1.0801-0.6805 0.12243-1.4566-0.44614-1.5744-0.69498-0.1141-0.25058-0.233-1.0285 0.2934-1.4768 0.5261-0.44842 1.4145-0.94128 2.3352-1.3767z" fill="#ff4600" stroke="#000" stroke-linecap="round" stroke-linejoin="round" stroke-width=".5"/>
    <path d="m1325 267.93c0.8738 0.52335 1.7174 0.99842 2.1973 1.496 0.4801 0.4977 0.4388 1.4589 0.2973 1.6951-0.1449 0.23411-0.7804 0.67899-1.4458 0.49044-0.6652-0.18814-1.5216-0.73154-2.3953-1.2548-0.8739-0.52341-1.7095-0.83304-2.1892-1.3311-0.48-0.49765-0.4387-1.4588-0.2973-1.6951 0.1449-0.2341 0.7255-0.76529 1.3908-0.57692 0.6652 0.18814 1.5687 0.65275 2.4424 1.1761z" fill="#e7e500" stroke="#000" stroke-linecap="round" stroke-linejoin="round" stroke-width=".5"/>
    <path d="m1350.8 274.48c0.9661-0.32249 1.8759-0.65349 2.566-0.69378 0.6904-0.0404 1.3931 0.61679 1.4802 0.87795 0.083 0.26241 0.01 1.0344-0.5691 1.4167-0.5759 0.38241-1.5459 0.67864-2.5119 1.0011-0.9663 0.32253-1.7453 0.75517-2.4357 0.79501-0.6902 0.0403-1.3929-0.61684-1.4801-0.87797-0.083-0.26239-0.1085-1.0489 0.4676-1.4312 0.5759-0.38241 1.5168-0.76569 2.4828-1.0881z" fill="#7f7bdd" stroke="#000" stroke-linecap="round" stroke-linejoin="round" stroke-width=".5"/>
    <path d="m1355.7 263.77c0.4422-0.91746 0.8392-1.8005 1.2914-2.3233 0.4523-0.52314 1.4134-0.56879 1.6613-0.44917 0.246 0.12342 0.7486 0.71395 0.619 1.3956-0.1273 0.67948-0.5912 1.5814-1.0334 2.4988-0.4424 0.91763-0.6753 1.7777-1.128 2.3005-0.4523 0.52293-1.4133 0.56862-1.6613 0.44909-0.246-0.12341-0.8277-0.65344-0.7002-1.333 0.1274-0.67947 0.5085-1.6212 0.9508-2.5386z" fill="#e70200" stroke="#000" stroke-linecap="round" stroke-linejoin="round" stroke-width=".5"/>
   </g>
   <path d="m527.49 743.06 3.2607 1.2541 17.307-3.5116 7.2739-7.0231-18.561 0.50165z" fill="#fff" fill-rule="evenodd"/>
   <path d="m529.29 743.84c-0.37559 1.3421 1.731 2.6819 3.1535 2.8302 1.5857 0.16537 2.5309-2.4312 4.1239-2.3585 1.7934 0.0818 2.5736 3.1597 4.3664 3.0661 2.1726-0.11346 2.7505-3.6961 4.8516-4.2453 1.5161-0.39633 3.1816 1.5791 4.609 0.94341 2.4349-1.0844 4.9003-4.4316 3.8813-6.8397-0.54512-1.2884-2.7155-1.4353-4.1239-1.1793-1.3037 0.23696-1.8518 2.112-3.1535 2.3585-1.4828 0.2808-3.0255-1.8554-4.3665-1.1793-1.0672 0.53805-0.19147 2.6857-1.2129 3.3019-1.1761 0.70949-2.8275-0.94313-4.1238-0.47169-1.126 0.40945-1.3848 2.0101-2.4259 2.5944-1.6483 0.92508-5.0795-0.60621-5.5792 1.1793z" fill="#f3dd7f" fill-rule="evenodd" stroke="#000" stroke-width=".8"/>
  </g>
  <rect transform="matrix(.99104 -.18379 .17543 1.0383 -1.2629 -16.725)" x="291.57" y="382.4" width="34.577" height="17.532" rx="2.8147" ry="2.6944" filter="url(#ab)" opacity=".453" stroke="#000" stroke-linecap="round" stroke-linejoin="round" stroke-width=".8"/>
  <rect transform="matrix(.98469 -.1743 .1743 .98469 0 0)" x="291.57" y="382.4" width="34.577" height="17.532" rx="2.8381" ry="2.8381" fill="#fff" stroke="#000" stroke-linecap="round" stroke-linejoin="round" stroke-width=".8"/>
  <text transform="matrix(.96952 -.23681 .18254 .98685 0 0)" x="289.89249" y="414.34308" fill="#000000" font-family="Sans" font-size="17.368px" letter-spacing="0px" stroke-width="1px" word-spacing="0px" style="line-height:125%" xml:space="preserve">
      <tspan x="289.89249" y="414.34308" font-family="'Comic Sans MS'">Ana.</tspan>
    </text>
  <g transform="matrix(.99305 .034485 -.032708 1.047 16.268 -28.35)" filter="url(#af)" opacity=".417" stroke="#000" stroke-linecap="round" stroke-linejoin="round" stroke-width="2">
   <rect x="307.23" y="385.82" width="37.178" height="18.716" rx="3.8086" ry="3.6122" opacity="1"/>
   <rect x="307.23" y="385.82" width="37.178" height="18.716" rx="3.8086" ry="3.6122" opacity="1" stroke-dasharray="2, 2"/>
  </g>
  <g transform="matrix(.99946 .032919 -.032919 .99946 13.185 -10.511)" fill="#f0f" stroke="#000" stroke-linecap="round" stroke-linejoin="round" stroke-width="2">
   <rect x="307.23" y="385.82" width="37.178" height="18.716" rx="3.7842" ry="3.7842"/>
   <rect x="307.23" y="385.82" width="37.178" height="18.716" rx="3.7842" ry="3.7842" stroke-dasharray="2, 2"/>
  </g>
 </g>
</svg>
