<?xml version="1.0" encoding="UTF-8"?>
<svg width="8.6667in" height="8.6741in" version="1.1" viewBox="0 0 779.99884 780.67262" xmlns="http://www.w3.org/2000/svg">
 <defs>
  <radialGradient id="d" cx="-385.21" cy="1103.6" r="300" gradientTransform="translate(1810.7 4.093)" gradientUnits="userSpaceOnUse">
   <stop stop-color="#b66c2f" offset="0"/>
   <stop stop-color="#ecc084" offset="1"/>
  </radialGradient>
  <filter id="c" x="-.044605" y="-.051955" width="1.0892" height="1.1039" color-interpolation-filters="sRGB">
   <feGaussianBlur stdDeviation="9.5397777"/>
  </filter>
 </defs>
 <g transform="translate(-1035.5 -717.28)">
  <g fill-rule="evenodd">
   <path d="m1425.5 808.69a299.06 299.06 0 0 0 -299.06 299.06 299.06 299.06 0 0 0 299.06 299.06 299.06 299.06 0 0 0 299.06 -299.06 299.06 299.06 0 0 0 -299.06 -299.06zm0 209.91a89.151 89.151 0 0 1 89.152 89.152 89.151 89.151 0 0 1 -89.152 89.15 89.151 89.151 0 0 1 -89.152 -89.15 89.151 89.151 0 0 1 89.152 -89.152z" fill="url(#d)" stroke="#000" stroke-linecap="round" stroke-linejoin="round" stroke-width="1.8855"/>
   <path d="m1407.6 808.2c-19.961 2.7133-39.678 8.3569-56.916 18.771-11.404 9.7741-22.664 19.812-37.953 22.509-9.866 3.6072-19.736 7.1933-30.414 5.793-18.375 11.521-27.227 32.459-44.9 44.9-8.2743 5.5969-12.813 13.736-15.932 23.174-4.3311 12.582-21.35 11.591-26.313 23.978-11.701 13.282-23.538 27.578-25.55 45.875-7.2432 22.862-14.989 46.007-27.85 66.396-2.0219 10.445-16.048 14.124-13.255 25.657-1.3038 24.334 1.0317 48.677 4.6154 72.731 12.397 5.3831 21.088 16.85 21.229 30.576 5.2472 12.236 13.849 23.411 18.968 35.873 12.974 16.347 27.744 31.426 46.706 40.731 15.929 16.447 24.42 37.889 34.762 57.934 20.4 16.276 51.417 18.041 64.663 42.926 5.8247 6.844 13.374 16.526 22.923 16.459 12.806 0.4335 26.528-2.6996 37.005 6.5818 9.0082 5.6179 20.472 8.2782 26.039 18.04 12.795-0.7326 25.59-0.7878 38.384 0 11.77-18.352 33.576-24.976 51.569-35.562 15.09-8.8683 33.835-9.2568 47.108-21.533 11.395-7.6843 23.178-14.934 37.349-15.184 25.27-4.2299 52.167-11.779 69.281-31.927 8.0392-10.588 13.874-22.084 15.086-35.488 9.3062-16.729 20.048-33.179 28.212-50.782 7.4635-14.155 10.323-30.508 14.213-45.837-0.8454-20.432 0.2156-41.149-7.1823-60.604-0.475-20.229 11.53-38.407 8.6894-58.766-0.8904-14.503 5.9706-28.808-0.7627-42.774-3.1944-16.569-8.3487-32.365-17.877-46.434-11.888-25.732-34.731-43.621-52.468-65.166-12.138-16.373-30.64-25.816-47.884-35.755-15.356-5.5021-30.034-14.603-46.954-11.813-12.045-1.1928-25.651 2.484-36.658-1.9488-18.023-10.756-27.332-35.603-50.474-36.863-15.701-3.186-31.538-2.4646-47.46-2.4681zm38.382 186.12c11.06-4.4454 16.317 6.261 24.989 10.702 18.979-1.8344 5.4789 23.456 19.364 26.206 8.1467 8.8423 21.991-2.2654 27.192 8.3504 2.9371 10.582 18.778 8.5089 16.72 20.753 0.5049 10.763 15.499 14.161 10.597 26.771-9.0763 4.9602-28.106 23.309-11.261 30.508 8.6929 6.4052 9.1146 18.723 1.51 26.352-18.634 0.7944-18.781 12.937-23.27 26.81-4.9146 10.765 0.2299 24.969-8.7228 33.495-14.632 6.1465-30.897-5.1708-38.623 13.609-11.707 0.8588-18.852-5.6349-23.829-15.622-9.2049 5.9435-19.061 9.7531-30.152 9.5179-6.5452-7.0802-15.166-15.996-24.616-16.329-11.646 6.2726-27.946 19.398-33.052-0.071-9.5659-6.5544-21.422-17.072-15.914-29.915 2.5884-10.368 2.4814-19.891-7.6868-25.802-8.9405-4.19-21.578-9.167-17.959-21.42 4.5044-9.9578 10.546-21.133 4.1125-31.87 4.1509-12.38 0.7374-36.793 19.745-36.619 11.641 3.2687 20.127 0.3877 23.914-11.651 5.0968-8.1025-7.4427-22.812 6.612-25.451 7.5759-7.7713 19.702-2.8807 26.235-11.722 11.443-15.163 25.068 1.6958 37.553 3.6826 10.295 1.7122 13.144-0.5398 16.541-10.285z" fill="#fc75ba" stroke="#000" stroke-linecap="round" stroke-linejoin="round" stroke-width="1.7"/>
   <g transform="translate(1418.4 1548.4)" fill="#d1438b" filter="url(#c)">
    <path d="m-147.48-530.98c-0.91825 0.73379-1.4777 1.897-1.4777 3.0725 0 1.1754 0.55948 2.3387 1.4777 3.0725 0.19116 0.15276 0.3965 0.28762 0.58184 0.4474s0.35286 0.34898 0.44231 0.57675c0.0628 0.15995 0.0851 0.33338 0.0874 0.5052 2e-3 0.17183-0.0142 0.3433-0.0315 0.51427-0.0345 0.34193-0.0559 0.68516-0.0559 1.0288v11.266c0 1.0414 0.10181 2.0793 0.26541 3.1078 0.0818 0.51421 0.16037 1.0322 0.14822 1.5528-0.0122 0.52054-0.1232 1.0523-0.41363 1.4844-0.27002 0.40178-0.67433 0.68955-1.0242 1.0242-0.28324 0.27093-0.53488 0.57809-0.71896 0.92412-0.18408 0.34604-0.29917 0.73229-0.3052 1.1242-5e-3 0.34232 0.0714 0.68932 0 1.0242-0.0514 0.24101-0.178 0.46159-0.3385 0.64858s-0.35437 0.34255-0.55535 0.48515c-0.40194 0.28521-0.84538 0.53068-1.1544 0.91458-0.22367 0.27783-0.36449 0.61517-0.44978 0.9615-0.0853 0.34632-0.11739 0.70334-0.14211 1.0592-0.0495 0.71163-0.0791 1.4562-0.43227 2.076-0.24019 0.42144-0.612 0.75017-0.98728 1.0575s-0.76543 0.60617-1.061 0.99078c-0.46625 0.60665-0.65979 1.3755-1.0242 2.0483-0.18312 0.33813-0.40901 0.6511-0.60543 0.98168s-0.36543 0.68581-0.41873 1.0666c-0.0474 0.33853-2e-3 0.68232 0 1.0242 4e-3 0.92928-0.31967 1.831-0.73265 2.6634-0.41298 0.83249-0.91812 1.6174-1.3157 2.4573-0.3271 0.69112-0.58363 1.4233-1.0242 2.0483-0.41858 0.59383-0.98503 1.0646-1.5427 1.5303-0.55767 0.46568-1.1208 0.94164-1.5298 1.5422-0.43017 0.63167-0.66948 1.3714-1.0242 2.0483-0.35537 0.67829-0.83244 1.307-1.0242 2.0483-0.12873 0.49778-0.12091 1.0204-0.0842 1.5332 0.0368 0.51284 0.10166 1.0254 0.0842 1.5393-0.037 1.0846-0.43793 2.1216-0.8794 3.113-0.44146 0.99136-0.93256 1.9728-1.1689 3.032-0.26104 1.1699-0.20016 2.3856-0.10343 3.5804 0.0967 1.1947 0.22796 2.3966 0.10343 3.5887-0.12577 1.2041-0.49327 2.3684-0.72602 3.5565-0.23276 1.188-0.29814 2.402-0.29814 3.6126v7.1691c0 1.0244-0.0769 2.0509 0 3.0725 0.12729 1.69 0.81011 3.2899 1.6196 4.7788 0.80953 1.489 1.7552 2.9051 2.477 4.4385 0.7831 1.6638 1.2923 3.4444 2.0483 5.1208 0.50938 1.1295 1.1434 2.226 2.0483 3.0725 0.35485 0.33193 0.74703 0.62136 1.1126 0.94141 0.36561 0.32004 0.70914 0.67704 0.93567 1.1069 0.33113 0.62835 0.38775 1.3595 0.45734 2.0664 0.0696 0.70684 0.16923 1.4417 0.56681 2.0302 0.34783 0.5149 0.88973 0.86455 1.4407 1.1518 0.551 0.28725 1.1305 0.5293 1.6317 0.89652 0.7801 0.5715 1.3222 1.4096 2.0483 2.0483 0.92545 0.81404 2.1135 1.274 3.0725 2.0483 0.75178 0.60704 1.3413 1.3897 2.0483 2.0483 1.8052 1.6815 4.284 2.477 6.1449 4.0966 1.0935 0.95166 1.9436 2.1631 3.0725 3.0725 0.95914 0.77263 2.0912 1.304 3.0725 2.0483 1.5405 1.1684 2.6503 2.8135 4.0966 4.0966 1.6388 1.4539 3.6963 2.4322 5.1208 4.0966 0.89756 1.0488 1.4948 2.3156 2.0724 3.5693 0.57769 1.2537 1.1559 2.5266 2.0242 3.5998 1.2166 1.5039 2.9447 2.5426 4.0966 4.0966 0.77676 1.0479 1.2558 2.2833 1.6764 3.518 0.42059 1.2347 0.79507 2.4934 1.3961 3.6511 0.91883 1.7699 2.3467 3.2634 3.0725 5.1208 0.88157 2.2561 0.62975 4.7792 1.0242 7.1691 0.45915 2.7821 1.7971 5.3847 2.0483 8.1932 0.15215 1.7008 0 3.4132 0 5.1208v10.242c0 0.68556 0.0333 1.3706 0.0872 2.054 0.0539 0.68344 0.11008 1.3861-0.0872 2.0426-0.17813 0.59268-0.55686 1.1025-0.95048 1.5801-0.39361 0.47757-0.81339 0.94273-1.0978 1.4924-0.49726 0.96089-0.54229 2.1038-1.0242 3.0725-0.43296 0.87037-1.185 1.5347-1.9464 2.1391s-1.562 1.1835-2.1502 1.9575c-0.45669 0.60096-0.7698 1.3003-1.2202 1.906-0.22518 0.30286-0.48633 0.58297-0.79812 0.79561-0.31179 0.21265-0.67709 0.35568-1.0542 0.37085-0.34762 0.014-0.68934-0.0793-1.0337-0.12902-0.17216-0.0249-0.34689-0.0389-0.52013-0.0231-0.17323 0.0158-0.34555 0.0623-0.49452 0.15217-0.20827 0.12558-0.35819 0.32613-0.50544 0.51969s-0.30377 0.3907-0.51872 0.50447c-0.15321 0.0811-0.32824 0.11472-0.50155 0.11849-0.17332 4e-3 -0.34595-0.0212-0.5166-0.0517-0.3413-0.061-0.69222-0.14431-1.0302-0.0668-0.24 0.055-0.45662 0.18928-0.63756 0.35628-0.18095 0.16701-0.32886 0.36638-0.46673 0.5704-0.27572 0.40804-0.53016 0.85472-0.94402 1.1216-0.22044 0.14216-0.47601 0.22479-0.73579 0.26116-0.25977 0.0364-0.52423 0.0277-0.78476-3e-3 -0.52105-0.0611-1.0296-0.20876-1.5519-0.25832-0.70866-0.0672-1.425 0.0486-2.1076 0.25076-0.68253 0.20218-1.3363 0.48944-1.989 0.7734-0.9929 0.43192-2.0019 0.86193-3.0725 1.0242-0.84474 0.128-1.7048 0.0909-2.5585 0.0562-0.85368-0.0348-1.7079-0.0562-2.5623-0.0562h-5.1208c-3.7579 0-7.536 0.45974-11.266 0-1.7283-0.21304-3.4125-0.68611-5.1208-1.0242-2.0373-0.40315-4.109-0.61422-6.1449-1.0242-5.5082-1.1091-10.834-3.8008-14.338-8.1932-1.0648-1.3348-1.9515-2.8086-3.0725-4.0966-1.2684-1.4573-2.8146-2.6513-4.0966-4.0966-1.1332-1.2776-2.044-2.7334-3.0725-4.0966-1.0286-1.3635-2.1795-2.6407-3.0725-4.0966-0.79868-1.3021-1.3771-2.7244-2.0483-4.0966-1.0067-2.0581-2.228-4.015-3.0725-6.1449-0.67861-1.7116-1.1139-3.5342-2.0483-5.1208-1.1108-1.8861-2.8558-3.3175-4.0966-5.1208-1.2624-1.8346-1.9607-3.9894-2.621-6.1162s-1.3123-4.2896-2.4997-6.1736c-1.1664-1.8508-2.8027-3.3567-4.0966-5.1208-3.0858-4.207-4.0315-9.5679-6.1449-14.338-2.2314-5.0366-5.761-9.3955-8.1932-14.338-1.1481-2.3332-2.0439-4.7808-3.0725-7.1691-0.60435-1.4034-1.2564-2.7899-2.0483-4.0966-2.2682-3.7429-5.6046-6.7127-8.1932-10.242-0.72823-0.99271-1.3961-2.0282-2.0483-3.0725-1.7062-2.7319-3.3091-5.5301-5.1208-8.1932-0.86629-1.2734-1.8053-2.5758-2.0483-4.0966-0.10786-0.67503-0.0766-1.3637-0.0473-2.0466 0.0293-0.68297 0.0473-1.3664 0.0473-2.05v-5.1208c0-2.3914-0.291-4.7954 0-7.1691 0.41254-3.365 2.3279-6.3251 4.0966-9.2174 3.5894-5.8697 6.7765-12.002 9.2174-18.435 1.1957-3.1511 2.2308-6.4106 4.0966-9.2174 1.744-2.6236 4.1406-4.7386 6.1449-7.1691 3.1346-3.801 5.271-8.3232 8.1932-12.29 1.2967-1.7601 2.7431-3.404 4.0966-5.1208 2.4109-3.058 4.5314-6.3526 7.1691-9.2174 1.9625-2.1314 4.1927-4.0041 6.1449-6.1449 3.4525-3.786 5.9654-8.3302 9.2174-12.29 1.3884-1.6906 2.9153-3.2795 4.0966-5.1208 1.2377-1.929 2.0651-4.0863 3.0725-6.1449 1.7509-3.5779 4.0451-6.8566 6.1449-10.242 2.0988-3.3833 4.0084-6.882 6.1449-10.242 1.3211-2.0773 2.7274-4.099 4.0966-6.1449 2.3186-3.4647 4.5374-7.0082 7.1691-10.242 3.5762-4.3938 8.0115-8.2471 13.314-10.242 2.0214-0.76033 4.1415-1.2417 6.1449-2.0483 1.0048-0.40457 1.9969-0.89535 3.0725-1.0242 1.018-0.12192 2.0511 0.0892 3.0725 0 1.4046-0.12266 2.704-0.8034 4.0966-1.0242 1.3509-0.21414 2.7289 0.0123 4.0966 0 1.369-0.0123 2.7532-0.26334 4.0966 0 1.477 0.28952 2.7836 1.1902 3.784 2.3148s1.7224 2.4671 2.3609 3.8301c0.32401 0.69162 0.63005 1.3941 1.0242 2.0483 0.19828 0.32917 0.4183 0.64514 0.60796 0.97935s0.34985 0.69045 0.4162 1.069c0.11814 0.67392-0.0676 1.3675 0 2.0483 0.0536 0.53907 0.26357 1.0489 0.48103 1.545 0.21747 0.49616 0.44683 0.99434 0.54312 1.5274 0.12209 0.6759 0.0239 1.3694-0.0559 2.0516-0.0798 0.68218-0.13917 1.3865 0.0559 2.045 0.21719 0.73338 0.72972 1.3424 1.0242 2.0483 0.33249 0.79715 0.3736 1.6872 0.30695 2.5483-0.0666 0.86113-0.23585 1.7117-0.30695 2.5725-0.0281 0.34082-0.0408 0.68462 0 1.0242 0.12919 1.0747 0.77802 2.0184 1.0242 3.0725 0.19455 0.8332 0.13867 1.702 0.0857 2.556-0.053 0.85397-0.0857 1.7092-0.0857 2.5648v2.0483c0 0.68343 0.0963 1.3717 0 2.0483-0.0784 0.55071-0.32563 1.0677-0.651 1.5189s-0.72767 0.84132-1.1446 1.2095c-0.8339 0.73644-1.7576 1.4216-2.301 2.3923-0.37909 0.67722-0.54615 1.4486-0.79505 2.1837-0.12445 0.36755-0.27106 0.72969-0.47253 1.0614-0.20147 0.33165-0.46001 0.63312-0.78073 0.85157-0.20817 0.14179-0.44027 0.24742-0.63995 0.40093-0.0998 0.0768-0.19144 0.16579-0.26099 0.27078-0.0695 0.10498-0.11643 0.2267-0.12321 0.35245-0.01 0.17753 0.0596 0.34852 0.0959 0.52255 0.0182 0.087 0.0282 0.17682 0.016 0.26487-0.0122 0.088-0.0483 0.17468-0.11192 0.23673-0.0635 0.0618-0.15057 0.0956-0.23855 0.10611-0.088 0.0105-0.17724-7.8e-4 -0.26387-0.0194-0.17326-0.0372-0.34537-0.10407-0.52173-0.0867-0.10109 0.01-0.19861 0.0479-0.283 0.10444-0.0844 0.0565-0.15584 0.13131-0.21319 0.21515-0.1147 0.16767-0.172 0.36809-0.20722 0.56816-0.0352 0.20007-0.0502 0.40344-0.0897 0.60271s-0.10579 0.39791-0.23105 0.55785c-0.12 0.15322-0.28833 0.263-0.46689 0.34042-0.17856 0.0774-0.36845 0.12464-0.55734 0.17155-0.18888 0.0469-0.37877 0.0942-0.55731 0.17161-0.17854 0.0774-0.34684 0.18729-0.46677 0.34057-0.12521 0.16003-0.19138 0.35876-0.23078 0.5581s-0.0543 0.40277-0.0894 0.60289c-0.0352 0.20013-0.0925 0.40061-0.20731 0.56826-0.0574 0.0838-0.12895 0.15855-0.21342 0.21501-0.0845 0.0565-0.18207 0.0943-0.2832 0.10405-0.17649 0.017-0.34856-0.0503-0.52189-0.0877-0.0867-0.0187-0.176-0.03-0.26402-0.0193-0.088 0.0107-0.17511 0.0448-0.23825 0.107-0.0632 0.0624-0.0986 0.14918-0.11026 0.23723-0.0116 0.088-1e-3 0.17769 0.0174 0.26457 0.0369 0.17376 0.10553 0.34518 0.0929 0.52236-9e-3 0.12499-0.0588 0.24495-0.13073 0.34759-0.0719 0.10263-0.16513 0.18884-0.26553 0.26383-0.20078 0.14997-0.43131 0.25729-0.62789 0.41273-0.18999 0.15022-0.34294 0.34106-0.49914 0.52616-0.15621 0.1851-0.32026 0.36863-0.52502 0.498-0.33339 0.21064-0.74006 0.258-1.1208 0.36058-0.19039 0.0513-0.37867 0.11833-0.5445 0.22499-0.16584 0.10667-0.3089 0.25584-0.38297 0.43858-0.0649 0.16006-0.0742 0.33756-0.0619 0.50983s0.0453 0.34243 0.0619 0.51433c0.0795 0.82015-0.23503 1.6669-0.82096 2.2463-0.58593 0.57936-1.4295 0.88378-2.2515 0.82615-0.17158-0.012-0.34191-0.0389-0.51359-0.0493-0.17169-0.0104-0.347-4e-3 -0.51057 0.0493-0.23381 0.076-0.4285 0.2425-0.58775 0.42981-0.15926 0.18732-0.2888 0.39772-0.4364 0.59435-0.58047 0.7733-1.4218 1.3118-2.0483 2.0483-0.49941 0.58714-0.85409 1.2965-1.0242 2.0483-0.63945 0.72433-1.324 1.4089-2.0483 2.0483-0.36273 0.32022-0.73917 0.63314-1.0242 1.0242-0.14598 0.20029-0.26635 0.41906-0.423 0.61111s-0.35894 0.36052-0.60115 0.41304c-0.16774 0.0364-0.34191 0.0148-0.51238-5e-3 -0.17047-0.02-0.34563-0.0379-0.51178 5e-3 -0.11911 0.0309-0.22891 0.0924-0.3249 0.16937-0.096 0.077-0.17878 0.16925-0.25434 0.26636-0.15111 0.19424-0.27549 0.40994-0.44491 0.58843-0.1681 0.17711-0.37494 0.31172-0.56565 0.46422-0.1907 0.15251-0.37158 0.33175-0.45851 0.55993-0.0614 0.16129-0.0721 0.33788-0.0614 0.51014 0.0107 0.17227 0.0418 0.34254 0.0614 0.51402 0.12655 1.1072-0.25856 2.2626-1.0242 3.0725z"/>
    <path d="m175.13-637.49c-2.9342-1.9414-6.0189-3.6552-9.2174-5.1208-1.3892-0.63654-2.8062-1.2298-4.0966-2.0483-1.0399-0.65966-1.99-1.4611-3.0725-2.0483-1.6176-0.87744-3.4664-1.2424-5.1208-2.0483-0.68661-0.33445-1.3378-0.74399-2.0483-1.0242-1.311-0.51699-2.7623-0.57045-4.0966-1.0242-1.0261-0.3489-1.9923-0.93588-3.0725-1.0242-0.68139-0.0557-1.371 0.0927-2.0483 0-0.53667-0.0734-1.0403-0.29464-1.5359-0.51316s-0.99966-0.43907-1.5365-0.51099c-0.6773-0.0907-1.365 0-2.0483 0h-4.0966c-0.85597 0-1.7114-0.0353-2.5655-0.0924-0.85406-0.0572-1.7254-0.11729-2.5553 0.0924-0.74405 0.18804-1.4149 0.59086-2.0483 1.0242-1.8048 1.2346-3.397 2.7512-5.1208 4.0966-0.57592 0.44951-1.1676 0.88079-1.7079 1.3726-0.54027 0.49179-1.0317 1.0496-1.3646 1.6999-0.49267 0.96239-0.61339 2.0724-1.0242 3.0725-0.29015 0.70642-0.72073 1.3475-1.0242 2.0483-0.42923 0.99144-0.595 2.081-1.0242 3.0725-0.30336 0.70085-0.73386 1.342-1.0242 2.0483-0.53583 1.3038-0.56863 2.7626-1.0242 4.0966-0.29883 0.87511-0.77292 1.6776-1.1918 2.502-0.41891 0.82439-0.79005 1.6965-0.85649 2.6188-0.0491 0.68155 0.0702 1.3686 0 2.0483-0.09 0.87089-0.46715 1.6826-0.70944 2.5239-0.24229 0.84134-0.31471 1.7214-0.31471 2.5969v3.0725c0 0.1742-0.0188 0.3477-0.0489 0.51927-0.0151 0.0858-0.0295 0.17235-0.0272 0.25942 2e-3 0.0871 0.0231 0.17635 0.0761 0.24546 0.0549 0.0716 0.14064 0.11555 0.22934 0.13212 0.0887 0.0166 0.18047 8e-3 0.26864-0.0115 0.17633-0.0384 0.34572-0.11805 0.52617-0.12067 0.10465-2e-3 0.2091 0.0236 0.30356 0.0686 0.0945 0.0451 0.17904 0.10979 0.25042 0.18633 0.14276 0.15308 0.23102 0.3504 0.28345 0.55305 0.10485 0.40529 0.0748 0.83693 0.18673 1.2403 0.10256 0.36963 0.31848 0.69567 0.52674 1.0178 0.20827 0.32213 0.41563 0.65572 0.49741 1.0305 0.0731 0.3349 0.0414 0.68275 7e-3 1.0238s-0.0709 0.68773-7e-3 1.0245c0.069 0.36386 0.25349 0.69911 0.4912 0.98308s0.52763 0.51992 0.82945 0.73451c0.60365 0.42917 1.2731 0.78972 1.7518 1.3549 0.40194 0.47452 0.64138 1.061 0.91638 1.6188s0.60991 1.1157 1.1319 1.4537c0.32293 0.20906 0.6973 0.32044 1.059 0.45158s0.72634 0.29184 0.98936 0.57257c0.26282 0.28052 0.39906 0.65359 0.52421 1.017 0.12515 0.36346 0.25121 0.73819 0.49994 1.0313 0.24978 0.29433 0.60326 0.48122 0.96289 0.62153 0.35963 0.14032 0.73465 0.24145 1.0854 0.40263 0.67924 0.31212 1.2426 0.84013 1.687 1.4412 0.44434 0.60112 0.77759 1.2762 1.0865 1.9569 0.30887 0.68071 0.59657 1.3726 0.96038 2.0256 0.36382 0.653 0.8091 1.2711 1.3869 1.7453 0.59198 0.48581 1.3013 0.8041 2.0108 1.0924 0.70946 0.2883 1.4335 0.55482 2.0858 0.95592 0.82539 0.5075 1.5088 1.2138 2.1462 1.9436 0.63739 0.72975 1.2408 1.4933 1.9504 2.153 1.251 1.1632 2.793 1.9685 4.0966 3.0725 1.845 1.5625 3.1728 3.6887 5.1208 5.1208 0.99244 0.72958 2.1246 1.2617 3.0725 2.0483 0.74532 0.61845 1.3576 1.3783 1.9877 2.1138 0.63006 0.73552 1.2933 1.4606 2.109 1.9828 0.52335 0.33502 1.0987 0.57937 1.6441 0.87707 0.54544 0.29769 1.0736 0.66105 1.4284 1.1712 0.30971 0.44545 0.46926 0.9767 0.59501 1.5045 0.12576 0.52776 0.22367 1.0659 0.42914 1.568 0.46734 1.1421 1.4448 1.9961 2.0483 3.0725 0.52963 0.94459 0.75252 2.0242 1.0242 3.0725 1.0628 4.1016 2.9811 8.0538 3.0725 12.29 0.0221 1.0242-0.0643 2.0501 0 3.0725 0.13039 2.0745 0.87583 4.0716 1.0242 6.1449 0.0975 1.3624 0 2.7308 0 4.0966v38.918c0 1.3661-0.12283 2.7361 0 4.0966 0.22397 2.4808 1.5122 4.7366 2.0483 7.1691 0.30412 1.3799 0.37438 2.8418 1.0242 4.0966 0.56712 1.0952 1.5379 1.9497 2.0483 3.0725 0.44768 0.98481 0.51347 2.1188 1.0242 3.0725 0.3438 0.64202 0.87108 1.1661 1.4237 1.6405 0.5526 0.47436 1.1399 0.91096 1.6488 1.432 0.86269 0.88333 1.4708 1.9783 2.0629 3.0618 0.59218 1.0834 1.1885 2.1831 2.0337 3.0832 0.94774 1.0093 2.167 1.7222 3.4144 2.3229 1.2474 0.60066 2.5427 1.1044 3.7547 1.7737 1.7441 0.96319 3.301 2.2611 5.1208 3.0725 1.9127 0.8528 4.0507 1.0242 6.1449 1.0242h2.0483c0.34182 0 0.68356 9e-3 1.025 0.0244 0.34149 0.0151 0.68598 0.0311 1.0233-0.0244 0.42718-0.0703 0.82903-0.25786 1.187-0.50126 0.35802-0.24341 0.67508-0.54201 0.97731-0.85197 0.60447-0.61991 1.1727-1.3037 1.9323-1.7192 0.47427-0.25947 1.0007-0.40566 1.5213-0.55161 0.52053-0.14596 1.0383-0.30159 1.5512-0.47254l3.0725-1.0242c1.025-0.34168 2.1021-0.54902 3.0725-1.0242 1.1076-0.54229 1.9604-1.5154 3.0725-2.0483 0.97492-0.46723 2.0921-0.56845 3.0725-1.0242 1.1181-0.51972 1.986-1.4654 3.0725-2.0483 0.81442-0.43692 1.7242-0.6558 2.6125-0.91094 0.88831-0.25514 1.7856-0.56127 2.5083-1.1374 0.75627-0.60285 1.2759-1.4662 2.0483-2.0483 0.4962-0.37395 1.0763-0.61631 1.6282-0.90162 0.55196-0.28531 1.0966-0.63173 1.4442-1.1467 0.2145-0.31771 0.34324-0.68387 0.48102-1.0416 0.13777-0.35773 0.29087-0.71806 0.54313-1.0067 0.15958-0.1826 0.35392-0.33071 0.5392-0.48716 0.18528-0.15646 0.36552-0.32596 0.48496-0.537 0.17186-0.30365 0.20308-0.66868 0.17218-1.0162s-0.11942-0.68719-0.17218-1.0321c-0.13323-0.8709-0.0361-1.7646 0.17383-2.6203 0.20992-0.85566 0.53057-1.6795 0.85032-2.5005 0.66723-1.7131 1.3346-3.4265 2.0483-5.1208 1.7234-4.0915 3.7189-8.0774 5.1208-12.29 0.68199-2.0493 1.2224-4.1493 2.0483-6.1449 0.58415-1.4115 1.3072-2.7609 2.0483-4.0966 1.6379-2.952 3.3962-5.9149 4.0966-9.2174 0.36165-1.7052 0.43524-3.4801 1.0242-5.1208 0.51626-1.4382 1.4066-2.7098 2.0483-4.0966 0.32115-0.69396 0.58361-1.4233 1.0242-2.0483 0.36063-0.51164 0.82907-0.93647 1.2344-1.4135s0.75779-1.0355 0.81396-1.6589c0.0307-0.34027-0.0287-0.68372 0-1.0242 0.0527-0.62443 0.39678-1.1882 0.79941-1.6684 0.40263-0.48019 0.8721-0.90337 1.2489-1.4041 0.744-0.98867 1.0866-2.2322 1.1832-3.4657 0.0966-1.2336-0.0367-2.4721-0.15907-3.7034-0.0678-0.682-0.13173-1.3757 0-2.0483 0.10405-0.53123 0.3267-1.0305 0.5391-1.5284 0.21239-0.49791 0.41812-1.0069 0.48506-1.544 0.0845-0.67803 0-1.365 0-2.0483v-6.1449c0-0.34275 0.0164-0.68522 0.0431-1.0269 0.0266-0.34171 0.0544-0.69277-0.0431-1.0214-0.0697-0.23503-0.20333-0.44768-0.36578-0.63126-0.16245-0.18359-0.35349-0.33972-0.55071-0.48532-0.39443-0.2912-0.82406-0.55008-1.1318-0.93173-0.24036-0.29807-0.39337-0.65568-0.53514-1.0114-0.14178-0.35569-0.27708-0.71803-0.48902-1.0369-0.26832-0.40374-0.64706-0.71953-1.0242-1.0242-1.8908-1.5275-3.9407-2.9958-5.1208-5.1208-0.37069-0.66753-0.6457-1.3852-1.0242-2.0483-0.61062-1.07-1.4798-1.9796-2.0483-3.0725-0.35276-0.67813-0.58679-1.4214-1.0242-2.0483-0.49144-0.70442-1.2087-1.2171-1.9406-1.6667s-1.4979-0.8539-2.156-1.4058c-0.37025-0.3105-0.70186-0.66412-1.0242-1.0242-1.6166-1.8058-3.0666-3.8344-5.1208-5.1208-0.73461-0.46004-1.5312-0.81407-2.2691-1.2689s-1.4327-1.032-1.8275-1.8036c-0.17526-0.34247-0.28644-0.71339-0.42738-1.0714-0.14095-0.35797-0.31791-0.71193-0.59677-0.97696-0.27821-0.2644-0.63888-0.42269-0.99772-0.55885-0.35885-0.13615-0.72798-0.25738-1.0506-0.4653-0.40775-0.26279-0.71794-0.6487-1.0216-1.027-0.3037-0.37827-0.61621-0.76282-1.0267-1.0213-0.34052-0.21446-0.73326-0.33186-1.1274-0.41301-0.39416-0.0811-0.79487-0.12852-1.1876-0.21633-0.39273-0.0878-0.78243-0.21898-1.1116-0.45046s-0.59431-0.57326-0.66997-0.96851c-0.0643-0.33606 0.01-0.68214 0-1.0242-0.0125-0.43708-0.16366-0.86278-0.38735-1.2385-0.22368-0.37572-0.51813-0.70481-0.8327-1.0085-0.62913-0.60745-1.3531-1.1316-1.8524-1.8496-0.43645-0.62754-0.67606-1.3678-1.0242-2.0483-0.67044-1.3107-1.7618-2.402-3.0725-3.0725 0.0412-1.1023-0.32975-2.2153-1.0242-3.0725-0.45792-0.56523-1.0412-1.0126-1.6008-1.4774-0.55955-0.46485-1.1101-0.96387-1.4717-1.595-0.38065-0.66437-0.54005-1.4551-1.0242-2.0483-0.3056-0.37447-0.72292-0.64616-1.0242-1.0242-0.15412-0.19339-0.27517-0.4114-0.42975-0.60442-0.0773-0.0965-0.16321-0.18687-0.26221-0.26095-0.099-0.0741-0.21156-0.13164-0.33219-0.15878-0.1675-0.0377-0.34191-0.0157-0.51237 5e-3 -0.17046 0.0205-0.34583 0.0392-0.51179-5e-3 -0.11881-0.0315-0.22784-0.0943-0.32277-0.17237-0.0949-0.0781-0.1764-0.1713-0.25112-0.2689-0.14943-0.1952-0.27468-0.41083-0.45026-0.58289-0.27467-0.26916-0.64786-0.40878-1.0117-0.53325s-0.73988-0.24625-1.0366-0.4909c-0.18724-0.15439-0.33409-0.35086-0.48841-0.53816-0.15432-0.18729-0.32223-0.37067-0.53575-0.486-0.31301-0.16906-0.71114-0.16906-1.0242 0-0.77276-0.0942-1.5093-0.46244-2.0483-1.0242-0.5187-0.54056-0.84394-1.2337-1.2781-1.8443-0.21706-0.30528-0.4646-0.593-0.76465-0.81724-0.30006-0.22423-0.6562-0.38298-1.0297-0.41094-0.34106-0.0255-0.68696 0.0572-1.0242 0-0.36988-0.0628-0.69557-0.29096-0.94415-0.57195-0.24857-0.28099-0.42945-0.61415-0.60626-0.94503-0.17682-0.33088-0.35376-0.66563-0.5961-0.95202-0.24235-0.28638-0.55918-0.52453-0.92595-0.60346-0.33715-0.0726-0.68642-7e-3 -1.0275 0.0443-0.34106 0.0511-0.70125 0.0853-1.0208-0.0443-0.18547-0.0752-0.34727-0.20308-0.47542-0.35682s-0.22363-0.33288-0.29454-0.52004c-0.14183-0.37433-0.18627-0.77696-0.2542-1.1714-0.18139-1.0533-0.55354-2.1014-1.2576-2.9056-0.35203-0.4021-0.78448-0.73742-1.2736-0.95275-0.48913-0.21533-1.0356-0.30796-1.5654-0.23827-0.17217 0.0226-0.34215 0.0621-0.51524 0.0761-0.17308 0.014-0.35326 9.5e-4 -0.50891-0.0761-0.10994-0.0544-0.20297-0.13845-0.28235-0.23196-0.0794-0.0935-0.14617-0.19687-0.21443-0.29878-0.0683-0.10191-0.13864-0.20321-0.22406-0.29124-0.0854-0.088-0.18713-0.16286-0.30332-0.20217-0.16251-0.055-0.33939-0.0394-0.51029-0.0244-0.1709 0.0151-0.3423 0.0244-0.51386 0.0244h-2.0483c-0.51497 0-1.0294 0.0294-1.5421 0.0769s-1.0454 0.0963-1.5303-0.0769c-0.46984-0.16781-0.85635-0.55432-1.0242-1.0242l-3.0725-1.0242z"/>
    <path d="m75.787-299.52h-26.628c-0.85543 0-1.7105-0.0312-2.5644-0.0818-0.85393-0.0506-1.7214-0.10405-2.5564 0.0818-0.74796 0.16646-1.4386 0.52484-2.0986 0.91423-0.65994 0.38939-1.3015 0.81473-1.9981 1.1341-1.9206 0.88053-4.2244 0.88053-6.1449 0-0.76534 0.82624-1.7415 1.4556-2.8099 1.8118s-2.227 0.43832-3.335 0.23653c-0.5191-0.0945-1.0277-0.25017-1.5526-0.30396-0.26244-0.0269-0.52884-0.0279-0.78878 0.0172s-0.51368 0.13738-0.73109 0.28681c-0.39879 0.27409-0.64947 0.71793-1.0242 1.0242-0.29667 0.24247-0.65854 0.38875-1.0161 0.52633-0.3576 0.13757-0.72214 0.27267-1.0322 0.49782-0.3133 0.22753-0.55857 0.53944-0.74607 0.87822s-0.31987 0.70513-0.43652 1.0744c-0.23331 0.73843-0.4156 1.5139-0.86572 2.144-0.56274 0.78786-1.4842 1.2614-2.0483 2.0483-0.44548 0.62143-0.63394 1.3908-1.0242 2.0483-0.49575 0.83538-1.2869 1.445-2.0483 2.0483-2.4673 1.9549-4.8138 4.0565-7.1691 6.1449-3.2742 2.9031-6.5822 5.7937-10.242 8.1932-1.6649 1.0917-3.3963 2.0776-5.1208 3.0725-1.7244 0.99479-3.4438 1.9996-5.1208 3.0725-1.2932 0.82728-2.5989 1.7114-4.0966 2.0483-0.53581 0.12053-1.0862 0.16807-1.6209 0.29311s-1.0678 0.33819-1.4515 0.73105c-0.35268 0.36103-0.55041 0.84189-0.83198 1.2608-0.14078 0.20943-0.30558 0.40631-0.51059 0.55346-0.20501 0.14714-0.45352 0.24218-0.70574 0.2341-0.17528-6e-3 -0.34506-0.0598-0.51856-0.0853-0.08676-0.0127-0.17518-0.0183-0.26212-7e-3 -0.08694 0.0114-0.17262 0.0405-0.24347 0.0921-0.07189 0.0524-0.12642 0.12669-0.16172 0.20836-0.0353 0.0817-0.052 0.1706-0.05585 0.25948-0.0077 0.17777 0.03364 0.35371 0.07675 0.52634 0.08623 0.34527 0.14081 0.69825 0.14081 1.0541v6.1449c0 1.0246-0.09605 2.0524 0 3.0725 0.10195 1.0827 0.49174 2.1242 1.0242 3.0725 0.60284 1.0737 1.3852 2.0349 2.0483 3.0725 0.73281 1.1467 1.3185 2.3845 2.0876 3.5071s1.7622 2.1516 3.0332 2.6378c0.50644 0.19374 1.0422 0.29587 1.5684 0.42687s1.0535 0.29558 1.5041 0.59729c0.40227 0.26939 0.7272 0.63724 1.0409 1.006 0.31368 0.36877 0.62442 0.74614 1.0074 1.0423 0.60559 0.46826 1.3525 0.70492 2.0483 1.0242 2.6759 1.2277 4.6004 3.6822 7.1691 5.1208 1.6058 0.89933 3.4092 1.3716 5.1208 2.0483 1.7111 0.67651 3.3458 1.5636 5.1208 2.0483 2.3311 0.6365 4.7995 0.5509 7.1691 1.0242 2.4388 0.48708 4.7311 1.5574 7.1691 2.0483 1.7096 0.34422 3.4908 0.40411 5.1208 1.0242 1.0742 0.40862 2.0428 1.0463 3.0236 1.6454 0.98075 0.59912 2.0009 1.1715 3.1214 1.427 1.0017 0.22848 2.0434 0.19437 3.0681 0.11925 1.0246-0.0751 2.0519-0.19009 3.0768-0.11925 1.7384 0.12015 3.397 0.76868 5.1208 1.0242 2.0294 0.30077 4.094 0.0507 6.1449 0 2.048-0.0506 4.0987 0.0983 6.1449 0 4.8924-0.23507 9.5905-1.8681 14.338-3.0725 2.4112-0.61167 4.8617-1.119 7.1691-2.0483 3.2636-1.3144 6.1331-3.428 9.2174-5.1208 3.3471-1.837 6.953-3.1809 10.242-5.1208 4.0016-2.3606 7.4448-5.5502 11.266-8.1932 4.2868-2.9653 9.0273-5.2277 13.314-8.1932 3.8208-2.6433 7.2637-5.8333 11.266-8.1932 3.2888-1.9394 6.8954-3.282 10.242-5.1208 3.0835-1.6945 5.9512-3.8125 9.2174-5.1208 2.7126-1.0865 5.6688-1.6009 8.1932-3.0725 2.5425-1.4821 4.5095-3.8608 7.1691-5.1208 1.9534-0.9254 4.1621-1.1876 6.1449-2.0483 1.4014-0.60833 2.6681-1.5065 4.0966-2.0483 1.3173-0.49962 2.7303-0.68058 4.0966-1.0242 2.0947-0.52674 4.0741-1.4344 6.1449-2.0483 3.4307-1.017 7.1623-1.2497 10.242-3.0725 1.47-0.87017 2.7176-2.0644 4.0966-3.0725 1.3804-1.0091 2.9076-1.8436 4.0966-3.0725 1.1881-1.228 1.9758-2.7863 3.0725-4.0966 0.93003-1.1113 2.0682-2.0278 3.0725-3.0725 3.3012-3.4341 4.9948-8.0515 7.1691-12.29 1.8891-3.6824 4.2196-7.2262 5.1208-11.266 0.45234-2.0276 0.52933-4.1272 1.0242-6.1449 0.33564-1.3686 0.86275-2.6968 1.0242-4.0966 0.15654-1.3577-0.0373-2.7305 0-4.0966 0.0468-1.7175 0.43819-3.4044 0.69212-5.1037s0.33204-3.4196 0.33204-5.1378v-11.266c0-0.6849 0.0291-1.3694 0.0762-2.0527 0.0471-0.68327 0.0966-1.3812-0.0762-2.044-0.21729-0.8337-0.77727-1.5333-1.3706-2.158-0.5933-0.62471-1.2409-1.2108-1.7019-1.9386-0.41057-0.64815-0.65707-1.3836-0.9329-2.0996-0.27584-0.71595-0.59394-1.4342-1.1154-1.997-0.41974-0.45301-0.95238-0.78443-1.4906-1.0873s-1.092-0.58489-1.5819-0.961c-0.68053-0.52253-1.216-1.2105-1.6888-1.9265s-0.89102-1.4676-1.3836-2.1701c-1.7165-2.448-4.317-4.2238-7.1691-5.1208-1.343-0.42238-2.7372-0.6579-4.0966-1.0242-1.3608-0.36664-2.6961-0.86621-4.0966-1.0242-1.6972-0.19141-3.4128 0-5.1208 0h-19.459c-2.0502 0-4.1144-0.28356-6.1449 0-1.395 0.19482-2.717 0.73982-4.0966 1.0242-1.7105 0.35254-3.5269 0.31022-5.1208 1.0242-1.3331 0.59714-2.3896 1.674-3.3164 2.803-0.92684 1.1291-1.7645 2.341-2.8285 3.3419-1.2442 1.1704-2.7564 2.0133-4.0966 3.0725-1.8957 1.4981-3.4194 3.4052-5.1208 5.1208-2.7461 2.769-5.9527 5.036-9.2174 7.1691-1.0305 0.67332-2.0691 1.3352-3.0725 2.0483-4.1416 2.9436-7.6728 6.6486-11.266 10.242l-5.1208 5.1208c-1.0246 1.0246-2.1525 1.9529-3.0725 3.0725-1.0869 1.3228-1.7722 2.9828-3.0725 4.0966-0.93601 0.8018-2.1254 1.2596-3.0725 2.0483-0.84312 0.70209-1.4571 1.6344-2.0556 2.554-0.59849 0.91955-1.2063 1.8548-2.041 2.5668-0.93752 0.79969-2.1127 1.2754-3.0725 2.0483-0.7526 0.60605-1.3523 1.378-2.0483 2.0483-0.69718 0.67137-1.5001 1.2506-2.0483 2.0483-0.43454 0.63228-0.68566 1.3688-0.9564 2.0867-0.27073 0.71785-0.5757 1.4424-1.0919 2.0099-0.32515 0.3575-0.72644 0.6435-1.0242 1.0242-0.15217 0.19457-0.27492 0.41104-0.43062 0.6028-0.15569 0.19177-0.35361 0.36265-0.59354 0.42136-0.16658 0.0408-0.34122 0.0248-0.51173 6e-3 -0.17051-0.0184-0.344-0.0388-0.51242-6e-3 -0.24604 0.0473-0.4599 0.20467-0.62215 0.39557-0.16225 0.19091-0.27935 0.4152-0.39586 0.637s-0.23534 0.44541-0.40031 0.63397c-0.16497 0.18855-0.3827 0.3416-0.63 0.38177-0.16957 0.0275-0.34258 1e-3 -0.51319-0.0189-0.17061-0.0201-0.34729-0.0333-0.51096 0.0189-0.11664 0.0372-0.22129 0.10636-0.31134 0.1893-0.09006 0.0829-0.16638 0.1796-0.23832 0.27866-0.14388 0.19813-0.27634 0.41235-0.47449 0.55619-0.16444 0.11936-0.36362 0.18176-0.56318 0.22002-0.19956 0.0383-0.40284 0.0543-0.60261 0.0914-0.19977 0.0372-0.3994 0.0973-0.56579 0.2139-0.08319 0.0583-0.15722 0.13052-0.21318 0.21531-0.05596 0.0848-0.09351 0.1824-0.10355 0.2835-0.01748 0.17596 0.04743 0.34809 0.08373 0.52116 0.01815 0.0865 0.02925 0.17555 0.01919 0.26339-0.01006 0.0878-0.04263 0.17493-0.10292 0.2396-0.06088 0.0653-0.14667 0.104-0.23471 0.11878-0.08804 0.0148-0.17855 7e-3 -0.26618-0.01-0.17526-0.0341-0.34476-0.10509-0.52327-0.10878-0.12676-3e-3 -0.25315 0.0295-0.36692 0.0855s-0.2152 0.13527-0.30289 0.22684c-0.17538 0.18315-0.2945 0.41193-0.40432 0.64049s-0.21398 0.46243-0.36622 0.66522-0.36044 0.37519-0.60796 0.43025c-0.1674 0.0372-0.34155 0.0191-0.51205 5.7e-4 -0.17049-0.0185-0.34454-0.0371-0.51211-5.7e-4 -0.24726 0.0539-0.45629 0.224-0.61 0.42502s-0.25977 0.43347-0.37053 0.661-0.22975 0.45548-0.40352 0.63943c-0.08689 0.092-0.18718 0.17214-0.29982 0.22977-0.11264 0.0576-0.23791 0.0923-0.36444 0.0931-0.17695 1e-3 -0.34704-0.0629-0.52111-0.0947-0.08704-0.0159-0.17643-0.0238-0.26403-0.0113s-0.17369 0.0463-0.23901 0.10602c-0.06632 0.0606-0.10813 0.14502-0.12668 0.23291-0.01855 0.0879-0.01499 0.17928-4.76e-4 0.26792 0.02903 0.17729 0.10098 0.3456 0.12715 0.52333 0.04316 0.29308-0.04704 0.60318-0.24065 0.82739-0.19361 0.22422-0.48726 0.35862-0.78351 0.35862-0.29624 0-0.58989-0.1344-0.7835-0.35862-0.19361-0.22421-0.28381-0.53431-0.24065-0.82739l-3.0725 2.0483z"/>
   </g>
  </g>
  <path d="m1369.3 946.87 22.531 25.604v0" fill="none" stroke="#3280ec" stroke-linecap="round" stroke-width="10"/>
  <path d="m1506.5 1336.1-15.362-30.725" fill="none" stroke="#3280ec" stroke-linecap="round" stroke-width="10"/>
  <path d="m1303.7 1216.2-3.0724 27.652" fill="none" stroke="#3280ec" stroke-linecap="round" stroke-width="10"/>
  <path d="m1356 872.11 14.338-24.58v0" fill="none" stroke="#3280ec" stroke-linecap="round" stroke-width="11"/>
  <path d="m1182.9 1087.2 26.628-34.821" fill="none" stroke="#3280ec" stroke-linecap="round" stroke-width="10"/>
  <path d="m1257.7 942.78-11.266-20.483" fill="none" stroke="#3280ec" stroke-linecap="round" stroke-width="11"/>
  <path d="m1554.7 1181.4 14.338 21.507" fill="none" stroke="#3280ec" stroke-linecap="round" stroke-width="10"/>
  <path d="m1557.7 1064.7 19.459-28.676" fill="none" stroke="#3280ec" stroke-linecap="round" stroke-width="10"/>
  <path d="m1684.7 1160.9-16.386-20.483" fill="none" stroke="#3280ec" stroke-linecap="round" stroke-width="12"/>
  <path d="m1494.2 897.71 29.7-15.362" fill="none" stroke="#3280ec" stroke-linecap="round" stroke-linejoin="round" stroke-width="11"/>
  <path d="m1344.7 1368.8 14.338-29.7" fill="none" stroke="#3280ec" stroke-linecap="round" stroke-width="11"/>
  <path d="m1594.6 918.2 22.531 25.604v0" fill="none" stroke="#1cdaf5" stroke-linecap="round" stroke-width="10"/>
  <path d="m1670.4 1069.8-15.362-30.725" fill="none" stroke="#1cdaf5" stroke-linecap="round" stroke-width="10"/>
  <path d="m1520.9 1224.4-3.0724 27.652" fill="none" stroke="#1cdaf5" stroke-linecap="round" stroke-width="10"/>
  <path d="m1364.2 1269.5 14.338-24.58v0" fill="none" stroke="#1cdaf5" stroke-linecap="round" stroke-width="11"/>
  <path d="m1445.1 911.03 26.628-34.821" fill="none" stroke="#1cdaf5" stroke-linecap="round" stroke-width="10"/>
  <path d="m1220.8 1020.6-11.266-20.483" fill="none" stroke="#1cdaf5" stroke-linecap="round" stroke-width="11"/>
  <path d="m1198.3 1173.2 14.338 21.507" fill="none" stroke="#1cdaf5" stroke-linecap="round" stroke-width="10"/>
  <path d="m1246.4 1101.5 19.459-28.676" fill="none" stroke="#1cdaf5" stroke-linecap="round" stroke-width="10"/>
  <path d="m1426.6 1365.8-16.386-20.483" fill="none" stroke="#1cdaf5" stroke-linecap="round" stroke-width="12"/>
  <path d="m1309.9 914.1 29.7-15.362" fill="none" stroke="#1cdaf5" stroke-linecap="round" stroke-linejoin="round" stroke-width="11"/>
  <path d="m1635.6 1196.8 14.338-29.7" fill="none" stroke="#1cdaf5" stroke-linecap="round" stroke-width="11"/>
  <path d="m1533.2 877.23 22.531 25.604v0" fill="none" stroke="#f2f2f2" stroke-linecap="round" stroke-width="10"/>
  <path d="m1445.1 1286.9-15.362-30.725" fill="none" stroke="#f2f2f2" stroke-linecap="round" stroke-width="10"/>
  <path d="m1275.1 1154.8-3.0724 27.652" fill="none" stroke="#f2f2f2" stroke-linecap="round" stroke-width="10"/>
  <path d="m1614.1 1011.4 14.338-24.58v0" fill="none" stroke="#f2f2f2" stroke-linecap="round" stroke-width="11"/>
  <path d="m1273 980.67 26.628-34.821" fill="none" stroke="#f2f2f2" stroke-linecap="round" stroke-width="10"/>
  <path d="m1183.9 1114.8-11.266-20.483" fill="none" stroke="#f2f2f2" stroke-linecap="round" stroke-width="11"/>
  <path d="m1308.9 1287.9 14.338 21.507" fill="none" stroke="#f2f2f2" stroke-linecap="round" stroke-width="10"/>
  <path d="m1578.2 1285.9 19.459-28.676" fill="none" stroke="#f2f2f2" stroke-linecap="round" stroke-width="10"/>
  <path d="m1520.9 972.48-16.386-20.483" fill="none" stroke="#f2f2f2" stroke-linecap="round" stroke-width="12"/>
  <path d="m1592.6 1139.4 29.7-15.362" fill="none" stroke="#f2f2f2" stroke-linecap="round" stroke-linejoin="round" stroke-width="11"/>
  <path d="m1401.4 903.71 14.338-29.7" fill="none" stroke="#f2f2f2" stroke-linecap="round" stroke-width="11"/>
 </g>
</svg>
