<?xml version="1.0" encoding="UTF-8"?>
<!DOCTYPE svg  PUBLIC '-//W3C//DTD SVG 1.1//EN'  'http://www.w3.org/Graphics/SVG/1.1/DTD/svg11.dtd'>
<svg width="300mm" height="450mm" clip-rule="evenodd" fill-rule="evenodd" image-rendering="optimizeQuality" shape-rendering="geometricPrecision" text-rendering="geometricPrecision" viewBox="0 0 300 450" xml:space="preserve" xmlns="http://www.w3.org/2000/svg">
 <defs>
  <style type="text/css">
   <![CDATA[
    .str0 {stroke:#1F1A17;stroke-linecap:round;stroke-linejoin:round}
    .fil6 {fill:none}
    .fil11 {fill:#DB214C}
    .fil12 {fill:#EE9A85}
    .fil10 {fill:white}
    .fil5 {fill:#301716}
    .fil3 {fill:#3B1A16}
    .fil2 {fill:#5A311C}
    .fil4 {fill:#895842}
    .fil13 {fill:#9C213D}
    .fil0 {fill:#BD905F}
    .fil1 {fill:#D7A877}
    .fil9 {fill:#DFD9B2}
    .fil7 {fill:#E7BC7D}
    .fil8 {fill:#FFF8E0}
   ]]>
  </style>
 </defs>
    <path class="fil0 str0" d="m60.095 162.66c-37.548 8.6641-50.451 32.779-50.451 70.758 0 61.624 97.202 74.038 119.3 29.826 11.205-22.413 15.742-49.954 0.9519-73.614-11.069-17.708-42.923-35.612-69.806-26.97z"/>
    <path class="fil1" d="m69.462 163.61c-9.6723-5.2081-45.536 16.229-45.536 25.331 0 5.4852-3.7288 6.5378-6.1532 11.373-3.3223 6.6255-5.642 16.818-5.7836 22.928-0.5259 22.69 11.432 40.622 21.677 50.423 1.0668 1.0207 4.5113-0.0121 5.7675 0.8765 1.4656 1.0369 3.165 4.9662 4.9107 5.8238 8.411 4.1325 20.111 3.2049 36.637 3.2049 2.5884 0 4.2175-1.8552 7.4765-3.0349 4.1249-1.493 10.796-1.3644 15.41-4.1216 4.0039-2.3925 8.7985 0.7116 12.352-2.5107 9.8237-8.9088 10.538-29.252 16.847-33.771 3.1485-2.2552 3.0005-5.3088 3.0852-6.9917 0.1089-2.1635-2.5655-3.448-3.1779-7.3228-2.491-15.761-5.4846-36.01-16.914-47.853-10.737-11.125-29.435-14.338-46.599-14.355z"/>
    <path class="fil2 str0" d="m66.558 167.42c-10.63 4.9061-14.136 3.965-25.217 3.965-15.443 0-2.9097 9.2537-9.3574 15.701-18.584 18.584-14.591 10.174-14.591 39.967 0 6.8365-10.891 41.236 8.4058 41.236 18.688 0 22.786 15.701 38.381 15.701 11.806 0 18.173-6.5397 28.865-7.7714 10.013-1.1536 10.091 6.1014 16.494 8.5644 5.9515 2.2894 1.9342-9.8642 5.8682-13.798 10.243-10.243 17.763-10.799 17.763-29.5 0-23.44 7.605-43.551-12.371-56.144-18.812-11.86-30.72-26.291-54.241-17.922z"/>
    <path class="fil3" d="m123.36 250.14c-5.153 4.7849-9.7109 4.1556-12.688 11.895-0.5839 1.5182 0.4431 3.2943 1.2688 3.965 0.8356 0.6789 1.9392-1.7806 2.5376-2.379 4.1296-4.1296 14.274-4.1063 14.274-11.578 0-6.2538-0.6101-13.687-0.9516-20.301-0.2554-4.9479 1.9032-7.0543 1.9032-11.102 0-1.8574-1.81-0.4326-2.2204 0.6344-2.7523 7.1553 2.2 24.321-4.1236 28.865z"/>
    <path class="fil4" d="m61.822 177.66c-1.6662-0.476-11.219-0.3832-12.847 0.6344-4.8488 3.0311-12.371-8.2908-12.371 2.2204 0 17.895-12.961 11.9-16.336 23.156-0.9614 3.2067-1.9032 5.9388-1.9032 10.785 0 2.6692 2.6962 13.427 2.6962 8.8816 0-7.3802 0.9812-13.494 4.2822-18.239 2.9718-4.2722 7.5079-3.8702 10.943-6.6612 4.2501-3.4526 4.6269-13.18 8.4058-15.543 2.0752-1.2972 5.5697-2.0618 8.8816-2.0618 1.3826 0 8.9612-2.4054 8.2472-3.172z"/>
    <path class="fil4" d="m81.012 167.36c-1.9758 0.4234-4.7266 1.467-6.1854 2.379-4.5745 2.8596 6.0057 0.6344 7.4542 0.6344 3.7211 0 6.8746-0.1864 9.8332 0.9516 0.5747 0.2211 4.6971 3.2036 3.6478 0.4758-1.2619-3.2807-9.8298-4.4408-14.75-4.4408z"/>
    <path class="fil4" d="m17.414 240.79c1.0638-3.1916 2.7855 10.487 3.172 11.261 4.8135 9.6296 3.9802 8.6128 16.177 11.102 5.8366 1.1912 8.3317 8.7763 4.4408 6.344-2.3362-1.4605-8.5934-0.5357-11.736-1.7446-2.9387-1.1304-5.8676 0.0613-8.0886-1.9032-3.5434-3.1344-3.6323-5.5906-5.0752-10.785-1.4761-5.3136 1.2688-10.46 1.1102-14.274z"/>
    <path class="fil3" d="m58.174 276.47c-4.933-1.1383-5.1743-0.2399-1.7446 2.2204 4.0384 2.8968 24.583 2.7308 24.583-2.6962 0-2.3012-4.6411 0.4977-5.2338 0.6344-5.6765 1.3092-12.018 2.2323-17.605-0.1586z"/>
    <path class="fil4" d="m96.079 272.82c-1.6493 0-4.0148 0.6829-1.2688 1.4274 2.6205 0.7104 7.7107 3.4285 9.3574 5.0752 1.5274 1.5274 2.4379 4.3846 4.4408 5.0752 2.2142 0.7636 2.1866-2.4332 1.4274-3.6478-2.4515-3.9215-8.4623-7.7714-13.957-7.93z"/>
      <path class="fil5" d="m18.811 187.33l13.776-2.2634 12.944-4.8573c15.62-5.4397 32.456-7.1631 48.896-7.8349l15.083 0.2415c2.0645 0.1685 4.6463 0.5444 6.6199 1.4371 0.6609 0.2989 1.1912 0.7965 1.7466 1.2631l-0.198 0.2378c-4.051-1.1925-8.4607-1.0129-12.628-0.6831l-21.967 2.4347-22.437 3.5428-13.68 2.8176-13.78 3.9845c-4.7793 0.7398-9.5589 0.119-14.375-0.3204z"/>
     <path class="fil6" d="m18.811 187.33c8.4058 1.4274 19.984-2.2204 27.438-5.3924 8.8816-3.6478 64.867-12.054 71.529-6.5026"/>
      <path class="fil5" d="m116.98 175.59c-3.4972 2.5486-6.8591 5.2896-10.862 6.9347-4.3624 1.793-8.9995 2.9212-13.669 3.5875l-30.508 2.6139-28.634 2.498c-4.0583 0.7225-7.9857 2.2325-11.582 4.2465l-9.2825 7.4913-0.2782-0.1854c2.5769-3.3185 4.8872-6.888 8.3129-9.3205 3.5879-2.5477 7.6902-4.4405 11.964-5.4875l29.309-4.183 30.231-1.0935 13.372-2.4293 11.625-4.6727z"/>
     <path class="fil6" d="m116.98 175.59c-26.169 20.142-85.961-0.793-104.68 27.279"/>
      <path class="fil5" d="m12.308 202.87l5.4666 1.3979c2.3313 0.2786 4.7046 0.3238 7.0348 0.036l17.383-3.3241 25.471-7.8958c10.942-3.1828 22.164-5.3956 33.575-6.025l27.996 1.7846-0.0754 0.4564-27.585 1.1823-26.612 5.5166-13.593 3.9608c-12.894 3.2417-26.815 7.7023-40.386 6.4613-2.2388-0.2047-4.5331-0.6283-6.4899-1.735l-2.1841-1.816z"/>
     <path class="fil6" d="m12.308 202.87c11.102 8.4058 49.007-5.7096 62.013-9.1988 15.384-4.2822 38.54-7.2956 54.876-4.5994"/>
      <path class="fil5" d="m129.04 189.23l-30.159 8.6888-31.405 6.0374-35.087 10.498-10.919 1.6784 12.843-0.3678 30.934-4.5453 21.408-4.7504 33.087-2.3822c4.6032 0.0319 10.05 0.3277 14.577 1.762 1.5308 0.4849 2.8657 1.3876 4.2409 2.2167l-0.3268 0.3922-4.1883-1.5533-6.3848-0.7432-40.449 3.5244-21.11 5.3126-31.416 5.3672-20.878 0.6196c-1.6713-0.137-3.6163-1.0261-4.0921-2.7643-0.6444-2.3541 1.6001-4.0116 3.4514-4.8618 1.4677-0.674 3.018-1.1845 4.6072-1.4726l13.681-1.798 35.123-9.5745 31.916-5.0646 30.546-6.2196z"/>
     <path class="fil6" d="m129.04 189.23c-17.605 7.4542-42.663 8.0886-62.013 13.005-14.591 3.8064-31.561 10.785-46.787 11.736-4.9166 0.1586-14.115 4.758-2.6962 4.758 23.949 0 41.553-3.6478 64.55-9.6746 9.516-2.379 48.69-7.137 56.303-0.793"/>
      <path class="fil5" d="m138.55 209.06l-31.652 9.6425-33.533 3.2417-19.886 3.906-28.797 7.7256-4.2462 1.2291 7.545-0.8478 19.98-0.8879 34.121-5.9682 22.562-2.7762 10.894-1.9418c7.51-0.4458 15.254 0.3665 22.33 2.9777 2.0606 0.7605 2.8125 3.5529 0.9193 4.9266-0.4659 0.3381-0.9495 0.6927-1.5078 0.833l-12.318 2.2032-39.331 4.7359-18.417 4.7547-20.588 1.1703c-5.0815 0.5999-10.104 1.7283-14.754 3.8636l-9.213 5.684-4.5551 1.9555-0.1784-0.5498 8.5683-5.2911c3.1275-2.0214 6.0699-4.542 9.6475-5.5755l20.73-2.7438 18.945-3.5338 18.623-4.6678 37.527-4.7162 1.0815-0.289-2.9522-0.5742-14.09-0.7873-10.504 2.0421-22.593 3.0984-34.432 5.8105-20.111 0.6133-14.191 1.3683c-1.6246 0.0851-3.5934 0.0766-4.699-1.3116-1.087-1.3648 0.0357-3.1602 1.2591-3.9434 1.2893-0.8254 2.5881-1.7088 4.0544-2.1489l17.871-3.9536 30.129-8.2885 26.656-1.5278 33.895-5.0863 15.209-4.3715z"/>
     <path class="fil6" d="m138.55 209.06c-18.239 7.7714-44.884 11.419-65.185 11.419-13.798 0-27.121 6.8198-40.284 9.6746-6.1854 1.4274-11.261 1.2688-17.446 3.965-14.433 6.6612 9.8332 1.7446 15.384 1.9032 22.997 1.2688 45.677-7.137 68.674-8.723 7.2956-0.4758 13.957-3.4892 21.728-2.8548 11.736 0.793 28.548 4.1236 3.3306 6.9784l-30.134 3.3306c-13.005 1.4274-23.473 7.7714-37.747 7.7714-6.9784 0-13.798 0.3172-20.459 2.379-6.8198 2.2204-12.529 8.4058-18.398 10.309"/>
      <polygon class="fil5" points="17.701 255.21 32.475 252.26 68.254 248.82 110.7 244.02 132.42 247.01 132.32 247.55 110.79 247.12 68.999 253.46 32.466 254.79"/>
     <path class="fil6" d="m17.701 255.21c8.8816-2.8548 20.618-1.1102 29.658-1.586 28.707-1.586 55.669-12.212 85.01-6.344"/>
      <path class="fil5" d="m132.37 247.28c-4.852 2.8121-9.469 6.1999-14.885 7.6555l-31.471 4.8585-23.696 3.0762c-8.1567 2.3185-16.533 4.6137-23.968 8.8309-1.5196 0.862-2.7341 1.8868-3.7991 3.2407l-0.3926-0.1308c0.7512-2.6312 2.9291-4.5063 5.2268-5.9213l10.459-5.4806 16.152-5.7183 19.692-2.6913 31.066-2.7861 15.616-4.9334z"/>
     <path class="fil6" d="m132.37 247.28c-20.142 11.736-41.077 8.2472-62.488 11.736-6.8198 0.9516-33.306 9.1988-35.526 15.86"/>
      <path class="fil5" d="m34.354 275.51l20.841-1.5723 22.468-7.9656c3.4474-0.933 7.1177-0.5883 10.688-0.6647l15.309-0.1479c4.0117 0.1211 8.9945 0.1041 12.51 2.5082 1.0122 0.6922 1.3668 1.5952 1.4338 2.7379l-0.6038 0.0584c-0.8689-1.7897-2.879-2.2241-4.762-2.3909l-8.4592 0.0985-15.217 1.3638-9.9693 1.2385-22.892 6.6256c-7.1122 0.8772-14.239-0.9708-21.346-1.8895z"/>
     <path class="fil6" d="m34.354 275.51c8.2472 0 12.847 1.4274 21.094 0.1586 7.6128-1.1102 15.226-5.8682 22.68-7.2956 4.9166-0.9516 15.543-1.1102 21.252-1.4274 3.8064-0.3172 17.446-1.4274 17.922 3.4892"/>
    <path class="fil0 str0" d="m209.74 162.66c-37.548 8.6641-50.451 32.779-50.451 70.758 0 61.624 97.202 74.038 119.3 29.826 11.205-22.413 15.742-49.954 0.9519-73.614-11.069-17.708-42.923-35.612-69.806-26.97zm16.654 42.766c-11.696-5.3982-19.618 5.7096-24.9 12.212-5.9397 7.3116 1.8529 23.429 8.5644 26.01 6.6848 2.5713 9.4869 5.9656 19.032 3.965 14.064-2.9477 17.446-10.754 17.446-25.535 0-10.271-12.594-14.348-20.142-16.653z"/>
    <path class="fil7" d="m216.91 167.28c-9.6723-5.2081-43.338 12.567-43.338 21.669 0 13.002-9.6778 24.647-9.9227 35.216-0.0698 3.0134-1.6019 6.0186-1.3263 8.8283 1.8 18.346 12.106 32.18 20.989 40.68 1.0668 1.0206 4.5113-0.0121 5.7675 0.8765 1.4656 1.0369 3.1652 4.9662 4.9107 5.8238 4.6798 2.2991 10.735 2.9546 17.77 4.1823 3.4357 0.5996 6.8964 2.5898 10.948 2.5514 2.563-0.0242 5.0782-3.5288 7.9183-3.5288 2.5882 0 6.5965 3.4517 9.8555 2.2721 4.1248-1.493 8.4172-6.6714 13.032-9.4286 15.074-9.0074 28.375-25.745 29.199-36.281 0.1757-2.2485 1.923-4.0037 1.8669-6.2499-0.07-2.7992-1.5218-5.295-1.9596-8.0646-2.4943-15.78-4.9891-38.734-17.008-49.637-11.263-10.217-31.56-8.8923-48.702-8.9088zm-9.3436 40.754c-1.8724 1.652-2.2061 4.0484-3.3662 5.359-1.1602 1.3106-3.1472 1.536-3.7556 2.6848-2.4058 4.5426-1.1284 8.5247-1.1284 17.502 0 5.9792 5.9944 9.5327 12.764 12.8 6.1634 2.9751 13.245 6.711 17.851 3.7994 8.9984-5.6878 14.94-5.8383 17.793-18.389 2.8733-12.643-4.4514-20.83-14.049-25.342-2.308-1.085-0.9579-2.1057-3.4365-2.7084-6.334-1.5402-16.783-0.902-22.672 4.294z"/>
    <path class="fil2 str0" d="m216.24 165.45c-10.63 4.9061-14.136 3.965-25.217 3.965-15.443 0-2.9097 9.2537-9.3574 15.701-18.584 18.584-14.591 10.174-14.591 39.967 0 6.8365-10.891 41.236 8.4058 41.236 18.688 0 22.786 15.701 38.381 15.701 11.806 0 18.173-6.5397 28.865-7.7714 10.013-1.1536 10.091 6.1014 16.494 8.5644 5.9515 2.2894 1.9342-9.8642 5.8682-13.798 10.243-10.243 17.763-10.799 17.763-29.5 0-23.44 7.605-43.551-12.371-56.144-18.812-11.86-30.72-26.291-54.241-17.922zm-0.6216 38.738c-10.76 2.8688-19.679 8.4929-19.679 22.799 0 7.8793 13.057 26.086 21.252 23.949 4.7136-1.2291 20.327-1.935 22.363-4.4408 3.4388-4.2332 14.674-16.802 10.468-25.217-1.7015-3.4038-8.7992-9.3018-9.1988-12.371-0.4389-3.3703-0.6044-6.6925-2.6343-7.8493-2.0225-1.1526-4.4979 0.6662-7.5311 1.0995-5.0553 0.7223-11.097 0.98-15.039 2.0311z"/>
    <path class="fil4" d="m211.32 174.34c-1.6662-0.476-11.219-0.3832-12.847 0.6344-4.8488 3.0311-12.371-8.2908-12.371 2.2204 0 17.895-12.961 11.9-16.336 23.156-0.9614 3.2067-1.9032 5.9388-1.9032 10.785 0 2.6692 2.6962 13.427 2.6962 8.8816 0-7.3802 0.9812-13.494 4.2822-18.239 2.9718-4.2722 7.5079-3.8702 10.943-6.6612 4.2501-3.4526 4.6269-13.18 8.4058-15.543 2.0752-1.2972 5.5697-2.0618 8.8816-2.0618 1.3826 0 8.9612-2.4054 8.2472-3.172z"/>
    <path class="fil4" d="m230.51 164.03c-1.9758 0.4234-4.7266 1.467-6.1854 2.379-4.5745 2.8596 6.0057 0.6344 7.4542 0.6344 3.7211 0 6.8746-0.1864 9.8332 0.9516 0.5747 0.2211 4.6971 3.2036 3.6478 0.4758-1.2619-3.2807-9.8298-4.4408-14.75-4.4408z"/>
    <path class="fil4" d="m166.92 237.46c1.0638-3.1916 2.7855 10.487 3.172 11.261 4.8135 9.6296 3.9802 8.6128 16.177 11.102 5.8366 1.1912 8.3317 8.7763 4.4408 6.344-2.3362-1.4605-8.5934-0.5357-11.736-1.7446-2.9387-1.1304-5.8676 0.0613-8.0886-1.9032-3.5434-3.1344-3.6323-5.5906-5.0752-10.785-1.4761-5.3136 1.2688-10.46 1.1102-14.274z"/>
    <path class="fil4" d="m207.68 273.14c-4.933-1.1383-5.1743-0.2399-1.7446 2.2204 4.0384 2.8968 24.583 2.7308 24.583-2.6962 0-2.3012-4.6411 0.4977-5.2338 0.6344-5.6765 1.3092-12.018 2.2323-17.605-0.1586z"/>
    <path class="fil4" d="m245.58 269.5c-1.6493 0-4.0148 0.6829-1.2688 1.4274 2.6205 0.7104 7.7107 3.4285 9.3574 5.0752 1.5274 1.5274 2.4379 4.3846 4.4408 5.0752 2.2142 0.7636 2.1866-2.4332 1.4274-3.6478-2.4515-3.9215-8.4623-7.7714-13.957-7.93z"/>
    <path class="fil4" d="m258.74 215.57c-2.8679 0.2206-2.0618 8.7074-2.0618 11.419 0 14.751-18.449 29.862-31.244 30.927-6.6101 0.5499-11.647 0.1586-18.08 0.1586-10.024 0 8.7509 3.4892 13.481 3.4892 8.6653 0 16.774-4.2822 26.328-4.2822 5.6655 0 5.9394-0.7581 6.344-6.0268 0.8585-11.181 9.4175-23.61 5.2338-35.685z"/>
    <path class="fil3" d="m272.86 248.08c-5.153 4.7849-9.7109 4.1556-12.688 11.895-0.5839 1.5182 0.4431 3.2943 1.2688 3.965 0.8356 0.6789 1.9392-1.7806 2.5376-2.379 4.1296-4.1296 14.274-4.1063 14.274-11.578 0-6.2538-0.6101-13.687-0.9516-20.301-0.2554-4.9479 1.9032-7.0543 1.9032-11.102 0-1.8574-1.81-0.4326-2.2204 0.6344-2.7523 7.1553 2.2 24.321-4.1236 28.865z"/>
    <path class="fil3" d="m245.3 211.49c6.0525 7.8683-0.5596-5.2958-0.9516-6.1854-1.7205-3.9048 0.0173-10.468-4.5994-10.468-6.6458 0-16.805 1.323-23.473-0.1586-9.4704-2.1045-13.936 10.13-17.287 13.481-3.8466 3.8466-5.7139 3.8329-9.1988 10.15-2.0437 3.7048-0.2999 10.535 1.7446 12.847 0.8145 0.9209 7.1892 8.0127 4.758 4.1236-2.6949-4.3107-0.5139-17.21 1.4274-21.094 3.0236-6.0488 18.381-14.115 26.169-14.115 4.084 0 12.287-4.0713 15.86-1.586 2.1741 1.5124 2.4837 13.005 5.551 13.005z"/>
     <path class="fil5" d="m168.66 189.88l41.859-10.918 35.536-3.3375 16.696-0.1815c1.8681-0.0548 4.6471-0.6408 6.2807 0.7053 0.6598 0.5437 0.9349 1.5756 0.6198 2.373-0.4326 1.0947-1.5138 1.7299-2.538 2.1893-4.9259 2.2098-10.224 3.8354-15.508 4.9175l-27.452 4.1084-27.312 5.7201-17.592 2.9095-11.018 3.1426c-0.3043 0.1121-0.5932 0.2549-0.8725 0.417l7.3425-0.8544 29.87-1.852 37.296-7.5968c8.2206-1.8385 16.519-4.3868 25.054-4.2905l11.376 1.9338-0.0924 0.2772-11.239-0.8566-24.459 5.2354-37.479 8.6647-29.764 2.46-10.167 1.2851c-1.0676 0.0314-2.3923-0.0963-3.0508-1.0728-1.619-2.4008 0.0348-5.1864 2.2229-6.5105 4.215-2.5507 9.2649-3.7788 14.02-4.8246l17.803-3.2462 27.299-5.6053 27.272-3.5949 7.688-2.2675-12.612-0.1327-34.566 2.3721-42.516 8.431z"/>
    <path class="fil6" d="m168.66 189.88c14.274-1.7446 28.231-6.1854 42.188-9.6746 11.419-3.0134 22.838-3.8064 35.051-2.8548 5.2338 0.4758 11.736 0.3172 16.97 0 15.543-0.9516-10.15 6.1854-14.115 6.6612-16.336 1.9032-33.782 4.2822-49.483 8.5644-3.965 0.9516-38.857 4.758-35.526 11.419 0.4758 0.9516 12.371-1.2688 14.115-1.2688 18.556 0 35.526-2.5376 53.29-6.9784 13.322-3.172 33.306-10.943 47.104-6.344"/>
     <path class="fil5" d="m275.56 191.15l-22.386 6.935-21.591 3.9012-30.344 6.6179-8.7131 2.7553-22.258 7.7654 1.9021-0.0114 22.566 0.7179c1.1759 0.1123 3.0588 0.1808 4.0604 1.0021 0.0804 0.0659 0.1178 0.1475 0.1533 0.2412l-0.3064 0.1016c-0.0741 0.0182-0.2111-0.0522-0.2833-0.0615l-7.7626 0.0127-20.933 1.0428-9.5821 1.0195c-1.465 0.1512-2.5276-1.1923-1.9674-2.5596 0.2595-0.6333 0.956-1.0171 1.5269-1.3088l9.5812-4.1828 21.738-8.3245 9.1988-2.9841 30.242-5.4357 22.5-2.998 22.656-4.2462zm-115.72 28.543l-0.0174-3e-4 -0.0289 3e-3 0.0463-0.0027z"/>
    <path class="fil6" d="m275.56 191.15c-14.908 7.4542-30.293 4.4408-44.567 9.0402-9.0402 3.0134-20.777 3.965-30.293 6.0268-4.9166 1.1102-44.408 15.384-40.76 15.226l9.6746-0.793c4.758-0.1586 28.707-0.9516 29.182 0.4758"/>
     <path class="fil5" d="m197.68 223.5l-11.247 5.0802-11.35 5.4275c-3.9299 1.6388-8.1831 2.7092-11.771 5.08l0.6943 0.0254 28.443-2.2818c2.784-0.0915 6.2393-0.1519 9.0106 0.7295 1.4533 0.4622 2.6949 1.7 2.0321 3.2974-0.3115 0.7508-1.1538 1.3848-1.8238 1.7167-5.0575 2.5058-10.755 2.7703-16.01 4.6619l-12.178 5.6062 0.2475-0.0231 20.518-3.242 52.125-2.3471 23.86-0.1953c3.16 0.0781 6.9986 0.0618 10.001 1.3769 0.7657 0.3354 1.1893 1.5185 1.1237 2.297-0.1988 2.358-3.1312 3.0602-4.9737 3.4553l-32.062 6.1445-34.556 7.0594-11.41 4.8176c-3.5179 1.839-6.6825 4.0472-8.7808 7.454l-0.2088 0.5366 0.2545 0.0071c3.5921-0.2111 7.751-2.2049 10.736-3.3277l12.233-4.6174 24.985-5.474 17.518-0.3717c2.605 0.1604 5.1848 0.7443 7.6602 1.5715l6.2201 3.1545-0.1584 0.239-6.3297-2.4747c-2.4533-0.637-4.9762-1.0866-7.5104-1.1361l-17.131 0.9857-30.451 8.2456-13.51 5.5068c-1.8999 0.6996-4.4185 1.3123-6.3801 0.4695-1.0453-0.4491-1.7869-1.9634-1.4113-3.0696 0.4232-1.2465 0.8618-2.5194 1.6773-3.5528 3.2787-4.1544 8.029-7.1088 12.84-9.2036l14.607-5.2027 48.863-10.006-7.8919 0.0704-44.221 0.5477-33.897 3.5022c-2.8863 0.3666-5.753 1.1326-8.6845 0.8277-1.3346-0.1388-2.5794-1.029-2.6347-2.4488-0.0352-0.9042 0.5136-1.7747 1.1688-2.3535 0.9183-0.8113 1.9049-1.5671 3.0027-2.1114l13.622-6.0037 10.286-2.3972 4.1419-1.2419 0.2248-0.0992c-2.2144-0.3835-4.4351-0.4757-6.7081-0.4459l-26.276 1.5478c-1.574 0.0905-4.251 0.5194-5.5383-0.8151-0.5204-0.5395-0.4294-1.4633 0.0191-2.0133 0.752-0.9222 1.929-1.6079 3.005-2.0626l10.906-4.082 11.25-4.8419 11.829-3.9996zm-35.223 16.272l-9e-4 0.0011-3e-3 0.0073 0.0039-0.0084z"/>
    <path class="fil6" d="m197.68 223.5c-8.4058 1.4274-14.75 7.4542-22.838 9.6746-3.6478 1.1102-21.887 7.7714-8.723 6.9784l20.301-1.586c17.763-1.2688 22.997 2.0618 2.2204 6.0268-7.4542 1.4274-33.623 13.957-10.943 9.516 21.728-4.1236 46.47-4.4408 68.674-4.4408 5.8682 0 49.007-1.586 25.852 3.0134l-56.62 11.102c-6.8198 1.4274-22.363 7.2956-26.486 13.481-6.9784 9.9918 12.529 0.4758 17.763-1.586 14.115-5.551 47.421-14.115 62.013-4.4408"/>
     <path class="fil5" d="m237.18 208.91c5.1923-2.2781 10.294-4.6457 15.86-5.7254 2.3313-0.4522 4.7594 0.8594 7.0427 1.0258l8.0861-0.486c6.1536-0.3761 13.135-1.4762 19.051 1.0921 1.1115 0.4825 2.1755 1.1713 2.9224 2.1254l0.8222 1.5257-0.3554 0.2504c-1.8213-1.0736-3.5454-2.0335-5.7267-2.1495l-7.7682 0.2905-15.351 2.2137c-1.6669 0.0791-3.2646-0.6465-4.8744-1.0865-1.2779-0.3493-2.5248-1.015-3.8486-0.9636l-15.86 1.8874z"/>
    <path class="fil6" d="m237.18 208.91c4.4408-1.7446 10.943-3.8064 15.86-3.8064 3.0134 0 5.8682 1.586 8.723 1.586 6.8198 0 24.107-5.0752 29.024 1.9032"/>
     <path class="fil5" d="m289.2 210.97c-1.6372 2.1791-3.1658 4.6581-5.584 6.0863l-3.1837 1.2878-9.6849 3.5841-11.108 2.154-6.9829 1.1306-7.4878 1.8051-0.1182-0.3758 6.4684-4.0369 7.9261-2.5434 9.7514-2.6198 10.691-2.4269 2.4111-0.5172 1.9813-1.0523 4.9203-2.4756z"/>
    <path class="fil6" d="m289.2 210.97c-3.4892 2.2204-4.5994 4.9166-9.0402 5.7096-6.9784 1.1102-13.322 5.0752-20.618 5.3924-6.1854 0.3172-8.8816 3.0134-14.433 4.758"/>
     <path class="fil5" d="m245.1 227.15l24.94-3.1179c5.1274-0.6249 11.02-1.3895 15.592 1.6764 1.6453 1.1034 2.7859 2.7549 4.0548 4.2762l-0.3574 0.3574c-2.2041-1.1324-4.4124-2.5735-6.9114-2.9812-2.1101-0.3443-4.2647-0.1117-6.385 0.1629l-18.141 2.2738-12.792-2.6476z"/>
    <path class="fil6" d="m245.1 227.15c8.4058 1.7446 16.97 0.6344 25.376-0.793 7.6128-1.4274 13.005-2.2204 19.032 3.8064"/>
     <path class="fil5" d="m288.24 232.22l-5.1055 2.9264c-1.8525 0.9928-3.6559 2.2083-5.7168 2.6203l-21.849 1.9239-7.0208-0.8074c-1.9826-0.1637-4.2824-0.3769-5.9827 0.839l-0.3206-0.096c0.0453-1.1975 0.9271-2.0079 2.0575-2.4287 3.6596-1.3624 7.4371-1.0812 11.267-1.3461l21.29-1.5653 5.2664-1.4241c2.0171-0.4941 4.0391-0.5953 6.1153-0.642z"/>
    <path class="fil6" d="m288.24 232.22c-3.6478 0.3172-7.6128 3.172-11.102 3.8064-7.137 1.1102-14.274 1.9032-21.57 1.7446-2.2204 0-12.212-1.2688-13.164 1.9032"/>
    <path class="fil0 str0" d="m60.095 12.655c-37.548 8.6641-50.451 32.779-50.451 70.758 0 61.624 97.202 74.038 119.3 29.826 11.205-22.413 15.742-49.954 0.9519-73.614-11.069-17.708-42.923-35.612-69.806-26.97z"/>
    <path class="fil1" d="m69.462 13.613c-9.6723-5.2081-45.536 16.229-45.536 25.331 0 5.4852-3.7288 6.5378-6.1532 11.373-3.3223 6.6255-5.642 16.818-5.7836 22.928-0.5259 22.69 11.432 40.622 21.677 50.423 1.0668 1.0207 4.5113-0.0121 5.7675 0.8765 1.4656 1.0369 3.165 4.9662 4.9107 5.8238 8.411 4.1325 20.111 3.2049 36.637 3.2049 2.5884 0 4.2175-1.8552 7.4765-3.0349 4.1249-1.493 10.796-1.3644 15.41-4.1216 4.0039-2.3925 8.7985 0.7116 12.352-2.5107 9.8237-8.9088 10.538-29.252 16.847-33.771 3.1485-2.2552 3.0005-5.3088 3.0852-6.9917 0.1089-2.1635-2.5655-3.448-3.1779-7.3228-2.491-15.761-5.4846-36.01-16.914-47.853-10.737-11.125-29.435-14.338-46.599-14.355z"/>
    <path class="fil8 str0" d="m66.558 17.419c-10.63 4.9061-14.136 3.965-25.217 3.965-15.443 0-2.9097 9.2537-9.3574 15.701-18.584 18.584-14.591 10.174-14.591 39.967 0 6.8365-10.891 41.236 8.4058 41.236 18.688 0 22.786 15.701 38.381 15.701 11.806 0 18.173-6.5397 28.865-7.7714 10.013-1.1536 10.091 6.1014 16.494 8.5644 5.9515 2.2894 1.9342-9.8642 5.8682-13.798 10.243-10.243 17.763-10.799 17.763-29.5 0-23.44 7.605-43.551-12.371-56.144-18.812-11.86-30.72-26.291-54.241-17.922z"/>
    <path class="fil9" d="m123.36 100.14c-5.153 4.7849-9.7109 4.1556-12.688 11.895-0.5839 1.5182 0.4431 3.2943 1.2688 3.965 0.8356 0.6789 1.9392-1.7806 2.5376-2.379 4.1296-4.1296 14.274-4.1063 14.274-11.578 0-6.2538-0.6101-13.687-0.9516-20.301-0.2554-4.9479 1.9032-7.0543 1.9032-11.102 0-1.8574-1.81-0.4326-2.2204 0.6344-2.7523 7.1553 2.2 24.321-4.1236 28.865z"/>
    <path class="fil10" d="m61.822 27.664c-1.6662-0.476-11.219-0.3832-12.847 0.6344-4.8488 3.0311-12.371-8.2908-12.371 2.2204 0 17.895-12.961 11.9-16.336 23.156-0.9614 3.2067-1.9032 5.9388-1.9032 10.785 0 2.6692 2.6962 13.427 2.6962 8.8816 0-7.3802 0.9812-13.494 4.2822-18.239 2.9718-4.2722 7.5079-3.8702 10.943-6.6612 4.2501-3.4526 4.6269-13.18 8.4058-15.543 2.0752-1.2972 5.5697-2.0618 8.8816-2.0618 1.3826 0 8.9612-2.4054 8.2472-3.172z"/>
    <path class="fil10" d="m81.012 17.355c-1.9758 0.4234-4.7266 1.467-6.1854 2.379-4.5745 2.8596 6.0057 0.6344 7.4542 0.6344 3.7211 0 6.8746-0.1864 9.8332 0.9516 0.5747 0.2211 4.6971 3.2036 3.6478 0.4758-1.2619-3.2807-9.8298-4.4408-14.75-4.4408z"/>
    <path class="fil10" d="m17.414 90.787c1.0638-3.1916 2.7855 10.487 3.172 11.261 4.8135 9.6296 3.9802 8.6128 16.177 11.102 5.8366 1.1912 8.3317 8.7763 4.4408 6.344-2.3362-1.4605-8.5934-0.5357-11.736-1.7446-2.9387-1.1304-5.8676 0.0613-8.0886-1.9032-3.5434-3.1344-3.6323-5.5906-5.0752-10.785-1.4761-5.3136 1.2688-10.46 1.1102-14.274z"/>
    <path class="fil9" d="m58.174 126.47c-4.933-1.1383-5.1743-0.2399-1.7446 2.2204 4.0384 2.8968 24.583 2.7308 24.583-2.6962 0-2.3012-4.6411 0.4977-5.2338 0.6344-5.6765 1.3092-12.018 2.2323-17.605-0.1586z"/>
    <path class="fil10" d="m96.079 122.82c-1.6493 0-4.0148 0.6829-1.2688 1.4274 2.6205 0.7104 7.7107 3.4285 9.3574 5.0752 1.5274 1.5274 2.4379 4.3846 4.4408 5.0752 2.2142 0.7636 2.1866-2.4332 1.4274-3.6478-2.4515-3.9215-8.4623-7.7714-13.957-7.93z"/>
      <path class="fil2" d="m18.811 37.327l13.776-2.2634 12.944-4.8573c15.62-5.4397 32.456-7.1631 48.896-7.8349l15.083 0.2415c2.0645 0.1685 4.6463 0.5444 6.6199 1.4371 0.6609 0.2989 1.1912 0.7965 1.7466 1.2631l-0.198 0.2378c-4.051-1.1925-8.4607-1.0129-12.628-0.6831l-21.967 2.4347-22.437 3.5428-13.68 2.8176-13.78 3.9845c-4.7793 0.7398-9.5589 0.119-14.375-0.3204z"/>
     <path class="fil6" d="m18.811 37.327c8.4058 1.4274 19.984-2.2204 27.438-5.3924 8.8816-3.6478 64.867-12.054 71.529-6.5026"/>
      <path class="fil2" d="m116.98 25.591c-3.4972 2.5486-6.8591 5.2896-10.862 6.9347-4.3624 1.793-8.9995 2.9212-13.669 3.5875l-30.508 2.6139-28.634 2.498c-4.0583 0.7225-7.9857 2.2325-11.582 4.2465l-9.2825 7.4913-0.2782-0.1854c2.5769-3.3185 4.8872-6.888 8.3129-9.3205 3.5879-2.5477 7.6902-4.4405 11.964-5.4875l29.309-4.183 30.231-1.0935 13.372-2.4293 11.625-4.6727z"/>
     <path class="fil6" d="m116.98 25.591c-26.169 20.142-85.961-0.793-104.68 27.279"/>
      <path class="fil2" d="m12.308 52.87l5.4666 1.3979c2.3313 0.2786 4.7046 0.3238 7.0348 0.036l17.383-3.3241 25.471-7.8958c10.942-3.1828 22.164-5.3956 33.575-6.025l27.996 1.7846-0.0754 0.4564-27.585 1.1823-26.612 5.5166-13.593 3.9608c-12.894 3.2417-26.815 7.7023-40.386 6.4613-2.2388-0.2047-4.5331-0.6283-6.4899-1.735l-2.1841-1.816z"/>
     <path class="fil6" d="m12.308 52.87c11.102 8.4058 49.007-5.7096 62.013-9.1988 15.384-4.2822 38.54-7.2956 54.876-4.5994"/>
      <path class="fil2" d="m129.04 39.23l-30.159 8.6888-31.405 6.0374-35.087 10.498-10.919 1.6784 12.843-0.3678 30.934-4.5453 21.408-4.7504 33.087-2.3822c4.6032 0.0319 10.05 0.3277 14.577 1.762 1.5308 0.4849 2.8657 1.3876 4.2409 2.2167l-0.3268 0.3922-4.1883-1.5533-6.3848-0.7432-40.449 3.5244-21.11 5.3126-31.416 5.3672-20.878 0.6196c-1.6713-0.137-3.6163-1.0261-4.0921-2.7643-0.6444-2.3541 1.6001-4.0116 3.4514-4.8618 1.4677-0.674 3.018-1.1845 4.6072-1.4726l13.681-1.798 35.123-9.5745 31.916-5.0646 30.546-6.2196z"/>
     <path class="fil6" d="m129.04 39.23c-17.605 7.4542-42.663 8.0886-62.013 13.005-14.591 3.8064-31.561 10.785-46.787 11.736-4.9166 0.1586-14.115 4.758-2.6962 4.758 23.949 0 41.553-3.6478 64.55-9.6746 9.516-2.379 48.69-7.137 56.303-0.793"/>
      <path class="fil2" d="m138.55 59.055l-31.652 9.6425-33.533 3.2417-19.886 3.906-28.797 7.7256-4.2462 1.2291 7.545-0.8478 19.98-0.8879 34.121-5.9682 22.562-2.7762 10.894-1.9418c7.51-0.4458 15.254 0.3665 22.33 2.9777 2.0606 0.7605 2.8125 3.5529 0.9193 4.9266-0.4659 0.3381-0.9495 0.6927-1.5078 0.833l-12.318 2.2032-39.331 4.7359-18.417 4.7547-20.588 1.1703c-5.0815 0.5999-10.104 1.7283-14.754 3.8636l-9.213 5.684-4.5551 1.9555-0.1784-0.5498 8.5683-5.2911c3.1275-2.0214 6.0699-4.542 9.6475-5.5755l20.73-2.7438 18.945-3.5338 18.623-4.6678 37.527-4.7162 1.0815-0.289-2.9522-0.5742-14.09-0.7873-10.504 2.0421-22.593 3.0984-34.432 5.8105-20.111 0.6133-14.191 1.3683c-1.6246 0.0851-3.5934 0.0766-4.699-1.3116-1.087-1.3648 0.0357-3.1602 1.2591-3.9434 1.2893-0.8254 2.5881-1.7088 4.0544-2.1489l17.871-3.9536 30.129-8.2885 26.656-1.5278 33.895-5.0863 15.209-4.3715z"/>
     <path class="fil6" d="m138.55 59.055c-18.239 7.7714-44.884 11.419-65.185 11.419-13.798 0-27.121 6.8198-40.284 9.6746-6.1854 1.4274-11.261 1.2688-17.446 3.965-14.433 6.6612 9.8332 1.7446 15.384 1.9032 22.997 1.2688 45.677-7.137 68.674-8.723 7.2956-0.4758 13.957-3.4892 21.728-2.8548 11.736 0.793 28.548 4.1236 3.3306 6.9784l-30.134 3.3306c-13.005 1.4274-23.473 7.7714-37.747 7.7714-6.9784 0-13.798 0.3172-20.459 2.379-6.8198 2.2204-12.529 8.4058-18.398 10.309"/>
      <polygon class="fil2" points="17.701 105.21 32.475 102.26 68.254 98.818 110.7 94.018 132.42 97.009 132.32 97.547 110.79 97.123 68.999 103.46 32.466 104.79"/>
     <path class="fil6" d="m17.701 105.21c8.8816-2.8548 20.618-1.1102 29.658-1.586 28.707-1.586 55.669-12.212 85.01-6.344"/>
      <path class="fil2" d="m132.37 97.278c-4.852 2.8121-9.469 6.1999-14.885 7.6555l-31.471 4.8585-23.696 3.0762c-8.1567 2.3185-16.533 4.6137-23.968 8.8309-1.5196 0.862-2.7341 1.8868-3.7991 3.2407l-0.3926-0.1308c0.7512-2.6312 2.9291-4.5063 5.2268-5.9213l10.459-5.4806 16.152-5.7183 19.692-2.6913 31.066-2.7861 15.616-4.9334z"/>
     <path class="fil6" d="m132.37 97.278c-20.142 11.736-41.077 8.2472-62.488 11.736-6.8198 0.9516-33.306 9.1988-35.526 15.86"/>
      <path class="fil2" d="m34.354 125.51l20.841-1.5723 22.468-7.9656c3.4474-0.933 7.1177-0.5883 10.688-0.6647l15.309-0.1479c4.0117 0.1211 8.9945 0.1041 12.51 2.5082 1.0122 0.6922 1.3668 1.5952 1.4338 2.7379l-0.6038 0.0584c-0.8689-1.7897-2.879-2.2241-4.762-2.3909l-8.4592 0.0985-15.217 1.3638-9.9693 1.2385-22.892 6.6256c-7.1122 0.8772-14.239-0.9708-21.346-1.8895z"/>
     <path class="fil6" d="m34.354 125.51c8.2472 0 12.847 1.4274 21.094 0.1586 7.6128-1.1102 15.226-5.8682 22.68-7.2956 4.9166-0.9516 15.543-1.1102 21.252-1.4274 3.8064-0.3172 17.446-1.4274 17.922 3.4892"/>
    <path class="fil0 str0" d="m209.74 12.655c-37.548 8.6641-50.451 32.779-50.451 70.758 0 61.624 97.202 74.038 119.3 29.826 11.205-22.413 15.742-49.954 0.9519-73.614-11.069-17.708-42.923-35.612-69.806-26.97zm16.654 42.766c-11.696-5.3982-19.618 5.7096-24.9 12.212-5.9397 7.3116 1.8529 23.429 8.5644 26.01 6.6848 2.5713 9.4869 5.9656 19.032 3.965 14.064-2.9477 17.446-10.754 17.446-25.535 0-10.271-12.594-14.348-20.142-16.653z"/>
    <path class="fil7" d="m216.91 17.275c-9.6723-5.2081-43.338 12.567-43.338 21.669 0 13.002-9.6778 24.647-9.9227 35.216-0.0698 3.0134-1.6019 6.0186-1.3263 8.8283 1.8 18.346 12.106 32.18 20.989 40.68 1.0668 1.0206 4.5113-0.0121 5.7675 0.8765 1.4656 1.0369 3.1652 4.9662 4.9107 5.8238 4.6798 2.2991 10.735 2.9546 17.77 4.1823 3.4357 0.5996 6.8964 2.5898 10.948 2.5514 2.563-0.0242 5.0782-3.5288 7.9183-3.5288 2.5882 0 6.5965 3.4517 9.8555 2.2721 4.1248-1.493 8.4172-6.6714 13.032-9.4286 15.074-9.0074 28.375-25.745 29.199-36.281 0.1757-2.2485 1.923-4.0037 1.8669-6.2499-0.07-2.7992-1.5218-5.295-1.9596-8.0646-2.4943-15.78-4.9891-38.734-17.008-49.637-11.263-10.217-31.56-8.8923-48.702-8.9088zm-9.3436 40.754c-1.8724 1.652-2.2061 4.0484-3.3662 5.359-1.1602 1.3106-3.1472 1.536-3.7556 2.6848-2.4058 4.5426-1.1284 8.5247-1.1284 17.502 0 5.9792 5.9944 9.5327 12.764 12.8 6.1634 2.9751 13.245 6.711 17.851 3.7994 8.9984-5.6878 14.94-5.8383 17.793-18.389 2.8733-12.643-4.4514-20.83-14.049-25.342-2.308-1.085-0.9579-2.1057-3.4365-2.7084-6.334-1.5402-16.783-0.902-22.672 4.294z"/>
    <path class="fil8 str0" d="m216.24 15.454c-10.63 4.9061-14.136 3.965-25.217 3.965-15.443 0-2.9097 9.2537-9.3574 15.701-18.584 18.584-14.591 10.174-14.591 39.967 0 6.8365-10.891 41.236 8.4058 41.236 18.688 0 22.786 15.701 38.381 15.701 11.806 0 18.173-6.5397 28.865-7.7714 10.013-1.1536 10.091 6.1014 16.494 8.5644 5.9515 2.2894 1.9342-9.8642 5.8682-13.798 10.243-10.243 17.763-10.799 17.763-29.5 0-23.44 7.605-43.551-12.371-56.144-18.812-11.86-30.72-26.291-54.241-17.922zm-0.6216 38.738c-10.76 2.8688-19.679 8.4929-19.679 22.799 0 7.8793 13.057 26.086 21.252 23.949 4.7136-1.2291 20.327-1.935 22.363-4.4408 3.4388-4.2332 14.674-16.802 10.468-25.217-1.7015-3.4038-8.7992-9.3018-9.1988-12.371-0.4389-3.3703-0.6044-6.6925-2.6343-7.8493-2.0225-1.1526-4.4979 0.6662-7.5311 1.0995-5.0553 0.7223-11.097 0.98-15.039 2.0311z"/>
    <path class="fil10" d="m211.32 24.335c-1.6662-0.476-11.219-0.3832-12.847 0.6344-4.8488 3.0311-12.371-8.2908-12.371 2.2204 0 17.895-12.961 11.9-16.336 23.156-0.9614 3.2067-1.9032 5.9388-1.9032 10.785 0 2.6692 2.6962 13.427 2.6962 8.8816 0-7.3802 0.9812-13.494 4.2822-18.239 2.9718-4.2722 7.5079-3.8702 10.943-6.6612 4.2501-3.4526 4.6269-13.18 8.4058-15.543 2.0752-1.2972 5.5697-2.0618 8.8816-2.0618 1.3826 0 8.9612-2.4054 8.2472-3.172z"/>
    <path class="fil10" d="m230.51 14.026c-1.9758 0.4234-4.7266 1.467-6.1854 2.379-4.5745 2.8596 6.0057 0.6344 7.4542 0.6344 3.7211 0 6.8746-0.1864 9.8332 0.9516 0.5747 0.2211 4.6971 3.2036 3.6478 0.4758-1.2619-3.2807-9.8298-4.4408-14.75-4.4408z"/>
    <path class="fil10" d="m166.92 87.458c1.0638-3.1916 2.7855 10.487 3.172 11.261 4.8135 9.6296 3.9802 8.6128 16.177 11.102 5.8366 1.1912 8.3317 8.7763 4.4408 6.344-2.3362-1.4605-8.5934-0.5357-11.736-1.7446-2.9387-1.1304-5.8676 0.0613-8.0886-1.9032-3.5434-3.1344-3.6323-5.5906-5.0752-10.785-1.4761-5.3136 1.2688-10.46 1.1102-14.274z"/>
    <path class="fil9" d="m207.68 123.14c-4.933-1.1383-5.1743-0.2399-1.7446 2.2204 4.0384 2.8968 24.583 2.7308 24.583-2.6962 0-2.3012-4.6411 0.4977-5.2338 0.6344-5.6765 1.3092-12.018 2.2323-17.605-0.1586z"/>
    <path class="fil10" d="m245.58 119.5c-1.6493 0-4.0148 0.6829-1.2688 1.4274 2.6205 0.7104 7.7107 3.4285 9.3574 5.0752 1.5274 1.5274 2.4379 4.3846 4.4408 5.0752 2.2142 0.7636 2.1866-2.4332 1.4274-3.6478-2.4515-3.9215-8.4623-7.7714-13.957-7.93z"/>
    <path class="fil10" d="m258.74 65.571c-2.8679 0.2206-2.0618 8.7074-2.0618 11.419 0 14.751-18.449 29.862-31.244 30.927-6.6101 0.5499-11.647 0.1586-18.08 0.1586-10.024 0 8.7509 3.4892 13.481 3.4892 8.6653 0 16.774-4.2822 26.328-4.2822 5.6655 0 5.9394-0.7581 6.344-6.0268 0.8585-11.181 9.4175-23.61 5.2338-35.685z"/>
    <path class="fil9" d="m272.86 98.084c-5.153 4.7849-9.7109 4.1556-12.688 11.895-0.5839 1.5182 0.4431 3.2943 1.2688 3.965 0.8356 0.6789 1.9392-1.7806 2.5376-2.379 4.1296-4.1296 14.274-4.1063 14.274-11.578 0-6.2538-0.6101-13.687-0.9516-20.301-0.2554-4.9479 1.9032-7.0543 1.9032-11.102 0-1.8574-1.81-0.4326-2.2204 0.6344-2.7523 7.1553 2.2 24.321-4.1236 28.865z"/>
    <path class="fil9" d="m245.3 61.486c6.0525 7.8683-0.5596-5.2958-0.9516-6.1854-1.7205-3.9048 0.0173-10.468-4.5994-10.468-6.6458 0-16.805 1.323-23.473-0.1586-9.4704-2.1045-13.936 10.13-17.287 13.481-3.8466 3.8466-5.7139 3.8329-9.1988 10.15-2.0437 3.7048-0.2999 10.535 1.7446 12.847 0.8145 0.9209 7.1892 8.0127 4.758 4.1236-2.6949-4.3107-0.5139-17.21 1.4274-21.094 3.0236-6.0488 18.381-14.115 26.169-14.115 4.084 0 12.287-4.0713 15.86-1.586 2.1741 1.5124 2.4837 13.005 5.551 13.005z"/>
     <path class="fil2" d="m168.66 39.878l41.859-10.918 35.536-3.3375 16.696-0.1815c1.8681-0.0548 4.6471-0.6408 6.2807 0.7053 0.6598 0.5437 0.9349 1.5756 0.6198 2.373-0.4326 1.0947-1.5138 1.7299-2.538 2.1893-4.9259 2.2098-10.224 3.8354-15.508 4.9175l-27.452 4.1084-27.312 5.7201-17.592 2.9095-11.018 3.1426c-0.3043 0.1121-0.5932 0.2549-0.8725 0.417l7.3425-0.8544 29.87-1.852 37.296-7.5968c8.2206-1.8385 16.519-4.3868 25.054-4.2905l11.376 1.9338-0.0924 0.2772-11.239-0.8566-24.459 5.2354-37.479 8.6647-29.764 2.46-10.167 1.2851c-1.0676 0.0314-2.3923-0.0963-3.0508-1.0728-1.619-2.4008 0.0348-5.1864 2.2229-6.5105 4.215-2.5507 9.2649-3.7788 14.02-4.8246l17.803-3.2462 27.299-5.6053 27.272-3.5949 7.688-2.2675-12.612-0.1327-34.566 2.3721-42.516 8.431z"/>
    <path class="fil6" d="m168.66 39.878c14.274-1.7446 28.231-6.1854 42.188-9.6746 11.419-3.0134 22.838-3.8064 35.051-2.8548 5.2338 0.4758 11.736 0.3172 16.97 0 15.543-0.9516-10.15 6.1854-14.115 6.6612-16.336 1.9032-33.782 4.2822-49.483 8.5644-3.965 0.9516-38.857 4.758-35.526 11.419 0.4758 0.9516 12.371-1.2688 14.115-1.2688 18.556 0 35.526-2.5376 53.29-6.9784 13.322-3.172 33.306-10.943 47.104-6.344"/>
     <path class="fil2" d="m275.56 41.147l-22.386 6.935-21.591 3.9012-30.344 6.6179-8.7131 2.7553-22.258 7.7654 1.9021-0.0114 22.566 0.7179c1.1759 0.1123 3.0588 0.1808 4.0604 1.0021 0.0804 0.0659 0.1178 0.1475 0.1533 0.2412l-0.3064 0.1016c-0.0741 0.0182-0.2111-0.0522-0.2833-0.0615l-7.7626 0.0127-20.933 1.0428-9.5821 1.0195c-1.465 0.1512-2.5276-1.1923-1.9674-2.5596 0.2595-0.6333 0.956-1.0171 1.5269-1.3088l9.5812-4.1828 21.738-8.3245 9.1988-2.9841 30.242-5.4357 22.5-2.998 22.656-4.2462zm-115.72 28.543l-0.0174-3e-4 -0.0289 3e-3 0.0463-0.0027z"/>
    <path class="fil6" d="m275.56 41.147c-14.908 7.4542-30.293 4.4408-44.567 9.0402-9.0402 3.0134-20.777 3.965-30.293 6.0268-4.9166 1.1102-44.408 15.384-40.76 15.226l9.6746-0.793c4.758-0.1586 28.707-0.9516 29.182 0.4758"/>
     <path class="fil2" d="m197.68 73.501l-11.247 5.0802-11.35 5.4275c-3.9299 1.6388-8.1831 2.7092-11.771 5.08l0.6943 0.0254 28.443-2.2818c2.784-0.0915 6.2393-0.1519 9.0106 0.7295 1.4533 0.4622 2.6949 1.7 2.0321 3.2974-0.3115 0.7508-1.1538 1.3848-1.8238 1.7167-5.0575 2.5058-10.755 2.7703-16.01 4.6619l-12.178 5.6062 0.2475-0.0231 20.518-3.242 52.125-2.3471 23.86-0.1953c3.16 0.0781 6.9986 0.0618 10.001 1.3769 0.7657 0.3354 1.1893 1.5185 1.1237 2.297-0.1988 2.358-3.1312 3.0602-4.9737 3.4553l-32.062 6.1445-34.556 7.0594-11.41 4.8176c-3.5179 1.839-6.6825 4.0472-8.7808 7.454l-0.2088 0.5366 0.2545 0.0071c3.5921-0.2111 7.751-2.2049 10.736-3.3277l12.233-4.6174 24.985-5.474 17.518-0.3717c2.605 0.1604 5.1848 0.7443 7.6602 1.5715l6.2201 3.1545-0.1584 0.239-6.3297-2.4747c-2.4533-0.637-4.9762-1.0866-7.5104-1.1361l-17.131 0.9857-30.451 8.2456-13.51 5.5068c-1.8999 0.6996-4.4185 1.3123-6.3801 0.4695-1.0453-0.4491-1.7869-1.9634-1.4113-3.0696 0.4232-1.2465 0.8618-2.5194 1.6773-3.5528 3.2787-4.1544 8.029-7.1088 12.84-9.2036l14.607-5.2027 48.863-10.006-7.8919 0.0704-44.221 0.5477-33.897 3.5022c-2.8863 0.3666-5.753 1.1326-8.6845 0.8277-1.3346-0.1388-2.5794-1.029-2.6347-2.4488-0.0352-0.9042 0.5136-1.7747 1.1688-2.3535 0.9183-0.8113 1.9049-1.5671 3.0027-2.1114l13.622-6.0037 10.286-2.3972 4.1419-1.2419 0.2248-0.0992c-2.2144-0.3835-4.4351-0.4757-6.7081-0.4459l-26.276 1.5478c-1.574 0.0905-4.251 0.5194-5.5383-0.8151-0.5204-0.5395-0.4294-1.4633 0.0191-2.0133 0.752-0.9222 1.929-1.6079 3.005-2.0626l10.906-4.082 11.25-4.8419 11.829-3.9996zm-35.223 16.272l-9e-4 0.0011-3e-3 0.0073 0.0039-0.0084z"/>
    <path class="fil6" d="m197.68 73.501c-8.4058 1.4274-14.75 7.4542-22.838 9.6746-3.6478 1.1102-21.887 7.7714-8.723 6.9784l20.301-1.586c17.763-1.2688 22.997 2.0618 2.2204 6.0268-7.4542 1.4274-33.623 13.957-10.943 9.516 21.728-4.1236 46.47-4.4408 68.674-4.4408 5.8682 0 49.007-1.586 25.852 3.0134l-56.62 11.102c-6.8198 1.4274-22.363 7.2956-26.486 13.481-6.9784 9.9918 12.529 0.4758 17.763-1.586 14.115-5.551 47.421-14.115 62.013-4.4408"/>
     <path class="fil2" d="m237.18 58.91c5.1923-2.2781 10.294-4.6457 15.86-5.7254 2.3313-0.4522 4.7594 0.8594 7.0427 1.0258l8.0861-0.486c6.1536-0.3761 13.135-1.4762 19.051 1.0921 1.1115 0.4825 2.1755 1.1713 2.9224 2.1254l0.8222 1.5257-0.3554 0.2504c-1.8213-1.0736-3.5454-2.0335-5.7267-2.1495l-7.7682 0.2905-15.351 2.2137c-1.6669 0.0791-3.2646-0.6465-4.8744-1.0865-1.2779-0.3493-2.5248-1.015-3.8486-0.9636l-15.86 1.8874z"/>
    <path class="fil6" d="m237.18 58.91c4.4408-1.7446 10.943-3.8064 15.86-3.8064 3.0134 0 5.8682 1.586 8.723 1.586 6.8198 0 24.107-5.0752 29.024 1.9032"/>
     <path class="fil2" d="m289.2 60.972c-1.6372 2.1791-3.1658 4.6581-5.584 6.0863l-3.1837 1.2878-9.6849 3.5841-11.108 2.154-6.9829 1.1306-7.4878 1.8051-0.1182-0.3758 6.4684-4.0369 7.9261-2.5434 9.7514-2.6198 10.691-2.4269 2.4111-0.5172 1.9813-1.0523 4.9203-2.4756z"/>
    <path class="fil6" d="m289.2 60.972c-3.4892 2.2204-4.5994 4.9166-9.0402 5.7096-6.9784 1.1102-13.322 5.0752-20.618 5.3924-6.1854 0.3172-8.8816 3.0134-14.433 4.758"/>
     <path class="fil2" d="m245.1 77.149l24.94-3.1179c5.1274-0.6249 11.02-1.3895 15.592 1.6764 1.6453 1.1034 2.7859 2.7549 4.0548 4.2762l-0.3574 0.3574c-2.2041-1.1324-4.4124-2.5735-6.9114-2.9812-2.1101-0.3443-4.2647-0.1117-6.385 0.1629l-18.141 2.2738-12.792-2.6476z"/>
    <path class="fil6" d="m245.1 77.149c8.4058 1.7446 16.97 0.6344 25.376-0.793 7.6128-1.4274 13.005-2.2204 19.032 3.8064"/>
     <path class="fil2" d="m288.24 82.224l-5.1055 2.9264c-1.8525 0.9928-3.6559 2.2083-5.7168 2.6203l-21.849 1.9239-7.0208-0.8074c-1.9826-0.1637-4.2824-0.3769-5.9827 0.839l-0.3206-0.096c0.0453-1.1975 0.9271-2.0079 2.0575-2.4287 3.6596-1.3624 7.4371-1.0812 11.267-1.3461l21.29-1.5653 5.2664-1.4241c2.0171-0.4941 4.0391-0.5953 6.1153-0.642z"/>
    <path class="fil6" d="m288.24 82.224c-3.6478 0.3172-7.6128 3.172-11.102 3.8064-7.137 1.1102-14.274 1.9032-21.57 1.7446-2.2204 0-12.212-1.2688-13.164 1.9032"/>
    <path class="fil0 str0" d="m210.74 312.66c-37.548 8.6641-50.451 32.779-50.451 70.758 0 61.624 97.202 74.038 119.3 29.826 11.205-22.413 15.742-49.954 0.9519-73.614-11.069-17.708-42.923-35.612-69.806-26.97zm16.654 42.766c-11.696-5.3982-19.618 5.7096-24.9 12.212-5.9397 7.3116 1.8529 23.429 8.5644 26.01 6.6848 2.5713 9.4869 5.9656 19.032 3.965 14.064-2.9477 17.446-10.754 17.446-25.535 0-10.271-12.594-14.348-20.142-16.653z"/>
    <path class="fil7" d="m217.91 317.28c-9.6723-5.2081-43.338 12.567-43.338 21.669 0 13.002-9.6778 24.647-9.9227 35.216-0.0698 3.0134-1.6019 6.0186-1.3263 8.8283 1.8 18.346 12.106 32.18 20.989 40.68 1.0668 1.0206 4.5113-0.0121 5.7675 0.8765 1.4656 1.0369 3.1652 4.9662 4.9107 5.8238 4.6798 2.2991 10.735 2.9546 17.77 4.1823 3.4357 0.5996 6.8964 2.5898 10.948 2.5514 2.563-0.0242 5.0782-3.5288 7.9183-3.5288 2.5882 0 6.5965 3.4517 9.8555 2.2721 4.1248-1.493 8.4172-6.6714 13.032-9.4286 15.074-9.0074 28.375-25.745 29.199-36.281 0.1757-2.2485 1.923-4.0037 1.8669-6.2499-0.07-2.7992-1.5218-5.295-1.9596-8.0646-2.4943-15.78-4.9891-38.734-17.008-49.637-11.263-10.217-31.56-8.8923-48.702-8.9088zm-9.3436 40.754c-1.8724 1.652-2.2061 4.0484-3.3662 5.359-1.1602 1.3106-3.1472 1.536-3.7556 2.6848-2.4058 4.5426-1.1284 8.5247-1.1284 17.502 0 5.9792 5.9944 9.5327 12.764 12.8 6.1634 2.9751 13.245 6.711 17.851 3.7994 8.9984-5.6878 14.94-5.8383 17.793-18.389 2.8733-12.643-4.4514-20.83-14.049-25.342-2.308-1.085-0.9579-2.1057-3.4365-2.7084-6.334-1.5402-16.783-0.902-22.672 4.294z"/>
    <path class="fil11 str0" d="m217.24 315.45c-10.63 4.9061-14.136 3.965-25.217 3.965-15.443 0-2.9097 9.2537-9.3574 15.701-18.584 18.584-14.591 10.174-14.591 39.967 0 6.8365-10.891 41.236 8.4058 41.236 18.688 0 22.786 15.701 38.381 15.701 11.806 0 18.173-6.5397 28.865-7.7714 10.013-1.1536 10.091 6.1014 16.494 8.5644 5.9515 2.2894 1.9342-9.8642 5.8682-13.798 10.243-10.243 17.763-10.799 17.763-29.5 0-23.44 7.605-43.551-12.371-56.144-18.812-11.86-30.72-26.291-54.241-17.922zm-0.6216 38.738c-10.76 2.8688-19.679 8.4929-19.679 22.799 0 7.8793 13.057 26.086 21.252 23.949 4.7136-1.2291 20.327-1.935 22.363-4.4408 3.4388-4.2332 14.674-16.802 10.468-25.217-1.7015-3.4038-8.7992-9.3018-9.1988-12.371-0.4389-3.3703-0.6044-6.6925-2.6343-7.8493-2.0225-1.1526-4.4979 0.6662-7.5311 1.0995-5.0553 0.7223-11.097 0.98-15.039 2.0311z"/>
    <path class="fil12" d="m212.33 324.34c-1.6662-0.476-11.219-0.3832-12.847 0.6344-4.8488 3.0311-12.371-8.2908-12.371 2.2204 0 17.895-12.961 11.9-16.336 23.156-0.9614 3.2067-1.9032 5.9388-1.9032 10.785 0 2.6692 2.6962 13.427 2.6962 8.8816 0-7.3802 0.9812-13.494 4.2822-18.239 2.9718-4.2722 7.5079-3.8702 10.943-6.6612 4.2501-3.4526 4.6269-13.18 8.4058-15.543 2.0752-1.2972 5.5697-2.0618 8.8816-2.0618 1.3826 0 8.9612-2.4054 8.2472-3.172z"/>
    <path class="fil12" d="m231.52 314.03c-1.9758 0.4234-4.7266 1.467-6.1854 2.379-4.5745 2.8596 6.0057 0.6344 7.4542 0.6344 3.7211 0 6.8746-0.1864 9.8332 0.9516 0.5747 0.2211 4.6971 3.2036 3.6478 0.4758-1.2619-3.2807-9.8298-4.4408-14.75-4.4408z"/>
    <path class="fil12" d="m167.92 387.46c1.0638-3.1916 2.7855 10.487 3.172 11.261 4.8135 9.6296 3.9802 8.6128 16.177 11.102 5.8366 1.1912 8.3317 8.7763 4.4408 6.344-2.3362-1.4605-8.5934-0.5357-11.736-1.7446-2.9387-1.1304-5.8676 0.0613-8.0886-1.9032-3.5434-3.1344-3.6323-5.5906-5.0752-10.785-1.4761-5.3136 1.2688-10.46 1.1102-14.274z"/>
    <path class="fil12" d="m208.68 423.14c-4.933-1.1383-5.1743-0.2399-1.7446 2.2204 4.0384 2.8968 24.583 2.7308 24.583-2.6962 0-2.3012-4.6411 0.4977-5.2338 0.6344-5.6765 1.3092-12.018 2.2323-17.605-0.1586z"/>
    <path class="fil12" d="m246.58 419.5c-1.6493 0-4.0148 0.6829-1.2688 1.4274 2.6205 0.7104 7.7107 3.4285 9.3574 5.0752 1.5274 1.5274 2.4379 4.3846 4.4408 5.0752 2.2142 0.7636 2.1866-2.4332 1.4274-3.6478-2.4515-3.9215-8.4623-7.7714-13.957-7.93z"/>
    <path class="fil12" d="m259.75 365.57c-2.8679 0.2206-2.0618 8.7074-2.0618 11.419 0 14.751-18.449 29.862-31.244 30.927-6.6101 0.5499-11.647 0.1586-18.08 0.1586-10.024 0 8.7509 3.4892 13.481 3.4892 8.6653 0 16.774-4.2822 26.328-4.2822 5.6655 0 5.9394-0.7581 6.344-6.0268 0.8585-11.181 9.4175-23.61 5.2338-35.685z"/>
    <path class="fil13" d="m273.86 398.08c-5.153 4.7849-9.7109 4.1556-12.688 11.895-0.5839 1.5182 0.4431 3.2943 1.2688 3.965 0.8356 0.6789 1.9392-1.7806 2.5376-2.379 4.1296-4.1296 14.274-4.1063 14.274-11.578 0-6.2538-0.6101-13.687-0.9516-20.301-0.2554-4.9479 1.9032-7.0543 1.9032-11.102 0-1.8574-1.81-0.4326-2.2204 0.6344-2.7523 7.1553 2.2 24.321-4.1236 28.865z"/>
    <path class="fil13" d="m246.31 361.49c6.0525 7.8683-0.5596-5.2958-0.9516-6.1854-1.7205-3.9048 0.0173-10.468-4.5994-10.468-6.6458 0-16.805 1.323-23.473-0.1586-9.4704-2.1045-13.936 10.13-17.287 13.481-3.8466 3.8466-5.7139 3.8329-9.1988 10.15-2.0437 3.7048-0.2999 10.535 1.7446 12.847 0.8145 0.9209 7.1892 8.0127 4.758 4.1236-2.6949-4.3107-0.5139-17.21 1.4274-21.094 3.0236-6.0488 18.381-14.115 26.169-14.115 4.084 0 12.287-4.0713 15.86-1.586 2.1741 1.5124 2.4837 13.005 5.551 13.005z"/>
      <path class="fil10" d="m168.66 339.36l41.859-10.918 35.536-3.3375 16.696-0.1815c1.8681-0.0548 4.6471-0.6408 6.2807 0.7053 0.6598 0.5437 0.9349 1.5756 0.6198 2.373-0.4326 1.0947-1.5138 1.7299-2.538 2.1893-4.9259 2.2098-10.224 3.8354-15.508 4.9175l-27.452 4.1084-27.312 5.7201-17.592 2.9095-11.018 3.1426c-0.3043 0.1121-0.5932 0.2549-0.8725 0.417l7.3425-0.8544 29.87-1.852 37.296-7.5968c8.2206-1.8385 16.519-4.3868 25.054-4.2905l11.376 1.9338-0.0924 0.2772-11.239-0.8566-24.459 5.2354-37.479 8.6647-29.764 2.46-10.167 1.2851c-1.0676 0.0314-2.3923-0.0963-3.0508-1.0728-1.619-2.4008 0.0348-5.1864 2.2229-6.5105 4.215-2.5507 9.2649-3.7788 14.02-4.8246l17.803-3.2462 27.299-5.6053 27.272-3.5949 7.688-2.2675-12.612-0.1327-34.566 2.3721-42.516 8.431z"/>
     <path class="fil6" d="m168.66 339.36c14.274-1.7446 28.231-6.1854 42.188-9.6746 11.419-3.0134 22.838-3.8064 35.051-2.8548 5.2338 0.4758 11.736 0.3172 16.97 0 15.543-0.9516-10.15 6.1854-14.115 6.6612-16.336 1.9032-33.782 4.2822-49.483 8.5644-3.965 0.9516-38.857 4.758-35.526 11.419 0.4758 0.9516 12.371-1.2688 14.115-1.2688 18.556 0 35.526-2.5376 53.29-6.9784 13.322-3.172 33.306-10.943 47.104-6.344"/>
      <path class="fil10" d="m275.56 340.63l-22.386 6.935-21.591 3.9012-30.344 6.6179-8.7131 2.7553-22.258 7.7654 1.9021-0.0114 22.566 0.7179c1.1759 0.1123 3.0588 0.1808 4.0604 1.0021 0.0804 0.0659 0.1178 0.1475 0.1533 0.2412l-0.3064 0.1016c-0.0741 0.0182-0.2111-0.0522-0.2833-0.0615l-7.7626 0.0127-20.933 1.0428-9.5821 1.0195c-1.465 0.1512-2.5276-1.1923-1.9674-2.5596 0.2595-0.6333 0.956-1.0171 1.5269-1.3088l9.5812-4.1828 21.738-8.3245 9.1988-2.9841 30.242-5.4357 22.5-2.998 22.656-4.2462zm-115.72 28.543l-0.0174-3e-4 -0.0289 3e-3 0.0463-0.0027z"/>
     <path class="fil6" d="m275.56 340.63c-14.908 7.4542-30.293 4.4408-44.567 9.0402-9.0402 3.0134-20.777 3.965-30.293 6.0268-4.9166 1.1102-44.408 15.384-40.76 15.226l9.6746-0.793c4.758-0.1586 28.707-0.9516 29.182 0.4758"/>
      <path class="fil10" d="m197.68 372.99l-11.247 5.0802-11.35 5.4275c-3.9299 1.6388-8.1831 2.7092-11.771 5.08l0.6943 0.0254 28.443-2.2818c2.784-0.0915 6.2393-0.1519 9.0106 0.7295 1.4533 0.4622 2.6949 1.7 2.0321 3.2974-0.3115 0.7508-1.1538 1.3848-1.8238 1.7167-5.0575 2.5058-10.755 2.7703-16.01 4.6619l-12.178 5.6062 0.2475-0.0231 20.518-3.242 52.125-2.3471 23.86-0.1953c3.16 0.0781 6.9986 0.0618 10.001 1.3769 0.7657 0.3354 1.1893 1.5185 1.1237 2.297-0.1988 2.358-3.1312 3.0602-4.9737 3.4553l-32.062 6.1445-34.556 7.0594-11.41 4.8176c-3.5179 1.839-6.6825 4.0472-8.7808 7.454l-0.2088 0.5366 0.2545 0.0071c3.5921-0.2111 7.751-2.2049 10.736-3.3277l12.233-4.6174 24.985-5.474 17.518-0.3717c2.605 0.1604 5.1848 0.7443 7.6602 1.5715l6.2201 3.1545-0.1584 0.239-6.3297-2.4747c-2.4533-0.637-4.9762-1.0866-7.5104-1.1361l-17.131 0.9857-30.451 8.2456-13.51 5.5068c-1.8999 0.6996-4.4185 1.3123-6.3801 0.4695-1.0453-0.4491-1.7869-1.9634-1.4113-3.0696 0.4232-1.2465 0.8618-2.5194 1.6773-3.5528 3.2787-4.1544 8.029-7.1088 12.84-9.2036l14.607-5.2027 48.863-10.006-7.8919 0.0704-44.221 0.5477-33.897 3.5022c-2.8863 0.3666-5.753 1.1326-8.6845 0.8277-1.3346-0.1388-2.5794-1.029-2.6347-2.4488-0.0352-0.9042 0.5136-1.7747 1.1688-2.3535 0.9183-0.8113 1.9049-1.5671 3.0027-2.1114l13.622-6.0037 10.286-2.3972 4.1419-1.2419 0.2248-0.0992c-2.2144-0.3835-4.4351-0.4757-6.7081-0.4459l-26.276 1.5478c-1.574 0.0905-4.251 0.5194-5.5383-0.8151-0.5204-0.5395-0.4294-1.4633 0.0191-2.0133 0.752-0.9222 1.929-1.6079 3.005-2.0626l10.906-4.082 11.25-4.8419 11.829-3.9996zm-35.223 16.272l-9e-4 0.0011-3e-3 0.0073 0.0039-0.0084z"/>
     <path class="fil6" d="m197.68 372.99c-8.4058 1.4274-14.75 7.4542-22.838 9.6746-3.6478 1.1102-21.887 7.7714-8.723 6.9784l20.301-1.586c17.763-1.2688 22.997 2.0618 2.2204 6.0268-7.4542 1.4274-33.623 13.957-10.943 9.516 21.728-4.1236 46.47-4.4408 68.674-4.4408 5.8682 0 49.007-1.586 25.852 3.0134l-56.62 11.102c-6.8198 1.4274-22.363 7.2956-26.486 13.481-6.9784 9.9918 12.529 0.4758 17.763-1.586 14.115-5.551 47.421-14.115 62.013-4.4408"/>
      <path class="fil10" d="m237.18 358.4c5.1923-2.2781 10.294-4.6457 15.86-5.7254 2.3313-0.4522 4.7594 0.8594 7.0427 1.0258l8.0861-0.486c6.1536-0.3761 13.135-1.4762 19.051 1.0921 1.1115 0.4825 2.1755 1.1713 2.9224 2.1254l0.8222 1.5257-0.3554 0.2504c-1.8213-1.0736-3.5454-2.0335-5.7267-2.1495l-7.7682 0.2905-15.351 2.2137c-1.6669 0.0791-3.2646-0.6465-4.8744-1.0865-1.2779-0.3493-2.5248-1.015-3.8486-0.9636l-15.86 1.8874z"/>
     <path class="fil6" d="m237.18 358.4c4.4408-1.7446 10.943-3.8064 15.86-3.8064 3.0134 0 5.8682 1.586 8.723 1.586 6.8198 0 24.107-5.0752 29.024 1.9032"/>
      <path class="fil10" d="m289.2 360.46c-1.6372 2.1791-3.1658 4.6581-5.584 6.0863l-3.1837 1.2878-9.6849 3.5841-11.108 2.154-6.9829 1.1306-7.4878 1.8051-0.1182-0.3758 6.4684-4.0369 7.9261-2.5434 9.7514-2.6198 10.691-2.4269 2.4111-0.5172 1.9813-1.0523 4.9203-2.4756z"/>
     <path class="fil6" d="m289.2 360.46c-3.4892 2.2204-4.5994 4.9166-9.0402 5.7096-6.9784 1.1102-13.322 5.0752-20.618 5.3924-6.1854 0.3172-8.8816 3.0134-14.433 4.758"/>
      <path class="fil10" d="m245.1 376.63l24.94-3.1179c5.1274-0.6249 11.02-1.3895 15.592 1.6764 1.6453 1.1034 2.7859 2.7549 4.0548 4.2762l-0.3574 0.3574c-2.2041-1.1324-4.4124-2.5735-6.9114-2.9812-2.1101-0.3443-4.2647-0.1117-6.385 0.1629l-18.141 2.2738-12.792-2.6476z"/>
     <path class="fil6" d="m245.1 376.63c8.4058 1.7446 16.97 0.6344 25.376-0.793 7.6128-1.4274 13.005-2.2204 19.032 3.8064"/>
      <path class="fil10" d="m288.24 381.71l-5.1055 2.9264c-1.8525 0.9928-3.6559 2.2083-5.7168 2.6203l-21.849 1.9239-7.0208-0.8074c-1.9826-0.1637-4.2824-0.3769-5.9827 0.839l-0.3206-0.096c0.0453-1.1975 0.9271-2.0079 2.0575-2.4287 3.6596-1.3624 7.4371-1.0812 11.267-1.3461l21.29-1.5653 5.2664-1.4241c2.0171-0.4941 4.0391-0.5953 6.1153-0.642z"/>
     <path class="fil6" d="m288.24 381.71c-3.6478 0.3172-7.6128 3.172-11.102 3.8064-7.137 1.1102-14.274 1.9032-21.57 1.7446-2.2204 0-12.212-1.2688-13.164 1.9032"/>
    <path class="fil0 str0" d="m60.095 312.66c-37.548 8.6641-50.451 32.779-50.451 70.758 0 61.624 97.202 74.038 119.3 29.826 11.205-22.413 15.742-49.954 0.9519-73.614-11.069-17.708-42.923-35.612-69.806-26.97z"/>
    <path class="fil1" d="m69.462 313.61c-9.6723-5.2081-45.536 16.229-45.536 25.331 0 5.4852-3.7288 6.5378-6.1532 11.373-3.3223 6.6255-5.642 16.818-5.7836 22.928-0.5259 22.69 11.432 40.622 21.677 50.423 1.0668 1.0207 4.5113-0.0121 5.7675 0.8765 1.4656 1.0369 3.165 4.9662 4.9107 5.8238 8.411 4.1325 20.111 3.2049 36.637 3.2049 2.5884 0 4.2175-1.8552 7.4765-3.0349 4.1249-1.493 10.796-1.3644 15.41-4.1216 4.0039-2.3925 8.7985 0.7116 12.352-2.5107 9.8237-8.9088 10.538-29.252 16.847-33.771 3.1485-2.2552 3.0005-5.3088 3.0852-6.9917 0.1089-2.1635-2.5655-3.448-3.1779-7.3228-2.491-15.761-5.4846-36.01-16.914-47.853-10.737-11.125-29.435-14.338-46.599-14.355z"/>
    <path class="fil11 str0" d="m66.558 317.42c-10.63 4.9061-14.136 3.965-25.217 3.965-15.443 0-2.9097 9.2537-9.3574 15.701-18.584 18.584-14.591 10.174-14.591 39.967 0 6.8365-10.891 41.236 8.4058 41.236 18.688 0 22.786 15.701 38.381 15.701 11.806 0 18.173-6.5397 28.865-7.7714 10.013-1.1536 10.091 6.1014 16.494 8.5644 5.9515 2.2894 1.9342-9.8642 5.8682-13.798 10.243-10.243 17.763-10.799 17.763-29.5 0-23.44 7.605-43.551-12.371-56.144-18.812-11.86-30.72-26.291-54.241-17.922z"/>
    <path class="fil13" d="m123.36 400.14c-5.153 4.7849-9.7109 4.1556-12.688 11.895-0.5839 1.5182 0.4431 3.2943 1.2688 3.965 0.8356 0.6789 1.9392-1.7806 2.5376-2.379 4.1296-4.1296 14.274-4.1063 14.274-11.578 0-6.2538-0.6101-13.687-0.9516-20.301-0.2554-4.9479 1.9032-7.0543 1.9032-11.102 0-1.8574-1.81-0.4326-2.2204 0.6344-2.7523 7.1553 2.2 24.321-4.1236 28.865z"/>
    <path class="fil12" d="m61.822 327.66c-1.6662-0.476-11.219-0.3832-12.847 0.6344-4.8488 3.0311-12.371-8.2908-12.371 2.2204 0 17.895-12.961 11.9-16.336 23.156-0.9614 3.2067-1.9032 5.9388-1.9032 10.785 0 2.6692 2.6962 13.427 2.6962 8.8816 0-7.3802 0.9812-13.494 4.2822-18.239 2.9718-4.2722 7.5079-3.8702 10.943-6.6612 4.2501-3.4526 4.6269-13.18 8.4058-15.543 2.0752-1.2972 5.5697-2.0618 8.8816-2.0618 1.3826 0 8.9612-2.4054 8.2472-3.172z"/>
    <path class="fil12" d="m81.012 317.36c-1.9758 0.4234-4.7266 1.467-6.1854 2.379-4.5745 2.8596 6.0057 0.6344 7.4542 0.6344 3.7211 0 6.8746-0.1864 9.8332 0.9516 0.5747 0.2211 4.6971 3.2036 3.6478 0.4758-1.2619-3.2807-9.8298-4.4408-14.75-4.4408z"/>
    <path class="fil13" d="m58.174 426.47c-4.933-1.1383-5.1743-0.2399-1.7446 2.2204 4.0384 2.8968 24.583 2.7308 24.583-2.6962 0-2.3012-4.6411 0.4977-5.2338 0.6344-5.6765 1.3092-12.018 2.2323-17.605-0.1586z"/>
    <path class="fil12" d="m96.079 422.82c-1.6493 0-4.0148 0.6829-1.2688 1.4274 2.6205 0.7104 7.7107 3.4285 9.3574 5.0752 1.5274 1.5274 2.4379 4.3846 4.4408 5.0752 2.2142 0.7636 2.1866-2.4332 1.4274-3.6478-2.4515-3.9215-8.4623-7.7714-13.957-7.93z"/>
    <path class="fil12" d="m18.02 388.98c1.0638-3.1916 2.7855 10.487 3.172 11.261 4.8135 9.6296 3.9802 8.6128 16.177 11.102 5.8366 1.1912 8.3317 8.7763 4.4408 6.344-2.3362-1.4605-8.5934-0.5357-11.736-1.7446-2.9387-1.1304-5.8676 0.0613-8.0886-1.9032-3.5434-3.1344-3.6323-5.5906-5.0752-10.785-1.4761-5.3136 1.2688-10.46 1.1102-14.274z"/>
      <path class="fil10" d="m18.811 337.33l13.776-2.2634 12.944-4.8573c15.62-5.4397 32.456-7.1631 48.896-7.8349l15.083 0.2415c2.0645 0.1685 4.6463 0.5444 6.6199 1.4371 0.6609 0.2989 1.1912 0.7965 1.7466 1.2631l-0.198 0.2378c-4.051-1.1925-8.4607-1.0129-12.628-0.6831l-21.967 2.4347-22.437 3.5428-13.68 2.8176-13.78 3.9845c-4.7793 0.7398-9.5589 0.119-14.375-0.3204z"/>
     <path class="fil6" d="m18.811 337.33c8.4058 1.4274 19.984-2.2204 27.438-5.3924 8.8816-3.6478 64.867-12.054 71.529-6.5026"/>
      <path class="fil10" d="m116.98 325.59c-3.4972 2.5486-6.8591 5.2896-10.862 6.9347-4.3624 1.793-8.9995 2.9212-13.669 3.5875l-30.508 2.6139-28.634 2.498c-4.0583 0.7225-7.9857 2.2325-11.582 4.2465l-9.2825 7.4913-0.2782-0.1854c2.5769-3.3185 4.8872-6.888 8.3129-9.3205 3.5879-2.5477 7.6902-4.4405 11.964-5.4875l29.309-4.183 30.231-1.0935 13.372-2.4293 11.625-4.6727z"/>
     <path class="fil6" d="m116.98 325.59c-26.169 20.142-85.961-0.793-104.68 27.279"/>
      <path class="fil10" d="m12.308 352.87l5.4666 1.3979c2.3313 0.2786 4.7046 0.3238 7.0348 0.036l17.383-3.3241 25.471-7.8958c10.942-3.1828 22.164-5.3956 33.575-6.025l27.996 1.7846-0.0754 0.4564-27.585 1.1823-26.612 5.5166-13.593 3.9608c-12.894 3.2417-26.815 7.7023-40.386 6.4613-2.2388-0.2047-4.5331-0.6283-6.4899-1.735l-2.1841-1.816z"/>
     <path class="fil6" d="m12.308 352.87c11.102 8.4058 49.007-5.7096 62.013-9.1988 15.384-4.2822 38.54-7.2956 54.876-4.5994"/>
      <path class="fil10" d="m129.04 339.23l-30.159 8.6888-31.405 6.0374-35.087 10.498-10.919 1.6784 12.843-0.3678 30.934-4.5453 21.408-4.7504 33.087-2.3822c4.6032 0.0319 10.05 0.3277 14.577 1.762 1.5308 0.4849 2.8657 1.3876 4.2409 2.2167l-0.3268 0.3922-4.1883-1.5533-6.3848-0.7432-40.449 3.5244-21.11 5.3126-31.416 5.3672-20.878 0.6196c-1.6713-0.137-3.6163-1.0261-4.0921-2.7643-0.6444-2.3541 1.6001-4.0116 3.4514-4.8618 1.4677-0.674 3.018-1.1845 4.6072-1.4726l13.681-1.798 35.123-9.5745 31.916-5.0646 30.546-6.2196z"/>
     <path class="fil6" d="m129.04 339.23c-17.605 7.4542-42.663 8.0886-62.013 13.005-14.591 3.8064-31.561 10.785-46.787 11.736-4.9166 0.1586-14.115 4.758-2.6962 4.758 23.949 0 41.553-3.6478 64.55-9.6746 9.516-2.379 48.69-7.137 56.303-0.793"/>
      <path class="fil10" d="m138.55 359.06l-31.652 9.6425-33.533 3.2417-19.886 3.906-28.797 7.7256-4.2462 1.2291 7.545-0.8478 19.98-0.8879 34.121-5.9682 22.562-2.7762 10.894-1.9418c7.51-0.4458 15.254 0.3665 22.33 2.9777 2.0606 0.7605 2.8125 3.5529 0.9193 4.9266-0.4659 0.3381-0.9495 0.6927-1.5078 0.833l-12.318 2.2032-39.331 4.7359-18.417 4.7547-20.588 1.1703c-5.0815 0.5999-10.104 1.7283-14.754 3.8636l-9.213 5.684-4.5551 1.9555-0.1784-0.5498 8.5683-5.2911c3.1275-2.0214 6.0699-4.542 9.6475-5.5755l20.73-2.7438 18.945-3.5338 18.623-4.6678 37.527-4.7162 1.0815-0.289-2.9522-0.5742-14.09-0.7873-10.504 2.0421-22.593 3.0984-34.432 5.8105-20.111 0.6133-14.191 1.3683c-1.6246 0.0851-3.5934 0.0766-4.699-1.3116-1.087-1.3648 0.0357-3.1602 1.2591-3.9434 1.2893-0.8254 2.5881-1.7088 4.0544-2.1489l17.871-3.9536 30.129-8.2885 26.656-1.5278 33.895-5.0863 15.209-4.3715z"/>
     <path class="fil6" d="m138.55 359.06c-18.239 7.7714-44.884 11.419-65.185 11.419-13.798 0-27.121 6.8198-40.284 9.6746-6.1854 1.4274-11.261 1.2688-17.446 3.965-14.433 6.6612 9.8332 1.7446 15.384 1.9032 22.997 1.2688 45.677-7.137 68.674-8.723 7.2956-0.4758 13.957-3.4892 21.728-2.8548 11.736 0.793 28.548 4.1236 3.3306 6.9784l-30.134 3.3306c-13.005 1.4274-23.473 7.7714-37.747 7.7714-6.9784 0-13.798 0.3172-20.459 2.379-6.8198 2.2204-12.529 8.4058-18.398 10.309"/>
      <polygon class="fil10" points="17.701 405.21 32.475 402.26 68.254 398.82 110.7 394.02 132.42 397.01 132.32 397.55 110.79 397.12 68.999 403.46 32.466 404.79"/>
     <path class="fil6" d="m17.701 405.21c8.8816-2.8548 20.618-1.1102 29.658-1.586 28.707-1.586 55.669-12.212 85.01-6.344"/>
      <path class="fil10" d="m132.37 397.28c-4.852 2.8121-9.469 6.1999-14.885 7.6555l-31.471 4.8585-23.696 3.0762c-8.1567 2.3185-16.533 4.6137-23.968 8.8309-1.5196 0.862-2.7341 1.8868-3.7991 3.2407l-0.3926-0.1308c0.7512-2.6312 2.9291-4.5063 5.2268-5.9213l10.459-5.4806 16.152-5.7183 19.692-2.6913 31.066-2.7861 15.616-4.9334z"/>
     <path class="fil6" d="m132.37 397.28c-20.142 11.736-41.077 8.2472-62.488 11.736-6.8198 0.9516-33.306 9.1988-35.526 15.86"/>
      <path class="fil10" d="m34.354 425.51l20.841-1.5723 22.468-7.9656c3.4474-0.933 7.1177-0.5883 10.688-0.6647l15.309-0.1479c4.0117 0.1211 8.9945 0.1041 12.51 2.5082 1.0122 0.6922 1.3668 1.5952 1.4338 2.7379l-0.6038 0.0584c-0.8689-1.7897-2.879-2.2241-4.762-2.3909l-8.4592 0.0985-15.217 1.3638-9.9693 1.2385-22.892 6.6256c-7.1122 0.8772-14.239-0.9708-21.346-1.8895z"/>
     <path class="fil6" d="m34.354 425.51c8.2472 0 12.847 1.4274 21.094 0.1586 7.6128-1.1102 15.226-5.8682 22.68-7.2956 4.9166-0.9516 15.543-1.1102 21.252-1.4274 3.8064-0.3172 17.446-1.4274 17.922 3.4892"/>
</svg>
