<?xml version="1.0" encoding="UTF-8"?>
<!DOCTYPE svg  PUBLIC '-//W3C//DTD SVG 1.1//EN'  'http://www.w3.org/Graphics/SVG/1.1/DTD/svg11.dtd'>
<svg enable-background="new -25.5643 145.8195 1046.1285 1162.5737" version="1.1" viewBox="-25.5643 145.8195 1046.1285 1162.5737" xml:space="preserve" xmlns="http://www.w3.org/2000/svg">
<g stroke-width=".3">
	<path d="m294.46 202.02c-0.22-14.66 12.88-27.73 27.48-27.75 98.02-0.04 196.04 0 294.06-0.02 5.95 0.01 12.17-0.5 17.76 1.96 10.39 4 17.95 14.62 17.87 25.83 0.01 118.99 0.01 237.97 0 356.96-0.02 5.06 0.23 10.15-0.42 15.19-3.75-8.25-5.35-17.25-8.75-25.62-6.32-16.42-11.94-33.1-18.4-49.46-0.02-3.03 0.02-6.06-0.07-9.09-0.8 0.04-2.41 0.1-3.22 0.13-0.33-0.9-0.68-1.78-1.05-2.64 1.44-0.07 2.89-0.13 4.34-0.19 0.15-53.44-0.15-106.88 0.15-160.31 0.16-3.63 0.15-7.26-0.01-10.88-0.37-19.65 0.19-39.31-0.27-58.95l-0.1-0.87c-100.47 0.08-200.95-0.08-301.42 0.08l-0.31 0.72-0.22 0.72c-1.32 3.58-0.84 7.44-0.86 11.17 0.04 11-0.01 22 0.02 33 0.09 4.76-0.6 9.64 0.85 14.27 0.37 3.27 0.33 6.56 0.32 9.85 18.25 0.56 36.53 0.07 54.79 0.23h234c4.1-0.07 8.25-0.28 12.3 0.63-5.09 0.62-10.21 0.39-15.3 0.4-87.34 0.01-174.67 0-262 0-8.07 0.16-16.15-0.31-24.2 0.2-0.47 1.41-0.81 2.87-0.81 4.36 0.06 23.04 0.08 46.07 0 69.1-0.02 1.48 0.46 2.89 0.91 4.28-4.78 5.96-8.48 12.71-12.14 19.4-1.96 3.44-2.51 7.44-4.19 10.99-3.23 5.71-5.38 11.95-8.55 17.7-0.65-1.73-1.4-3.48-1.38-5.36 0.03-27.68 0.02-55.37 0.02-83.05-0.01-4.18 0.49-8.47-0.91-12.51-0.51-3.81-0.28-7.66-0.31-11.49 0.02-46.33-0.01-92.66 0.02-138.98m154.89 5.39c-5.21 1.04-5.85 9.29-1.38 11.66 2.2 0.97 4.68 0.71 7.03 0.79 17.61-0.19 35.24 0.2 52.85-0.19 5.83-0.16 6.98-9.26 2.22-11.77-2.53-1.12-5.4-0.69-8.07-0.78-17.55 0.26-35.13-0.36-52.65 0.29m156.04 0.05c-7.87 1.18-14.26 8.55-14.15 16.53-0.35 9 7.74 17.22 16.75 16.94 9.43 0.55 17.98-8.62 16.87-17.98-0.33-9.56-10.05-17.34-19.47-15.49m-33.23 15.99c-2.7599 0.01-4.8 2.75-4.16 5.41 0.57 3.69 6.68 4.66 8.13 1.13 1.65-2.77-0.74-6.79-3.97-6.54z" fill="#535353" stroke="#535353"/>
	<path d="m449.35 207.41c17.52-0.65 35.1-0.03 52.65-0.29 2.67 0.09 5.54-0.34 8.07 0.78 4.76 2.51 3.61 11.61-2.22 11.77-17.61 0.39-35.24 0-52.85 0.19-2.35-0.08-4.83 0.18-7.03-0.79-4.47-2.37-3.83-10.62 1.38-11.66z" fill="#303030" stroke="#303030"/>
	<path d="m605.39 207.46c9.42-1.85 19.14 5.93 19.47 15.49 1.11 9.36-7.44 18.53-16.87 17.98-9.01 0.28-17.1-7.94-16.75-16.94-0.11-7.98 6.28-15.35 14.15-16.53m-0.11 2.88c-6.04 1.08-10.82 6.56-11.24 12.66-0.92 7.86 6.08 15.38 13.95 15.26 7.62 0.29 14.41-6.69 14.2-14.26 0.1801-8.49-8.5899-15.75-16.91-13.66z" fill="#949494" stroke="#949494"/>
	<path d="m605.28 210.34c8.3199-2.09 17.09 5.17 16.91 13.66 0.21 7.57-6.58 14.55-14.2 14.26-7.87 0.12-14.87-7.4-13.95-15.26 0.42-6.1 5.2-11.58 11.24-12.66z" fill="#303030" stroke="#303030"/>
	<path d="m572.16 223.45c3.23-0.25 5.6201 3.77 3.97 6.54-1.45 3.53-7.56 2.56-8.13-1.13-0.64-2.66 1.4-5.4 4.16-5.41z" fill="#303030" stroke="#303030"/>
	<path d="m322.41 256.39c100.47-0.16 200.95 0 301.42-0.08l0.1 0.87c-58.65 0.1-117.29 0.01-175.93 0.04-41.97-0.07-83.94 0.15-125.9-0.11l0.31-0.72z" fill="#303030" stroke="#303030"/>
	<path d="m322.1 257.11c41.96 0.26 83.93 0.04 125.9 0.11 58.64-0.03 117.28 0.06 175.93-0.04 0.46 19.64-0.1 39.3 0.27 58.95-56.07-0.06-112.14-0.01-168.2-0.02-44.71 0.11-89.42-0.23-134.11 0.16 0.7-13.73 0.12-27.51 0.3-41.27-0.02-5.72 0.19-11.46-0.31-17.17l0.22-0.72m245.88 12.99c-0.25 1.65-0.27 3.31-0.11 4.98 5.02 0.62 10.08 0.23 15.13 0.32 8.99-0.21 18.02 0.47 26.99-0.37 0.06-1.63 0.04-3.27-0.07-4.89-5.29-0.66-10.62-0.29-15.92-0.37-8.67 0.19-17.37-0.4-26.02 0.33m0.16 14.17c-0.18 1.5-0.26 3.02-0.03 4.53 7.92 0.94 15.93 0.2 23.89 0.43 5.75-0.23 11.57 0.57 17.26-0.53l0.75 0.06c-0.02-1.5-0.01-3 0.02-4.5l-0.79 0.09c-13.68-0.41-27.4-0.28-41.1-0.08m-0.02 14c-0.19 1.48-0.21 2.99 0 4.48 5.26 0.76 10.58 0.32 15.88 0.43 8.41-0.27 16.89 0.59 25.25-0.51l0.79 0.08c-0.02-1.5-0.02-2.99 0-4.48l-0.78 0.07c-4.72-0.84-9.51-0.41-14.26-0.49-8.96 0.2-17.95-0.47-26.88 0.42z" fill="#fff" stroke="#fff"/>
	<path d="m321.02 269c0.02-3.73-0.46-7.59 0.86-11.17 0.5 5.71 0.29 11.45 0.31 17.17-0.18 13.76 0.4 27.54-0.3 41.27-1.45-4.63-0.76-9.51-0.85-14.27-0.03-11 0.02-22-0.02-33z" fill="#3C3C3C" stroke="#3C3C3C"/>
	<path d="m567.98 270.1c8.65-0.73 17.35-0.14 26.02-0.33 5.3 0.08 10.63-0.29 15.92 0.37 0.11 1.62 0.13 3.26 0.07 4.89-8.97 0.84-18 0.16-26.99 0.37-5.05-0.09-10.11 0.3-15.13-0.32-0.16-1.67-0.14-3.33 0.11-4.98z" fill="#818181" stroke="#818181"/>
	<path d="m568.14 284.27c13.7-0.2 27.42-0.33 41.1 0.08-13.47 0.76-27-0.16-40.49 0.44 0 0.87-0.01 2.6-0.01 3.47 13.5 0.57 27.03-0.32 40.52 0.44-5.69 1.1-11.51 0.3-17.26 0.53-7.96-0.23-15.97 0.51-23.89-0.43-0.23-1.51-0.15-3.03 0.03-4.53z" fill="#303030" stroke="#303030"/>
	<path d="m609.24 284.35l0.79-0.09c-0.03 1.5-0.04 3-0.02 4.5l-0.75-0.06c-13.49-0.76-27.02 0.13-40.52-0.44 0-0.87 0.01-2.6 0.01-3.47 13.49-0.6 27.02 0.32 40.49-0.44z" fill="#838383" stroke="#838383"/>
	<path d="m568.12 298.27c8.93-0.89 17.92-0.22 26.88-0.42 4.75 0.08 9.54-0.35 14.26 0.49-13.49 0.68-27.02-0.17-40.51 0.41 0 0.88-0.01 2.63-0.01 3.5 13.49 0.59 27.02-0.28 40.51 0.42-8.36 1.1-16.84 0.24-25.25 0.51-5.3-0.11-10.62 0.33-15.88-0.43-0.21-1.49-0.19-3 0-4.48z" fill="#303030" stroke="#303030"/>
	<path d="m609.26 298.34l0.78-0.07c-0.02 1.49-0.02 2.98 0 4.48l-0.79-0.08c-13.49-0.7-27.02 0.17-40.51-0.42 0-0.87 0.01-2.62 0.01-3.5 13.49-0.58 27.02 0.27 40.51-0.41z" fill="#828282" stroke="#828282"/>
	<path d="m321.89 316.27c44.69-0.39 89.4-0.05 134.11-0.16 56.06 0.01 112.13-0.04 168.2 0.02 0.16 3.62 0.17 7.25 0.01 10.88l-0.91-0.03c-4.05-0.91-8.2-0.7-12.3-0.63h-234c-18.26-0.16-36.54 0.33-54.79-0.23 0.01-3.29 0.05-6.58-0.32-9.85z" fill="#818181" stroke="#818181"/>
	<path d="m321.8 327.58c8.05-0.51 16.13-0.04 24.2-0.2 87.33 0 174.66 0.01 262 0 5.09-0.01 10.21 0.22 15.3-0.4l0.91 0.03c-0.3 53.43 0 106.87-0.15 160.31-1.45 0.06-2.9 0.12-4.34 0.19-1.31-2.81-2.65-5.6-3.75-8.49-3.4399-8.84-8.15-17.1-12.05-25.73 0.79-17.08 0.14-34.2 0.35-51.29-0.09-17.39 0.19-34.78-0.13-52.16-52.04-0.34-104.1-0.05-156.14-0.15-35.35 0.1-70.69-0.19-106.03 0.14-0.15 11.76-0.1 23.52-0.01 35.28-3.3 2.97-6.01 6.56-9.49 9.35-3.92 3.21-7.35 6.95-10.57 10.86 0.68-17.09 0.11-34.22 0.3-51.32-0.2-8.8 0.44-17.64-0.4-26.42z" fill="#fff" stroke="#fff"/>
	<path d="m320.99 331.94c0-1.49 0.34-2.95 0.81-4.36 0.84 8.78 0.2 17.62 0.4 26.42-0.19 17.1 0.38 34.23-0.3 51.32-0.45-1.39-0.93-2.8-0.91-4.28 0.08-23.03 0.06-46.06 0-69.1z" fill="#3C3C3C" stroke="#3C3C3C"/>
	<path d="m341.97 349.83c35.34-0.33 70.68-0.04 106.03-0.14 52.04 0.1 104.1-0.19 156.14 0.15 0.32 17.38 0.04 34.77 0.13 52.16-0.21 17.09 0.44 34.21-0.35 51.29-6.94-11.58-12.53-24.28-22.37-33.8-7.91-9.36-21.29-15.6-33.42-11.37-6.21 1.63-10.65 6.6-15.24 10.76-4.19 3.81-7.57 8.54-9.01 14.07-3.41 8.61-2.26 18.02-1.58 27-41.77 0.31-83.55 0.01-125.32 0.15 3.75-15.68 7.94-31.9 5.15-48.11-0.39-3.08-2.64-5.35-4.27-7.82-2.19-3.16-3.59-6.93-6.62-9.43-4.2-3.56-8.28-7.57-13.56-9.47-11.37-4.51-24.2-3.6-35.72-0.16-0.09-11.76-0.14-23.52 0.01-35.28z" fill="#F29B75" stroke="#F29B75"/>
	<path d="m280.3 379.32c4.96-8.87 8.94-18.28 14.45-26.83-0.5 25.5-0.08 51.01-0.21 76.51 0.17 9.13-0.39 18.29 0.31 27.41 0.8-0.95 1.58-1.91 2.17-3 3.17-5.75 5.32-11.99 8.55-17.7 1.68-3.55 2.23-7.55 4.19-10.99 3.66-6.69 7.36-13.44 12.14-19.4 3.22-3.91 6.65-7.65 10.57-10.86 3.48-2.79 6.19-6.38 9.49-9.35 11.52-3.44 24.35-4.35 35.72 0.16 5.28 1.9 9.36 5.91 13.56 9.47 3.03 2.5 4.43 6.27 6.62 9.43 1.63 2.47 3.88 4.74 4.27 7.82 2.79 16.21-1.4 32.43-5.15 48.11-3.12 8.97-5.84 18.09-9.3 26.94-0.45 1.06-0.93 2.11-1.37 3.18-1.2 2.87-2.23 5.81-3.45 8.68-1.01 2.37-1.98 4.75-2.94 7.15-4.9 12.04-12.1 23.33-14.32 36.32-0.55 8.8-3.55 17.17-5.48 25.73-4.45 22.05-8.67 44.17-11.47 66.51-0.48 5.22-1.39 10.4-2.73 15.47-1.56 6.19-2.65 12.49-4.39 18.64-0.41 1.21-0.86 2.41-1.33 3.61l-0.33 0.78c-2.26 5.69-4.85 11.24-7.26 16.87-4.76 11.34-10.67 22.45-19.21 31.43-7.5 6.73-13.8 14.81-18.48 23.73 1.04 12.98 13.16 23.9 26.11 24.26 25.14 0.27 50.3-0.21 75.44 0.24-3.28 5.76-7.41 11.09-12.72 15.11-8.93 6.96-17.86 14.19-28.3 18.79-7.82 3.92-15.76 7.67-24.04 10.53 0.79 8.47 1.5 17.02 1.2 25.52-2.08 2.58-4.45 4.91-6.4 7.61-4.25 6.1-9.95 11.3-12.56 18.44-3.24 8.43-6.48 16.88-9.84 25.28-5.39 11.76-9.75 24-16.01 35.36-2.31 4.42-3.97 9.33-7.42 13.05-2.11 2.65-5.94 1.91-8.74 0.99-20.48-7.58-41.02-15.26-60.24-25.74-15.58-9.05-29.95-19.95-44.53-30.49-7.85-6.09-15.43-12.55-22.84-19.17-8.75-8.91-17.72-17.63-25.75-27.2-5.83-6.83-12.15-13.26-17.37-20.59-1.82-2.81-1.31-6.83 0.91-9.28 3.01-3.66 6.06-7.3 8.73-11.22 16.97-22.34 29.55-47.53 43.19-71.94 9.38-16.94 15.33-35.44 21.33-53.78 0.72-2.33 2.65-4.04 3.42-6.35 1.17-3.56 1.7-7.31 3.14-10.79 1.89-4.73 2.11-9.88 2.98-14.85 2.03-16.01 4.92-31.9 7.05-47.9 4.93-31.32 5.01-63.57 14.32-94.06 5.93-8.91 10.44-18.67 16.49-27.49 2.95-4.01 6.96-7.06 10.2-10.82 4.2-5.11 9.68-9.04 13.31-14.65 4.72-5.16 7.27-11.85 12.02-16.98 2.68-3.26 3.96-7.35 5.78-11.1 4.62-12.58 10.75-24.53 16.52-36.6m70.22 19.23c-9.98 4.37-15.15 14.6-20.45 23.48-1.31 1.9-1.13 4.24-0.57 6.37 5.91 1.15 11.91 2.27 17.47 4.66 6.78 3.37 13.8 6.46 19.76 11.22 2.84 1.88 5.13 5.51 9.01 4.67 6.65-7.23 10.75-17.07 9.36-26.99-0.14-8.89-7.26-15.48-14.29-19.82-5.84-4.05-13.43-5.27-20.29-3.59z" fill="#FCD8C5" stroke="#FCD8C5"/>
	<path d="m294.75 352.49c1.4 4.04 0.9 8.33 0.91 12.51 0 27.68 0.01 55.37-0.02 83.05-0.02 1.88 0.73 3.63 1.38 5.36-0.59 1.09-1.37 2.05-2.17 3-0.7-9.12-0.14-18.28-0.31-27.41 0.13-25.5-0.29-51.01 0.21-76.51z" fill="#303030" stroke="#303030"/>
	<path d="m350.52 398.55c6.86-1.68 14.45-0.46 20.29 3.59 7.03 4.34 14.15 10.93 14.29 19.82 1.39 9.92-2.71 19.76-9.36 26.99-3.88 0.84-6.17-2.79-9.01-4.67-5.96-4.76-12.98-7.85-19.76-11.22-5.56-2.39-11.56-3.51-17.47-4.66-0.56-2.13-0.74-4.47 0.57-6.37 5.3-8.88 10.47-19.11 20.45-23.48z" fill="#FEEFE8" stroke="#FEEFE8"/>
	<path d="m548.13 408.12c12.13-4.23 25.51 2.01 33.42 11.37 9.84 9.52 15.43 22.22 22.37 33.8 3.9 8.63 8.61 16.89 12.05 25.73 1.1 2.89 2.44 5.68 3.75 8.49 0.3701 0.86 0.72 1.74 1.05 2.64 0.94 3.04 1.98 6.05 3.29 8.96 6.46 16.36 12.08 33.04 18.4 49.46 3.4 8.37 5 17.37 8.75 25.62 0.66 4.95 2.84 9.49 4.21 14.26 1.52 5.42 3.24 10.81 5.22 16.09 8.19-7.44 15.84-15.75 25.57-21.22 9.93 0.17 20.31-1.06 29.75 2.83 5.19 2.62 11.19 4.0699 15.18 8.6 5.61-4.47 11.98-7.78 18.06-11.54 8.96-5.27 19.8-5.31 29.85-4.29 8 0.76 15.32 4.32 23 6.4 4.08-1.36 7.99-4.65 12.57-2.8 9.84 3.73 20.36 6.56 28.82 13.07 3.44 3.34 7.92 6.36 8.68 11.46 7.91 24.29 15.1 48.84 20.35 73.86 3.6 15.93 7.01 31.92 9.45 48.08 2.92 14.18 4.14 28.62 5.76 42.99 0.59 13.95 1.99 27.97 0.24 41.9-0.92 7.56-0.99 15.9-5.79 22.25-3.64 4.68-6.95 9.64-11.12 13.88-2.59 2.93-5.89 5.28-7.7 8.84 3.21 3.07 6.47 6.17 8.88 9.96 2.02 3.12 4.76 6.15 4.67 10.12 1.32 7.79 0.5 15.88 2.97 23.47 3.55 13.12 8.64 25.76 12.06 38.92 2.54 8.79 5.05 17.61 6.93 26.58 1.03 5.02 3.71 9.79 3.28 15.04-0.0699 2.42-2.47 3.66-4.0699 5.1-14.43 10.86-30.63 19.37-47.68 25.3-8.98 2.85-18 5.64-27.15 7.8799-31.12 7.0801-63.2 12.39-95.17 8.9301-3.3101-0.37-7.88-0.04-9.36-3.79-2.72-6.81-4.47-13.97-6.4-21.03-4.35-13.27-7.46-26.9-11.38-40.3-5.32-17.6-9.2-35.64-15.88-52.8-0.88-2.38-0.57-4.96-0.68-7.42-11.37 1.04-22.82 1.93-34.24 1.45-5.4301-5.18-13.47-5.53-19.29-10.08-4.58-3.45-9.6-6.27-14.05-9.89-5.03-3.21-9.03-7.68-13.75-11.27-7.08-6.21-15.52-10.47-23.19-15.85-9.8-5.1-19.46-10.73-30.11-13.92-3.35-1.19-6.57-2.7-9.89-3.92-9.5-3.28-16.41-11.2-21.89-19.29-2.71-3.85-3.56-8.73-6.69-12.3-1.05-1.17-1.74-2.58-2.05-4.1-3.25-12.64-8.22-24.82-14.79-36.1-4.33-8.04-9.77-15.37-15.33-22.58-3.84-7.84-11.18-12.97-16.07-20.07 6.84 2.46 9.71 9.82 15.46 13.77 1.02 0.34 2.05 0.34 3.09-0.0099 2.12-2.29 3.48-5.19 5.73-7.38 2.23-2.19 5.12-3.56 7.36-5.74 1.12-3.28-0.47-6.9901-3.01-9.16-6.94-5.97-14.81-12.77-24.67-11.58-6.36-0.68-10.74 5.61-11.3 11.32-4.94-3.83-8.63-9.22-10.15-15.3-0.7-3.92-0.49-7.93-0.55-11.89l0.04-1.1c0.87-6.55 5.1-11.99 9.32-16.81 1.49-1.46 3.07-2.83 4.69-4.15 10.18-3.67 21.33-2.86 31.94-2.05 6.97 0.11 13.76 1.83 20.7 2.23 4.06 1.48 8.2 2.69 12.24 4.22 9.59 3.88 18.78 9.06 26 16.59 5.48 6.13 10.48 12.77 14.06 20.2 3.95 8.08 8.66 15.78 14.14 22.91 0.96 1.36 2.33 2.33 3.76 3.16 0.2-4.51-1.95-8.57-3.21-12.77-3.28-10.99-6.56-22.06-7.77-33.51-0.87-5.59-1.64-11.18-2.49-16.76-0.18-1.39-0.33-2.76-0.45-4.13-0.77-6.68-1.18-13.39-1.9-20.07-0.37-3.17-0.91-6.31-1.42-9.45-1.44-7.78 0.35-15.77-1.46-23.51-3.41-16.49-8.49-32.63-14.84-48.21-1.54-4.4901-1.81-9.28-3.17-13.81-2.02-7.09-4.36-14.09-5.93-21.3-0.32-1.25-0.63-2.48-0.92-3.71-1.63-7.74-4.29-15.21-6.04-22.92-0.58-2.41-1.29-4.79-1.97-7.17-0.83-2.93-1.33-5.93-1.96-8.9-0.13-0.65-0.39-1.94-0.52-2.59-1.71-9.14-4.22-18.13-5.49-27.36-0.68-8.98-1.83-18.39 1.58-27 1.44-5.53 4.82-10.26 9.01-14.07 4.59-4.1602 9.03-9.1302 15.24-10.76m10.22 15.26c-8 1.52-15.44 6.26-19.73 13.24-2.77 4.51-1.37 10.02 0.02 14.75 1.3 3.99 1.92 8.28 4.05 11.94 1.09 1.92 3.67 1.76 5.27 0.63 9.23-5.77 19.32-10.03 29.65-13.38 1.72-0.69 4.16-1.5 4.39-3.65 0.06-7.37-4.37-13.62-8.75-19.14-3.98-3.59-9.54-5.79-14.9-4.39z" fill="#FCD8C5" stroke="#FCD8C5"/>
	<path d="m558.35 423.38c5.36-1.4 10.92 0.8 14.9 4.39 4.38 5.52 8.81 11.77 8.75 19.14-0.23 2.15-2.67 2.96-4.39 3.65-10.33 3.35-20.42 7.61-29.65 13.38-1.6 1.13-4.18 1.29-5.27-0.63-2.13-3.66-2.75-7.95-4.05-11.94-1.39-4.73-2.79-10.24-0.02-14.75 4.29-6.98 11.73-11.72 19.73-13.24z" fill="#FEEFE8" stroke="#FEEFE8"/>
	<path d="m396.98 460.1c41.77-0.14 83.55 0.16 125.32-0.15 1.27 9.23 3.78 18.22 5.49 27.36-39.93 0.19-79.86 0.04-119.79 0.08-6.77-0.1-13.56 0.32-20.32-0.35 3.46-8.85 6.18-17.97 9.3-26.94z" fill="#fff" stroke="#fff"/>
	<path d="m386.31 490.22c0.44-1.07 0.92-2.12 1.37-3.18 6.76 0.67 13.55 0.25 20.32 0.35 39.93-0.04 79.86 0.11 119.79-0.08 0.13 0.65 0.39 1.94 0.52 2.59-16.08 0.76-32.21 0.13-48.31 0.33-31.23 0-62.46 0.02-93.69-0.01z" fill="#727272" stroke="#727272"/>
	<path d="m386.31 490.22c31.23 0.03 62.46 0.01 93.69 0.01 16.1-0.2 32.23 0.43 48.31-0.33 0.63 2.97 1.13 5.97 1.96 8.9-23.75 0.49-47.52 0.07-71.27 0.21-25.38-0.07-50.76 0.14-76.14-0.11 1.22-2.87 2.25-5.81 3.45-8.68z" fill="#fff" stroke="#fff"/>
	<path d="m620.77 490.15c0.81-0.03 2.42-0.09 3.22-0.13 0.09 3.03 0.05 6.06 0.07 9.09-1.31-2.91-2.35-5.92-3.29-8.96z" fill="#FAF8F6" stroke="#FAF8F6"/>
	<path d="m382.86 498.9c25.38 0.25 50.76 0.04 76.14 0.11 23.75-0.14 47.52 0.28 71.27-0.21 0.68 2.38 1.39 4.76 1.97 7.17-25.07 0.4-50.16 0.06-75.24 0.17-25.7-0.06-51.39 0.13-77.08-0.09 0.96-2.4 1.93-4.78 2.94-7.15z" fill="#808080" stroke="#808080"/>
	<path d="m379.92 506.05c25.69 0.22 51.38 0.03 77.08 0.09 25.08-0.11 50.17 0.23 75.24-0.17 1.75 7.71 4.41 15.18 6.04 22.92-15.4 0.82-30.85 0.14-46.27 0.36-34.09-0.04-68.18 0.1-102.26-0.07 0.05 1.18 0.12 2.36 0.19 3.55 49.76-0.25 99.51 0.03 149.26-0.13 1.57 7.21 3.91 14.21 5.93 21.3 1.36 4.53 1.63 9.3199 3.17 13.81-21.08 0.45-42.18-0.08-63.26 0.27 0.06 26.93-0.17 53.86 0.12 80.78 26.95-0.01 53.91-0.25 80.86 0.12 0.72 6.68 1.13 13.39 1.9 20.07-18.76 0.03-37.52-0.15-56.28 0.09-6.94-0.4-13.73-2.12-20.7-2.23-10.61-0.81-21.76-1.62-31.94 2.05-28.33 0.17-56.67 0.03-85 0.07-10.82-0.1-21.65 0.25-32.47-0.21 1.74-6.15 2.83-12.45 4.39-18.64 24.01 0.61 48.05 0.09 72.08 0.26 14.64-0.1201 29.28 0.25 43.91-0.17 0.01-27.35 0.07-54.7-0.03-82.05-33.92-0.11-67.84-0.06-101.76-0.02 1.93-8.56 4.93-16.93 5.48-25.73 2.22-12.99 9.42-24.28 14.32-36.32z" fill="#fff" stroke="#fff"/>
	<path d="m389.75 529.18c34.08 0.17 68.17 0.03 102.26 0.07 15.42-0.22 30.87 0.46 46.27-0.36 0.29 1.23 0.6 2.46 0.92 3.71-49.75 0.16-99.5-0.12-149.26 0.13-0.07-1.19-0.14-2.37-0.19-3.55z" fill="#777" stroke="#777"/>
	<path d="m360.12 568.1c33.92-0.04 67.84-0.09 101.76 0.02 0.1 27.35 0.04 54.7 0.03 82.05-14.63 0.42-29.27 0.05-43.91 0.17-24.03-0.17-48.07 0.35-72.08-0.26 1.34-5.07 2.25-10.25 2.73-15.47 2.8-22.34 7.02-44.46 11.47-66.51z" fill="#7ECEF4" stroke="#7ECEF4"/>
	<path d="m485.04 567.98c21.08-0.35 42.18 0.18 63.26-0.27 6.35 15.58 11.43 31.72 14.84 48.21 1.81 7.74 0.02 15.73 1.46 23.51 0.51 3.14 1.05 6.28 1.42 9.45-26.95-0.37-53.91-0.13-80.86-0.12-0.29-26.92-0.06-53.85-0.12-80.78z" fill="#FDF898" stroke="#FDF898"/>
	<path d="m340.2 672.33c0.47-1.2 0.92-2.4 1.33-3.61 10.82 0.46 21.65 0.11 32.47 0.21 28.33-0.04 56.67 0.1 85-0.07-1.62 1.32-3.2 2.69-4.69 4.15-1.42-0.28-2.84-0.54-4.27-0.6-36.61-0.03-73.23 0.12-109.84-0.08z" fill="#7E7E7E" stroke="#7E7E7E"/>
	<path d="m511.64 669.04c18.76-0.24 37.52-0.06 56.28-0.09 0.12 1.37 0.27 2.74 0.45 4.13-14.82 0.56-29.67 0.25-44.49 0.18-4.04-1.53-8.18-2.74-12.24-4.22z" fill="#7E7E7E" stroke="#7E7E7E"/>
	<path d="m340.2 672.33c36.61 0.2 73.23 0.05 109.84 0.08 1.43 0.06 2.85 0.32 4.27 0.6-23.76 0.49-47.54 0.07-71.31 0.21-14.38-0.0699-28.76 0.15-43.13-0.11l0.33-0.78z" fill="#303030" stroke="#303030"/>
	<path d="m339.87 673.11c14.37 0.26 28.75 0.04 43.13 0.11 23.77-0.14 47.55 0.28 71.31-0.21-4.22 4.82-8.45 10.26-9.32 16.81-29.33-0.31-58.66-0.05-87.99-0.13-8.13 0.14-16.28-0.33-24.39 0.29 2.41-5.63 5-11.18 7.26-16.87z" fill="#fff" stroke="#fff"/>
	<path d="m523.88 673.26c14.82 0.07 29.67 0.38 44.49-0.18 0.85 5.58 1.62 11.17 2.49 16.76-6.99-0.31-14-0.31-20.98 0.0099-7.22-7.5299-16.41-12.71-26-16.59z" fill="#fff" stroke="#fff"/>
	<path d="m313.4 721.41c8.54-8.98 14.45-20.09 19.21-31.43 3.22 1.62 6.93 0.85 10.39 0.97 33.99-0.05 67.97 0.02 101.95-0.03 0.06 3.96-0.15 7.97 0.55 11.89 1.52 6.08 5.21 11.47 10.15 15.3 2.64 2.75 4.87 5.87 7.34 8.78 4.89 7.1 12.23 12.23 16.07 20.07 5.56 7.21 11 14.54 15.33 22.58-32.64 0.21-65.28 0.03-97.92 0.1-25.14-0.45-50.3 0.03-75.44-0.24-12.95-0.36-25.07-11.28-26.11-24.26 4.68-8.92 10.98-17 18.48-23.73z" fill="#535353" stroke="#535353"/>
	<path d="m332.61 689.98c8.11-0.62 16.26-0.15 24.39-0.29 29.33 0.08 58.66-0.18 87.99 0.13l-0.04 1.1c-33.98 0.05-67.96-0.02-101.95 0.03-3.46-0.12-7.17 0.65-10.39-0.97z" fill="#383838" stroke="#383838"/>
	<path d="m549.88 689.85c6.98-0.3199 13.99-0.3199 20.98-0.0099 1.21 11.45 4.49 22.52 7.77 33.51 1.26 4.2 3.41 8.26 3.21 12.77-1.4301-0.83-2.8-1.8-3.76-3.16-5.48-7.13-10.19-14.83-14.14-22.91-3.58-7.43-8.58-14.07-14.06-20.2z" fill="#535353" stroke="#535353"/>
	<path d="m455.65 718.11c0.56-5.71 4.94-12 11.3-11.32 9.86-1.19 17.73 5.61 24.67 11.58 2.54 2.17 4.13 5.88 3.01 9.16-2.24 2.18-5.13 3.55-7.36 5.74-2.25 2.19-3.61 5.09-5.73 7.38-1.04 0.35-2.07 0.35-3.09 0.0099-5.75-3.95-8.62-11.31-15.46-13.77-2.47-2.9099-4.7-6.0299-7.34-8.7799z" fill="#FEEFE8" stroke="#FEEFE8"/>
	<path d="m87.33 796.4c0.91-1.1801 2-2.76 3.68-2.6801 5.58-0.15 11.14 0.6801 16.72 0.39 0.94 0.83 1.88 1.67 2.82 2.52-2.67 3.92-5.72 7.56-8.73 11.22-2.22 2.45-2.73 6.47-0.91 9.28 5.22 7.33 11.54 13.76 17.37 20.59 8.03 9.57 17 18.29 25.75 27.2 7.41 6.62 14.99 13.08 22.84 19.17 14.58 10.54 28.95 21.44 44.53 30.49 19.22 10.48 39.76 18.16 60.24 25.74 2.8 0.92 6.63 1.66 8.74-0.99 3.45-3.72 5.11-8.63 7.42-13.05 8.16 2.4399 13.78 11.96 11.55 20.2-6.85 8.38-14.76 15.81-22.32 23.54-6.07 6.28-12.89 11.85-18.19 18.84-6.19 6.11-9.82 14.14-14.73 21.2-5.92 8.46-11.05 17.45-17.43 25.58-12.68 18.53-25.95 36.65-39.36 54.67-12.41 17.13-25.63 33.66-38.87 50.15-15.04 18.89-31.05 36.97-46.55 55.47-24.19 28.24-48.95 55.97-73.3 84.07h-28.6v-379.49c18.29-13.7 35.77-28.47 52.45-44.08 3.59-3.12 4.58-8.01 7.18-11.83 10.14-15.53 18.43-32.16 27.7-48.2z" fill="#CCB8D8" stroke="#CCB8D8"/>
	<path d="m898.82 967.9c2.36-1.59 5.35-1.58 8.04-0.97 5.48 1.97 10.14 6.02 13.51 10.69 0.39 11.79 2.39 23.54 1.68 35.37-0.16 2.87-0.56 5.84 0.53 8.6 3.95 11.39 7.13 23.03 11.31 34.34 3.71 10.9 7.95 21.62 11.71 32.52 5.77 17.56 11.99 34.97 17.21 52.71 6.28 20.76 10.99 41.95 16.16 63 4.95 21.59 10.38 43.06 16.03 64.47v11.37h-239.4c-11.25-47.08-21.89-94.37-29.18-142.25-3.7-22.96-7.43-45.92-11.66-68.79-0.71-7.36-3.18-14.42-3.61-21.8-2.9901-4.9701-6.56-9.5601-10.35-13.94-3.18-3.26-2.03-8.1799-0.7-12 1.64-4.52 2.73-9.46 5.89-13.22 1.5-1.93 4.14-1.92 6.28-2.67 1.93 7.06 3.68 14.22 6.4 21.03 1.48 3.75 6.05 3.42 9.36 3.79 31.97 3.46 64.05-1.85 95.17-8.9301 9.15-2.24 18.17-5.03 27.15-7.8799 17.05-5.9301 33.25-14.44 47.68-25.3 1.6-1.44 4-2.68 4.0699-5.1 0.43-5.25-2.25-10.02-3.28-15.04z" fill="#CCB8D8" stroke="#CCB8D8"/>
</g>
</svg>
