<?xml version="1.0" encoding="UTF-8"?>
<svg viewBox="0 0 30 30" xmlns="http://www.w3.org/2000/svg">
 <defs>
  <linearGradient id="a" x1="6.9418" x2="23.45" y1="3.7249" y2="16.508" gradientTransform="matrix(1 0 0 .83333 -1 .83333)" gradientUnits="userSpaceOnUse">
   <stop stop-color="#fff" offset="0"/>
   <stop stop-color="#1daa3f" offset="1"/>
  </linearGradient>
 </defs>
 <path d="m2.6243 19h24.751c1.4539 0 2.6243 1.1705 2.6243 2.6243v5.7513c0 1.4539-1.1705 2.6243-2.6243 2.6243h-24.751c-1.4539 0-2.6243-1.1705-2.6243-2.6243v-5.7513c0-1.4539 1.1705-2.6243 2.6243-2.6243z" fill="#342c49" fill-rule="evenodd"/>
 <path d="m2.6508 20h24.698c0.91454 0 1.6508 0.73625 1.6508 1.6508v5.6984c0 0.91454-0.73625 1.6508-1.6508 1.6508h-24.698c-0.91454 0-1.6508-0.73625-1.6508-1.6508v-5.6984c0-0.91454 0.73625-1.6508 1.6508-1.6508z" fill="#d4d4df" fill-rule="evenodd"/>
 <path d="m5.0318 0h19.937c1.1256 0 2.0318 0.90616 2.0318 2.0318v15.937c0 1.1256-0.90616 2.0318-2.0318 2.0318h-19.937c-1.1256 0-2.0318-0.90616-2.0318-2.0318v-15.937c0-1.1256 0.90616-2.0318 2.0318-2.0318z" fill="#342c49" fill-rule="evenodd"/>
 <path d="m5.0159 1h19.968c0.56279 0 1.0159 0.45308 1.0159 1.0159v15.968c0 0.56279-0.45308 1.0159-1.0159 1.0159h-19.968c-0.56279 0-1.0159-0.45308-1.0159-1.0159v-15.968c0-0.56279 0.45308-1.0159 1.0159-1.0159z" fill="#d4d4df" fill-rule="evenodd"/>
 <path d="m6 4h18v12h-18v-12z" fill="#342c49" fill-rule="evenodd"/>
 <path d="m7 5h16v10h-16v-10z" fill="url(#a)" fill-rule="evenodd"/>
 <path d="m14.84656,22h11.30688c.46899,0 .84656.37757.84656.84656v1.30688c0,.46899-.37757.84656-.84656.84656h-11.30688c-.46899,0-.84656-.37757-.84656-.84656v-1.30688c0-.46899.37757-.84656.84656-.84656z" fill="#9386b6" fill-rule="evenodd"/>
 <path d="m14.5,26h12c.277,0 .5.223.5.5s-.223.5-.5.5h-12c-.277,0-.5-.223-.5-.5s.223-.5.5-.5z" fill="#9386b6" fill-rule="evenodd"/>
 <path d="m3.5,22c.277,0 .5.223.5.5v1c0,.277-.223.5-.5.5s-.5-.223-.5-.5v-1c0-.277.223-.5.5-.5z" fill="#13c000" fill-rule="evenodd"/>
 <path d="m5.5,22c.277,0 .5.223.5.5v1c0,.277-.223.5-.5.5s-.5-.223-.5-.5v-1c0-.277.223-.5.5-.5z" fill="#c50000" fill-rule="evenodd"/>
 <path d="m3.7619,25h1.47619c.4221,0 .7619.33981.7619.7619v.47619c0,.42209-.33981.7619-.7619.7619h-1.47619c-.4221,0-.7619-.33981-.7619-.7619v-.47619c0-.42209.33981-.7619.7619-.7619z" fill="#9386b6" fill-rule="evenodd"/>
</svg>
